<svg version="1.1" viewBox="0.0 0.0 420.0 394.0" fill="none" stroke="none" stroke-linecap="square" stroke-miterlimit="10" width="420" height="394" xmlns:xlink="http://www.w3.org/1999/xlink" xmlns="http://www.w3.org/2000/svg"><path fill="#ffffff" d="M0 0L420.0 0L420.0 394.0L0 394.0L0 0Z" fill-rule="nonzero"/><path fill="#6fa8dc" d="M184.88728 21.637302C193.19603 20.347683 201.59177 19.7 210.0 19.7L210.0 183.43333Z" fill-rule="nonzero"/><path fill="#fcd86c" d="M140.17612 35.33462C154.34772 28.653152 169.40497 24.040346 184.88728 21.637302L210.0 183.43333Z" fill-rule="nonzero"/><path fill="#4ab31c" d="M170.29878 342.2805C103.15124 325.49808 53.809326 268.3069 47.04946 199.42477C40.289593 130.54265 77.57213 64.85043 140.17612 35.33462L210.0 183.43333Z" fill-rule="nonzero"/><path fill="#ffa5a5" d="M210.0 19.7C273.29877 19.7 330.92737 56.185898 358.00104 113.40262C385.07468 170.61934 376.74295 238.31615 336.60364 287.2607C296.46432 336.20526 231.70857 357.62885 170.29878 342.2805L210.0 183.43333Z" fill-rule="nonzero"/><path fill="#000000" d="M313.11346 200.88924L314.41034 200.77986Q314.55096 201.71736 315.0666 202.20174Q315.59784 202.67049 316.3322 202.67049Q317.22284 202.67049 317.8322 201.99861Q318.4572 201.32674 318.4572 200.23299Q318.4572 199.17049 317.86346 198.56111Q317.2697 197.95174 316.3166 197.95174Q315.72284 197.95174 315.23846 198.23299Q314.7697 198.49861 314.48846 198.92049L313.3322 198.77986L314.30096 193.62361L319.28534 193.62361L319.28534 194.81111L315.28534 194.81111L314.7541 197.49861Q315.66034 196.87361 316.6447 196.87361Q317.9572 196.87361 318.84784 197.77986Q319.7541 198.68611 319.7541 200.12361Q319.7541 201.48299 318.97284 202.46736Q318.0041 203.68611 316.3322 203.68611Q314.97284 203.68611 314.09784 202.92049Q313.23846 202.15486 313.11346 200.88924ZM321.1291 200.87361L322.34784 200.70174Q322.5666 201.74861 323.0666 202.21736Q323.5822 202.67049 324.3166 202.67049Q325.1916 202.67049 325.78534 202.07674Q326.3791 201.46736 326.3791 200.57674Q326.3791 199.73299 325.8166 199.18611Q325.2697 198.63924 324.42596 198.63924Q324.0666 198.63924 323.55096 198.76424L323.6916 197.68611Q323.8166 197.70174 323.8791 197.70174Q324.67596 197.70174 325.30096 197.29549Q325.92596 196.88924 325.92596 196.02986Q325.92596 195.35799 325.47284 194.92049Q325.0197 194.46736 324.28534 194.46736Q323.5666 194.46736 323.0822 194.92049Q322.61346 195.35799 322.47284 196.26424L321.2541 196.04549Q321.47284 194.81111 322.2697 194.13924Q323.0666 193.45174 324.2541 193.45174Q325.0822 193.45174 325.7697 193.81111Q326.4572 194.15486 326.8166 194.76424Q327.1916 195.37361 327.1916 196.06111Q327.1916 196.70174 326.84784 197.23299Q326.5041 197.76424 325.8166 198.09236Q326.7072 198.29549 327.1916 198.93611Q327.6916 199.57674 327.6916 200.56111Q327.6916 201.87361 326.72284 202.77986Q325.7697 203.68611 324.3166 203.68611Q322.98846 203.68611 322.11346 202.90486Q321.2541 202.12361 321.1291 200.87361ZM329.78534 203.51424L329.78534 202.10799L331.17596 202.10799L331.17596 203.51424Q331.17596 204.27986 330.8947 204.74861Q330.6291 205.23299 330.03534 205.49861L329.6916 204.96736Q330.0822 204.79549 330.2697 204.46736Q330.4572 204.13924 330.47284 203.51424L329.78534 203.51424ZM333.30096 201.20174L334.48846 201.09236Q334.6291 201.92049 335.05096 202.29549Q335.48846 202.67049 336.1447 202.67049Q336.7072 202.67049 337.1291 202.42049Q337.5666 202.15486 337.8322 201.71736Q338.11346 201.27986 338.30096 200.54549Q338.48846 199.81111 338.48846 199.04549Q338.48846 198.96736 338.47284 198.79549Q338.11346 199.38924 337.47284 199.76424Q336.8322 200.12361 336.0822 200.12361Q334.8322 200.12361 333.97284 199.21736Q333.11346 198.31111 333.11346 196.84236Q333.11346 195.31111 334.0041 194.38924Q334.91034 193.45174 336.2697 193.45174Q337.23846 193.45174 338.05096 193.98299Q338.86346 194.49861 339.28534 195.48299Q339.7072 196.45174 339.7072 198.29549Q339.7072 200.21736 339.28534 201.35799Q338.8791 202.49861 338.05096 203.09236Q337.22284 203.68611 336.11346 203.68611Q334.9416 203.68611 334.1916 203.02986Q333.4572 202.37361 333.30096 201.20174ZM338.3322 196.77986Q338.3322 195.71736 337.7697 195.09236Q337.2072 194.46736 336.42596 194.46736Q335.59784 194.46736 334.98846 195.13924Q334.3791 195.81111 334.3791 196.87361Q334.3791 197.82674 334.9572 198.43611Q335.53534 199.02986 336.3791 199.02986Q337.23846 199.02986 337.78534 198.43611Q338.3322 197.82674 338.3322 196.77986ZM341.34784 195.90486Q341.34784 194.82674 341.8791 194.07674Q342.42596 193.32674 343.4572 193.32674Q344.3947 193.32674 345.0041 193.99861Q345.6291 194.67049 345.6291 195.96736Q345.6291 197.24861 345.0041 197.93611Q344.3791 198.62361 343.47284 198.62361Q342.5666 198.62361 341.9572 197.95174Q341.34784 197.26424 341.34784 195.90486ZM343.48846 194.17049Q343.03534 194.17049 342.72284 194.57674Q342.42596 194.96736 342.42596 196.01424Q342.42596 196.98299 342.72284 197.37361Q343.03534 197.76424 343.48846 197.76424Q343.9572 197.76424 344.2541 197.37361Q344.5666 196.98299 344.5666 195.92049Q344.5666 194.95174 344.2541 194.56111Q343.9416 194.17049 343.48846 194.17049ZM343.48846 203.88924L348.97284 193.32674L349.97284 193.32674L344.5197 203.88924L343.48846 203.88924ZM347.8322 201.15486Q347.8322 200.07674 348.36346 199.34236Q348.91034 198.59236 349.9416 198.59236Q350.8791 198.59236 351.5041 199.26424Q352.1291 199.93611 352.1291 201.23299Q352.1291 202.51424 351.5041 203.20174Q350.8791 203.88924 349.9416 203.88924Q349.03534 203.88924 348.42596 203.21736Q347.8322 202.52986 347.8322 201.15486ZM349.97284 199.43611Q349.5041 199.43611 349.2072 199.84236Q348.91034 200.23299 348.91034 201.27986Q348.91034 202.24861 349.2072 202.63924Q349.5197 203.02986 349.97284 203.02986Q350.4416 203.02986 350.73846 202.63924Q351.05096 202.24861 351.05096 201.18611Q351.05096 200.21736 350.73846 199.82674Q350.4416 199.43611 349.97284 199.43611Z" fill-rule="nonzero"/><path fill="#000000" d="M67.34672 197.88777L68.56547 197.7159Q68.78422 198.76277 69.28422 199.23152Q69.79984 199.68465 70.53422 199.68465Q71.40922 199.68465 72.00297 199.0909Q72.59672 198.48152 72.59672 197.5909Q72.59672 196.74715 72.03422 196.20027Q71.48734 195.6534 70.64359 195.6534Q70.28422 195.6534 69.76859 195.7784L69.90922 194.70027Q70.03422 194.7159 70.09672 194.7159Q70.89359 194.7159 71.51859 194.30965Q72.14359 193.9034 72.14359 193.04402Q72.14359 192.37215 71.69047 191.93465Q71.23734 191.48152 70.50297 191.48152Q69.78422 191.48152 69.29984 191.93465Q68.83109 192.37215 68.69047 193.2784L67.47172 193.05965Q67.69047 191.82527 68.48734 191.1534Q69.28422 190.4659 70.47172 190.4659Q71.29984 190.4659 71.98734 190.82527Q72.67484 191.16902 73.03422 191.7784Q73.40922 192.38777 73.40922 193.07527Q73.40922 193.7159 73.06547 194.24715Q72.72172 194.7784 72.03422 195.10652Q72.92484 195.30965 73.40922 195.95027Q73.90922 196.5909 73.90922 197.57527Q73.90922 198.88777 72.94047 199.79402Q71.98734 200.70027 70.53422 200.70027Q69.20609 200.70027 68.33109 199.91902Q67.47172 199.13777 67.34672 197.88777ZM75.51859 198.2159L76.70609 198.10652Q76.84672 198.93465 77.26859 199.30965Q77.70609 199.68465 78.36234 199.68465Q78.92484 199.68465 79.34672 199.43465Q79.78422 199.16902 80.04984 198.73152Q80.33109 198.29402 80.51859 197.55965Q80.70609 196.82527 80.70609 196.05965Q80.70609 195.98152 80.69047 195.80965Q80.33109 196.4034 79.69047 196.7784Q79.04984 197.13777 78.29984 197.13777Q77.04984 197.13777 76.19047 196.23152Q75.33109 195.32527 75.33109 193.85652Q75.33109 192.32527 76.22172 191.4034Q77.12797 190.4659 78.48734 190.4659Q79.45609 190.4659 80.26859 190.99715Q81.08109 191.51277 81.50297 192.49715Q81.92484 193.4659 81.92484 195.30965Q81.92484 197.23152 81.50297 198.37215Q81.09672 199.51277 80.26859 200.10652Q79.44047 200.70027 78.33109 200.70027Q77.15922 200.70027 76.40922 200.04402Q75.67484 199.38777 75.51859 198.2159ZM80.54984 193.79402Q80.54984 192.73152 79.98734 192.10652Q79.42484 191.48152 78.64359 191.48152Q77.81547 191.48152 77.20609 192.1534Q76.59672 192.82527 76.59672 193.88777Q76.59672 194.8409 77.17484 195.45027Q77.75297 196.04402 78.59672 196.04402Q79.45609 196.04402 80.00297 195.45027Q80.54984 194.8409 80.54984 193.79402ZM84.00297 200.5284L84.00297 199.12215L85.39359 199.12215L85.39359 200.5284Q85.39359 201.29402 85.11234 201.76277Q84.84672 202.24715 84.25297 202.51277L83.90922 201.98152Q84.29984 201.80965 84.48734 201.48152Q84.67484 201.1534 84.69047 200.5284L84.00297 200.5284ZM91.97172 200.5284L90.73734 200.5284L90.73734 192.68465Q90.29984 193.10652 89.56547 193.54402Q88.84672 193.9659 88.28422 194.16902L88.28422 192.98152Q89.31547 192.49715 90.08109 191.80965Q90.86234 191.12215 91.17484 190.4659L91.97172 190.4659L91.97172 200.5284ZM95.56547 192.91902Q95.56547 191.8409 96.09672 191.0909Q96.64359 190.3409 97.67484 190.3409Q98.61234 190.3409 99.22172 191.01277Q99.84672 191.68465 99.84672 192.98152Q99.84672 194.26277 99.22172 194.95027Q98.59672 195.63777 97.69047 195.63777Q96.78422 195.63777 96.17484 194.9659Q95.56547 194.2784 95.56547 192.91902ZM97.70609 191.18465Q97.25297 191.18465 96.94047 191.5909Q96.64359 191.98152 96.64359 193.0284Q96.64359 193.99715 96.94047 194.38777Q97.25297 194.7784 97.70609 194.7784Q98.17484 194.7784 98.47172 194.38777Q98.78422 193.99715 98.78422 192.93465Q98.78422 191.9659 98.47172 191.57527Q98.15922 191.18465 97.70609 191.18465ZM97.70609 200.9034L103.19047 190.3409L104.19047 190.3409L98.73734 200.9034L97.70609 200.9034ZM102.04984 198.16902Q102.04984 197.0909 102.58109 196.35652Q103.12797 195.60652 104.15922 195.60652Q105.09672 195.60652 105.72172 196.2784Q106.34672 196.95027 106.34672 198.24715Q106.34672 199.5284 105.72172 200.2159Q105.09672 200.9034 104.15922 200.9034Q103.25297 200.9034 102.64359 200.23152Q102.04984 199.54402 102.04984 198.16902ZM104.19047 196.45027Q103.72172 196.45027 103.42484 196.85652Q103.12797 197.24715 103.12797 198.29402Q103.12797 199.26277 103.42484 199.6534Q103.73734 200.04402 104.19047 200.04402Q104.65922 200.04402 104.95609 199.6534Q105.26859 199.26277 105.26859 198.20027Q105.26859 197.23152 104.95609 196.8409Q104.65922 196.45027 104.19047 196.45027Z" fill-rule="nonzero"/><path fill="#000000" d="M160.68517 64.89508L160.68517 62.48883L156.32579 62.48883L156.32579 61.36383L160.90392 54.879456L161.90392 54.879456L161.90392 61.36383L163.26329 61.36383L163.26329 62.48883L161.90392 62.48883L161.90392 64.89508L160.68517 64.89508ZM160.68517 61.36383L160.68517 56.848206L157.54454 61.36383L160.68517 61.36383ZM165.40392 64.89508L165.40392 63.48883L166.79454 63.48883L166.79454 64.89508Q166.79454 65.660706 166.51329 66.129456Q166.24767 66.61383 165.65392 66.879456L165.31017 66.348206Q165.70079 66.17633 165.88829 65.848206Q166.07579 65.52008 166.09142 64.89508L165.40392 64.89508ZM175.12267 57.33258L173.90392 57.42633Q173.73204 56.691956 173.43517 56.36383Q172.93517 55.848206 172.20079 55.848206Q171.60704 55.848206 171.16954 56.17633Q170.59142 56.598206 170.24767 57.410706Q169.91954 58.223206 169.90392 59.723206Q170.34142 59.05133 170.98204 58.723206Q171.63829 58.39508 172.34142 58.39508Q173.57579 58.39508 174.43517 59.30133Q175.29454 60.20758 175.29454 61.64508Q175.29454 62.58258 174.88829 63.39508Q174.48204 64.20758 173.76329 64.64508Q173.06017 65.066956 172.15392 65.066956Q170.62267 65.066956 169.65392 63.941956Q168.68517 62.80133 168.68517 60.20758Q168.68517 57.30133 169.74767 55.973206Q170.68517 54.83258 172.27892 54.83258Q173.46642 54.83258 174.21642 55.504456Q174.96642 56.160706 175.12267 57.33258ZM170.09142 61.64508Q170.09142 62.285706 170.35704 62.86383Q170.63829 63.441956 171.12267 63.754456Q171.60704 64.05133 172.13829 64.05133Q172.91954 64.05133 173.48204 63.42633Q174.04454 62.80133 174.04454 61.723206Q174.04454 60.67633 173.48204 60.08258Q172.93517 59.473206 172.09142 59.473206Q171.26329 59.473206 170.66954 60.08258Q170.09142 60.67633 170.09142 61.64508ZM176.96642 57.285706Q176.96642 56.20758 177.49767 55.45758Q178.04454 54.70758 179.07579 54.70758Q180.01329 54.70758 180.62267 55.379456Q181.24767 56.05133 181.24767 57.348206Q181.24767 58.629456 180.62267 59.316956Q179.99767 60.004456 179.09142 60.004456Q178.18517 60.004456 177.57579 59.33258Q176.96642 58.64508 176.96642 57.285706ZM179.10704 55.55133Q178.65392 55.55133 178.34142 55.95758Q178.04454 56.348206 178.04454 57.39508Q178.04454 58.36383 178.34142 58.754456Q178.65392 59.14508 179.10704 59.14508Q179.57579 59.14508 179.87267 58.754456Q180.18517 58.36383 180.18517 57.30133Q180.18517 56.33258 179.87267 55.941956Q179.56017 55.55133 179.10704 55.55133ZM179.10704 65.27008L184.59142 54.70758L185.59142 54.70758L180.13829 65.27008L179.10704 65.27008ZM183.45079 62.535706Q183.45079 61.45758 183.98204 60.723206Q184.52892 59.973206 185.56017 59.973206Q186.49767 59.973206 187.12267 60.64508Q187.74767 61.316956 187.74767 62.61383Q187.74767 63.89508 187.12267 64.58258Q186.49767 65.27008 185.56017 65.27008Q184.65392 65.27008 184.04454 64.598206Q183.45079 63.910706 183.45079 62.535706ZM185.59142 60.816956Q185.12267 60.816956 184.82579 61.223206Q184.52892 61.61383 184.52892 62.660706Q184.52892 63.629456 184.82579 64.02008Q185.13829 64.410706 185.59142 64.410706Q186.06017 64.410706 186.35704 64.02008Q186.66954 63.629456 186.66954 62.566956Q186.66954 61.598206 186.35704 61.20758Q186.06017 60.816956 185.59142 60.816956Z" fill-rule="nonzero"/><path fill="#ffa5a5" d="M38.0 367.3C38.0 370.6137 35.31371 373.3 32.0 373.3C28.68629 373.3 26.0 370.6137 26.0 367.3C26.0 363.9863 28.68629 361.3 32.0 361.3C35.31371 361.3 38.0 363.9863 38.0 367.3Z" fill-rule="nonzero"/><path fill="#000000" d="M46.921875 371.3L46.921875 362.70624L50.171875 362.70624Q51.015625 362.70624 51.46875 362.78436Q52.109375 362.89374 52.53125 363.1906Q52.96875 363.4875 53.21875 364.01874Q53.484375 364.55 53.484375 365.1906Q53.484375 366.28436 52.78125 367.05Q52.09375 367.8 50.265625 367.8L48.0625 367.8L48.0625 371.3L46.921875 371.3ZM48.0625 366.8L50.28125 366.8Q51.390625 366.8 51.84375 366.39374Q52.3125 365.97186 52.3125 365.22186Q52.3125 364.6906 52.03125 364.3156Q51.765625 363.925 51.328125 363.8Q51.03125 363.72186 50.265625 363.72186L48.0625 363.72186L48.0625 366.8ZM54.75 373.6906L54.625 372.70624Q54.96875 372.8 55.234375 372.8Q55.578125 372.8 55.78125 372.675Q56.0 372.5656 56.140625 372.3625Q56.234375 372.1906 56.46875 371.5656Q56.484375 371.4875 56.5625 371.3156L54.1875 365.08124L55.328125 365.08124L56.625 368.675Q56.875 369.3625 57.078125 370.1281Q57.265625 369.39374 57.515625 368.70624L58.84375 365.08124L59.890625 365.08124L57.53125 371.40936Q57.140625 372.425 56.9375 372.8156Q56.65625 373.34686 56.28125 373.58124Q55.921875 373.83124 55.421875 373.83124Q55.125 373.83124 54.75 373.6906ZM63.859375 369.01874L64.890625 369.15936Q64.71875 370.22186 64.015625 370.83124Q63.3125 371.4406 62.296875 371.4406Q61.015625 371.4406 60.234375 370.6125Q59.46875 369.76874 59.46875 368.20624Q59.46875 367.20624 59.796875 366.45624Q60.140625 365.6906 60.8125 365.3156Q61.5 364.9406 62.3125 364.9406Q63.3125 364.9406 63.953125 365.45624Q64.609375 365.95624 64.796875 366.90936L63.765625 367.0656Q63.625 366.4406 63.25 366.1281Q62.875 365.8 62.34375 365.8Q61.546875 365.8 61.046875 366.3781Q60.546875 366.9406 60.546875 368.175Q60.546875 369.4406 61.03125 370.0031Q61.515625 370.5656 62.28125 370.5656Q62.90625 370.5656 63.3125 370.1906Q63.734375 369.8156 63.859375 369.01874ZM69.859375 369.01874L70.890625 369.15936Q70.71875 370.22186 70.015625 370.83124Q69.3125 371.4406 68.296875 371.4406Q67.015625 371.4406 66.234375 370.6125Q65.46875 369.76874 65.46875 368.20624Q65.46875 367.20624 65.796875 366.45624Q66.140625 365.6906 66.8125 365.3156Q67.5 364.9406 68.3125 364.9406Q69.3125 364.9406 69.953125 365.45624Q70.609375 365.95624 70.796875 366.90936L69.765625 367.0656Q69.625 366.4406 69.25 366.1281Q68.875 365.8 68.34375 365.8Q67.546875 365.8 67.046875 366.3781Q66.546875 366.9406 66.546875 368.175Q66.546875 369.4406 67.03125 370.0031Q67.515625 370.5656 68.28125 370.5656Q68.90625 370.5656 69.3125 370.1906Q69.734375 369.8156 69.859375 369.01874ZM71.78125 365.08124L72.84375 365.08124L72.84375 367.76874Q73.34375 367.76874 73.546875 367.58124Q73.75 367.3781 74.140625 366.4406Q74.453125 365.70624 74.640625 365.47186Q74.84375 365.2375 75.09375 365.15936Q75.34375 365.08124 75.90625 365.08124L76.109375 365.08124L76.109375 365.95624L75.8125 365.9406Q75.40625 365.9406 75.28125 366.0656Q75.15625 366.1906 74.90625 366.83124Q74.671875 367.4406 74.46875 367.675Q74.265625 367.90936 73.859375 368.1125Q74.53125 368.28436 75.1875 369.3781L76.34375 371.3L75.1875 371.3L74.0625 369.3781Q73.71875 368.78436 73.453125 368.6125Q73.203125 368.425 72.84375 368.425L72.84375 371.3L71.78125 371.3L71.78125 365.08124ZM77.796875 365.08124L78.84375 365.08124L78.84375 369.8156L81.765625 365.08124L82.90625 365.08124L82.90625 371.3L81.859375 371.3L81.859375 366.58124L78.921875 371.3L77.796875 371.3L77.796875 365.08124ZM84.796875 365.08124L85.84375 365.08124L85.84375 369.8156L88.765625 365.08124L89.90625 365.08124L89.90625 371.3L88.859375 371.3L88.859375 366.58124L85.921875 371.3L84.796875 371.3L84.796875 365.08124ZM88.453125 362.72186L89.171875 362.72186Q89.078125 363.45624 88.625 363.84686Q88.1875 364.2375 87.4375 364.2375Q86.6875 364.2375 86.234375 363.84686Q85.796875 363.45624 85.703125 362.72186L86.421875 362.72186Q86.515625 363.1125 86.75 363.3156Q87.0 363.51874 87.40625 363.51874Q87.875 363.51874 88.125 363.33124Q88.375 363.1281 88.453125 362.72186Z" fill-rule="nonzero"/><path fill="#4ab31c" d="M119.0 367.3C119.0 370.6137 116.313705 373.3 113.0 373.3C109.686295 373.3 107.0 370.6137 107.0 367.3C107.0 363.9863 109.686295 361.3 113.0 361.3C116.313705 361.3 119.0 363.9863 119.0 367.3Z" fill-rule="nonzero"/><path fill="#000000" d="M127.0625 362.70624L128.20312 362.70624L131.01562 367.97186L133.45312 362.70624L134.59375 362.70624L131.35938 369.39374Q130.76562 370.64374 130.375 371.03436Q129.98438 371.425 129.26562 371.425Q128.82812 371.425 128.1875 371.20624L128.1875 370.2375Q128.64062 370.5031 129.15625 370.5031Q129.57812 370.5031 129.875 370.2375Q130.17188 369.97186 130.54688 369.01874L127.0625 362.70624ZM137.17188 368.4875L137.17188 367.65936Q137.84375 367.65936 138.07812 367.6125Q138.32812 367.5656 138.53125 367.33124Q138.75 367.09686 138.75 366.7375Q138.75 366.3156 138.46875 366.0656Q138.1875 365.8 137.73438 365.8Q136.84375 365.8 136.48438 366.84686L135.48438 366.6906Q135.95312 364.9406 137.75 364.9406Q138.75 364.9406 139.3125 365.4875Q139.875 366.01874 139.875 366.78436Q139.875 367.55 139.14062 367.9875Q139.60938 368.2531 139.84375 368.64374Q140.07812 369.01874 140.07812 369.5656Q140.07812 370.39374 139.46875 370.925Q138.85938 371.4406 137.76562 371.4406Q135.64062 371.4406 135.29688 369.55L136.28125 369.33124Q136.42188 369.9406 136.82812 370.26874Q137.25 370.59686 137.78125 370.59686Q138.3125 370.59686 138.65625 370.3Q139.01562 369.9875 139.01562 369.51874Q139.01562 369.15936 138.79688 368.89374Q138.57812 368.6125 138.32812 368.55Q138.07812 368.4875 137.40625 368.4875Q137.35938 368.4875 137.17188 368.4875ZM146.34375 362.5031L147.28125 362.51874Q147.21875 363.14374 147.0 363.39374Q146.79688 363.6281 146.45312 363.70624Q146.10938 363.76874 145.125 363.76874Q143.82812 363.76874 143.34375 364.03436Q142.875 364.28436 142.65625 364.84686Q142.45312 365.39374 142.4375 366.2531Q142.82812 365.675 143.35938 365.3781Q143.90625 365.08124 144.5625 365.08124Q145.79688 365.08124 146.59375 365.925Q147.40625 366.7531 147.40625 368.1906Q147.40625 369.28436 147.0 369.9875Q146.59375 370.675 146.03125 371.0656Q145.48438 371.4406 144.53125 371.4406Q143.42188 371.4406 142.79688 370.9406Q142.1875 370.425 141.85938 369.64374Q141.53125 368.84686 141.53125 366.8781Q141.53125 364.40936 142.35938 363.5656Q143.20312 362.70624 144.9375 362.70624Q146.01562 362.70624 146.15625 362.675Q146.3125 362.6281 146.34375 362.5031ZM146.29688 368.15936Q146.29688 367.1906 145.82812 366.58124Q145.375 365.95624 144.54688 365.95624Q143.67188 365.95624 143.1875 366.6125Q142.71875 367.26874 142.71875 368.3625Q142.71875 369.4406 143.23438 370.01874Q143.76562 370.59686 144.53125 370.59686Q145.3125 370.59686 145.79688 369.925Q146.29688 369.2531 146.29688 368.15936ZM153.04688 369.3L154.14062 369.425Q153.89062 370.3781 153.1875 370.90936Q152.48438 371.4406 151.40625 371.4406Q150.04688 371.4406 149.23438 370.59686Q148.4375 369.7531 148.4375 368.2375Q148.4375 366.675 149.25 365.8156Q150.0625 364.9406 151.34375 364.9406Q152.59375 364.9406 153.375 365.78436Q154.17188 366.6281 154.17188 368.175Q154.17188 368.26874 154.17188 368.45624L149.53125 368.45624Q149.59375 369.4875 150.10938 370.03436Q150.625 370.5656 151.40625 370.5656Q151.98438 370.5656 152.39062 370.26874Q152.8125 369.95624 153.04688 369.3ZM149.59375 367.59686L153.0625 367.59686Q153.0 366.8 152.67188 366.40936Q152.15625 365.8 151.35938 365.8Q150.625 365.8 150.125 366.28436Q149.64062 366.76874 149.59375 367.59686ZM155.78125 365.08124L156.84375 365.08124L156.84375 367.76874Q157.34375 367.76874 157.54688 367.58124Q157.75 367.3781 158.14062 366.4406Q158.45312 365.70624 158.64062 365.47186Q158.84375 365.2375 159.09375 365.15936Q159.34375 365.08124 159.90625 365.08124L160.10938 365.08124L160.10938 365.95624L159.8125 365.9406Q159.40625 365.9406 159.28125 366.0656Q159.15625 366.1906 158.90625 366.83124Q158.67188 367.4406 158.46875 367.675Q158.26562 367.90936 157.85938 368.1125Q158.53125 368.28436 159.1875 369.3781L160.34375 371.3L159.1875 371.3L158.0625 369.3781Q157.71875 368.78436 157.45312 368.6125Q157.20312 368.425 156.84375 368.425L156.84375 371.3L155.78125 371.3L155.78125 365.08124ZM165.85938 369.01874L166.89062 369.15936Q166.71875 370.22186 166.01562 370.83124Q165.3125 371.4406 164.29688 371.4406Q163.01562 371.4406 162.23438 370.6125Q161.46875 369.76874 161.46875 368.20624Q161.46875 367.20624 161.79688 366.45624Q162.14062 365.6906 162.8125 365.3156Q163.5 364.9406 164.3125 364.9406Q165.3125 364.9406 165.95312 365.45624Q166.60938 365.95624 166.79688 366.90936L165.76562 367.0656Q165.625 366.4406 165.25 366.1281Q164.875 365.8 164.34375 365.8Q163.54688 365.8 163.04688 366.3781Q162.54688 366.9406 162.54688 368.175Q162.54688 369.4406 163.03125 370.0031Q163.51562 370.5656 164.28125 370.5656Q164.90625 370.5656 165.3125 370.1906Q165.73438 369.8156 165.85938 369.01874ZM167.78125 365.08124L168.84375 365.08124L168.84375 367.76874Q169.34375 367.76874 169.54688 367.58124Q169.75 367.3781 170.14062 366.4406Q170.45312 365.70624 170.64062 365.47186Q170.84375 365.2375 171.09375 365.15936Q171.34375 365.08124 171.90625 365.08124L172.10938 365.08124L172.10938 365.95624L171.8125 365.9406Q171.40625 365.9406 171.28125 366.0656Q171.15625 366.1906 170.90625 366.83124Q170.67188 367.4406 170.46875 367.675Q170.26562 367.90936 169.85938 368.1125Q170.53125 368.28436 171.1875 369.3781L172.34375 371.3L171.1875 371.3L170.0625 369.3781Q169.71875 368.78436 169.45312 368.6125Q169.20312 368.425 168.84375 368.425L168.84375 371.3L167.78125 371.3L167.78125 365.08124ZM173.79688 365.08124L174.84375 365.08124L174.84375 369.8156L177.76562 365.08124L178.90625 365.08124L178.90625 371.3L177.85938 371.3L177.85938 366.58124L174.92188 371.3L173.79688 371.3L173.79688 365.08124ZM180.79688 365.08124L181.84375 365.08124L181.84375 369.8156L184.76562 365.08124L185.90625 365.08124L185.90625 371.3L184.85938 371.3L184.85938 366.58124L181.92188 371.3L180.79688 371.3L180.79688 365.08124ZM184.45312 362.72186L185.17188 362.72186Q185.07812 363.45624 184.625 363.84686Q184.1875 364.2375 183.4375 364.2375Q182.6875 364.2375 182.23438 363.84686Q181.79688 363.45624 181.70312 362.72186L182.42188 362.72186Q182.51562 363.1125 182.75 363.3156Q183.0 363.51874 183.40625 363.51874Q183.875 363.51874 184.125 363.33124Q184.375 363.1281 184.45312 362.72186Z" fill-rule="nonzero"/><path fill="#fcd86c" d="M215.0 367.3C215.0 370.6137 212.3137 373.3 209.0 373.3C205.6863 373.3 203.0 370.6137 203.0 367.3C203.0 363.9863 205.6863 361.3 209.0 361.3C212.3137 361.3 215.0 363.9863 215.0 367.3Z" fill-rule="nonzero"/><path fill="#000000" d="M223.9375 362.70624L225.07812 362.70624L225.07812 366.47186Q225.85938 366.47186 226.17188 366.175Q226.5 365.8625 226.98438 364.72186Q227.34375 363.8781 227.57812 363.53436Q227.8125 363.175 228.23438 362.9406Q228.65625 362.70624 229.17188 362.70624Q229.82812 362.70624 229.875 362.72186L229.875 363.70624Q229.8125 363.70624 229.64062 363.6906Q229.45312 363.6906 229.40625 363.6906Q228.85938 363.6906 228.60938 363.95624Q228.32812 364.22186 227.98438 365.08124Q227.54688 366.15936 227.25 366.45624Q226.95312 366.7375 226.54688 366.90936Q227.375 367.1281 228.1875 368.4406L229.95312 371.3L228.53125 371.3L227.10938 368.97186Q226.51562 368.0031 226.10938 367.64374Q225.71875 367.28436 225.07812 367.28436L225.07812 371.3L223.9375 371.3L223.9375 362.70624ZM236.71875 365.08124L237.76562 365.08124L237.76562 371.3L236.71875 371.3L236.71875 365.08124ZM230.8125 365.08124L231.875 365.08124L231.875 367.5031L233.20312 367.5031Q234.51562 367.5031 235.21875 368.01874Q235.92188 368.51874 235.92188 369.40936Q235.92188 370.1906 235.32812 370.7531Q234.75 371.3 233.45312 371.3L230.8125 371.3L230.8125 365.08124ZM231.875 370.425L232.98438 370.425Q233.98438 370.425 234.40625 370.1906Q234.82812 369.9406 234.82812 369.425Q234.82812 369.01874 234.51562 368.70624Q234.20312 368.3781 233.125 368.3781L231.875 368.3781L231.875 370.425ZM239.79688 373.6906L239.79688 365.08124L240.75 365.08124L240.75 365.8781Q241.09375 365.40936 241.51562 365.175Q241.95312 364.9406 242.5625 364.9406Q243.35938 364.9406 243.96875 365.34686Q244.57812 365.7531 244.875 366.5031Q245.1875 367.2531 245.1875 368.14374Q245.1875 369.09686 244.84375 369.8625Q244.51562 370.6281 243.85938 371.03436Q243.20312 371.4406 242.48438 371.4406Q241.95312 371.4406 241.53125 371.22186Q241.10938 370.9875 240.84375 370.65936L240.84375 373.6906L239.79688 373.6906ZM240.75 368.22186Q240.75 369.425 241.23438 370.0031Q241.71875 370.5656 242.40625 370.5656Q243.10938 370.5656 243.60938 369.97186Q244.10938 369.3781 244.10938 368.1281Q244.10938 366.9406 243.625 366.3625Q243.14062 365.76874 242.45312 365.76874Q241.78125 365.76874 241.26562 366.39374Q240.75 367.01874 240.75 368.22186ZM246.79688 365.08124L250.375 365.08124L250.375 365.95624L247.85938 365.95624L247.85938 371.3L246.79688 371.3L246.79688 365.08124ZM250.79688 365.08124L251.84375 365.08124L251.84375 369.8156L254.76562 365.08124L255.90625 365.08124L255.90625 371.3L254.85938 371.3L254.85938 366.58124L251.92188 371.3L250.79688 371.3L250.79688 365.08124ZM259.17188 368.4875L259.17188 367.65936Q259.84375 367.65936 260.07812 367.6125Q260.32812 367.5656 260.53125 367.33124Q260.75 367.09686 260.75 366.7375Q260.75 366.3156 260.46875 366.0656Q260.1875 365.8 259.73438 365.8Q258.84375 365.8 258.48438 366.84686L257.48438 366.6906Q257.95312 364.9406 259.75 364.9406Q260.75 364.9406 261.3125 365.4875Q261.875 366.01874 261.875 366.78436Q261.875 367.55 261.14062 367.9875Q261.60938 368.2531 261.84375 368.64374Q262.07812 369.01874 262.07812 369.5656Q262.07812 370.39374 261.46875 370.925Q260.85938 371.4406 259.76562 371.4406Q257.64062 371.4406 257.29688 369.55L258.28125 369.33124Q258.42188 369.9406 258.82812 370.26874Q259.25 370.59686 259.78125 370.59686Q260.3125 370.59686 260.65625 370.3Q261.01562 369.9875 261.01562 369.51874Q261.01562 369.15936 260.79688 368.89374Q260.57812 368.6125 260.32812 368.55Q260.07812 368.4875 259.40625 368.4875Q259.35938 368.4875 259.17188 368.4875ZM267.85938 369.01874L268.89062 369.15936Q268.71875 370.22186 268.01562 370.83124Q267.3125 371.4406 266.29688 371.4406Q265.01562 371.4406 264.23438 370.6125Q263.46875 369.76874 263.46875 368.20624Q263.46875 367.20624 263.79688 366.45624Q264.14062 365.6906 264.8125 365.3156Q265.5 364.9406 266.3125 364.9406Q267.3125 364.9406 267.95312 365.45624Q268.60938 365.95624 268.79688 366.90936L267.76562 367.0656Q267.625 366.4406 267.25 366.1281Q266.875 365.8 266.34375 365.8Q265.54688 365.8 265.04688 366.3781Q264.54688 366.9406 264.54688 368.175Q264.54688 369.4406 265.03125 370.0031Q265.51562 370.5656 266.28125 370.5656Q266.90625 370.5656 267.3125 370.1906Q267.73438 369.8156 267.85938 369.01874ZM269.78125 365.08124L270.84375 365.08124L270.84375 367.76874Q271.34375 367.76874 271.54688 367.58124Q271.75 367.3781 272.14062 366.4406Q272.45312 365.70624 272.64062 365.47186Q272.84375 365.2375 273.09375 365.15936Q273.34375 365.08124 273.90625 365.08124L274.10938 365.08124L274.10938 365.95624L273.8125 365.9406Q273.40625 365.9406 273.28125 366.0656Q273.15625 366.1906 272.90625 366.83124Q272.67188 367.4406 272.46875 367.675Q272.26562 367.90936 271.85938 368.1125Q272.53125 368.28436 273.1875 369.3781L274.34375 371.3L273.1875 371.3L272.0625 369.3781Q271.71875 368.78436 271.45312 368.6125Q271.20312 368.425 270.84375 368.425L270.84375 371.3L269.78125 371.3L269.78125 365.08124ZM275.79688 365.08124L276.84375 365.08124L276.84375 369.8156L279.76562 365.08124L280.90625 365.08124L280.90625 371.3L279.85938 371.3L279.85938 366.58124L276.92188 371.3L275.79688 371.3L275.79688 365.08124ZM282.79688 365.08124L283.84375 365.08124L283.84375 369.8156L286.76562 365.08124L287.90625 365.08124L287.90625 371.3L286.85938 371.3L286.85938 366.58124L283.92188 371.3L282.79688 371.3L282.79688 365.08124ZM286.45312 362.72186L287.17188 362.72186Q287.07812 363.45624 286.625 363.84686Q286.1875 364.2375 285.4375 364.2375Q284.6875 364.2375 284.23438 363.84686Q283.79688 363.45624 283.70312 362.72186L284.42188 362.72186Q284.51562 363.1125 284.75 363.3156Q285.0 363.51874 285.40625 363.51874Q285.875 363.51874 286.125 363.33124Q286.375 363.1281 286.45312 362.72186Z" fill-rule="nonzero"/><path fill="#6fa8dc" d="M317.0 367.3C317.0 370.6137 314.31372 373.3 311.0 373.3C307.68628 373.3 305.0 370.6137 305.0 367.3C305.0 363.9863 307.68628 361.3 311.0 361.3C314.31372 361.3 317.0 363.9863 317.0 367.3Z" fill-rule="nonzero"/><path fill="#000000" d="M328.10938 371.3L328.10938 363.72186L325.28125 363.72186L325.28125 362.70624L332.09375 362.70624L332.09375 363.72186L329.25 363.72186L329.25 371.3L328.10938 371.3ZM336.85938 370.53436Q336.26562 371.03436 335.71875 371.2375Q335.1875 371.4406 334.5625 371.4406Q333.53125 371.4406 332.98438 370.9406Q332.4375 370.4406 332.4375 369.65936Q332.4375 369.20624 332.64062 368.83124Q332.84375 368.4406 333.1875 368.22186Q333.53125 367.9875 333.95312 367.8781Q334.25 367.78436 334.89062 367.70624Q336.15625 367.5656 336.76562 367.34686Q336.76562 367.1281 336.76562 367.08124Q336.76562 366.425 336.46875 366.15936Q336.0625 365.8156 335.26562 365.8156Q334.53125 365.8156 334.17188 366.08124Q333.8125 366.33124 333.64062 366.9875L332.60938 366.84686Q332.75 366.1906 333.07812 365.78436Q333.40625 365.3781 334.01562 365.15936Q334.625 364.9406 335.42188 364.9406Q336.21875 364.9406 336.71875 365.1281Q337.21875 365.3156 337.45312 365.59686Q337.6875 365.8781 337.78125 366.3156Q337.82812 366.58124 337.82812 367.28436L337.82812 368.6906Q337.82812 370.15936 337.89062 370.55Q337.96875 370.9406 338.17188 371.3L337.0625 371.3Q336.90625 370.97186 336.85938 370.53436ZM336.76562 368.175Q336.1875 368.40936 335.04688 368.58124Q334.39062 368.675 334.125 368.8Q333.85938 368.90936 333.70312 369.1281Q333.5625 369.34686 333.5625 369.6281Q333.5625 370.05 333.875 370.33124Q334.20312 370.6125 334.8125 370.6125Q335.42188 370.6125 335.89062 370.34686Q336.375 370.08124 336.59375 369.6125Q336.76562 369.2531 336.76562 368.5656L336.76562 368.175ZM340.625 365.08124L344.95312 365.08124L344.95312 370.425L345.64062 370.425L345.64062 373.0656L344.76562 373.0656L344.76562 371.3L339.875 371.3L339.875 373.0656L339.0 373.0656L339.0 370.425L339.5625 370.425Q340.67188 368.925 340.625 365.08124ZM341.5 365.95624Q341.39062 368.97186 340.5625 370.425L343.90625 370.425L343.90625 365.95624L341.5 365.95624ZM350.54688 365.08124L350.54688 367.76874Q351.0625 367.76874 351.26562 367.58124Q351.46875 367.3781 351.85938 366.4406Q352.23438 365.5656 352.51562 365.3156Q352.8125 365.08124 353.4375 365.08124L353.82812 365.08124L353.82812 365.95624L353.53125 365.9406Q353.10938 365.9406 353.0 366.0656Q352.875 366.1906 352.625 366.83124Q352.39062 367.4406 352.1875 367.675Q351.98438 367.90936 351.5625 368.1125Q352.25 368.28436 352.90625 369.3781L354.0625 371.3L352.90625 371.3L351.76562 369.3781Q351.42188 368.78436 351.15625 368.6125Q350.90625 368.425 350.54688 368.425L350.54688 371.3L349.46875 371.3L349.46875 368.425Q349.125 368.425 348.85938 368.6125Q348.60938 368.78436 348.26562 369.3781L347.125 371.3L345.96875 371.3L347.125 369.3781Q347.78125 368.28436 348.46875 368.1125Q348.0 367.89374 347.8125 367.64374Q347.625 367.3781 347.25 366.425Q347.125 366.09686 346.96875 366.01874Q346.82812 365.9406 346.51562 365.9406Q346.45312 365.9406 346.21875 365.95624L346.21875 365.08124L346.35938 365.08124Q346.96875 365.08124 347.21875 365.15936Q347.46875 365.22186 347.65625 365.45624Q347.85938 365.6906 348.17188 366.4406Q348.5625 367.3625 348.76562 367.5656Q348.96875 367.76874 349.46875 367.76874L349.46875 365.08124L350.54688 365.08124ZM355.79688 365.08124L356.84375 365.08124L356.84375 369.8156L359.76562 365.08124L360.90625 365.08124L360.90625 371.3L359.85938 371.3L359.85938 366.58124L356.92188 371.3L355.79688 371.3L355.79688 365.08124ZM362.78125 365.08124L363.84375 365.08124L363.84375 367.76874Q364.34375 367.76874 364.54688 367.58124Q364.75 367.3781 365.14062 366.4406Q365.45312 365.70624 365.64062 365.47186Q365.84375 365.2375 366.09375 365.15936Q366.34375 365.08124 366.90625 365.08124L367.10938 365.08124L367.10938 365.95624L366.8125 365.9406Q366.40625 365.9406 366.28125 366.0656Q366.15625 366.1906 365.90625 366.83124Q365.67188 367.4406 365.46875 367.675Q365.26562 367.90936 364.85938 368.1125Q365.53125 368.28436 366.1875 369.3781L367.34375 371.3L366.1875 371.3L365.0625 369.3781Q364.71875 368.78436 364.45312 368.6125Q364.20312 368.425 363.84375 368.425L363.84375 371.3L362.78125 371.3L362.78125 365.08124ZM372.85938 369.01874L373.89062 369.15936Q373.71875 370.22186 373.01562 370.83124Q372.3125 371.4406 371.29688 371.4406Q370.01562 371.4406 369.23438 370.6125Q368.46875 369.76874 368.46875 368.20624Q368.46875 367.20624 368.79688 366.45624Q369.14062 365.6906 369.8125 365.3156Q370.5 364.9406 371.3125 364.9406Q372.3125 364.9406 372.95312 365.45624Q373.60938 365.95624 373.79688 366.90936L372.76562 367.0656Q372.625 366.4406 372.25 366.1281Q371.875 365.8 371.34375 365.8Q370.54688 365.8 370.04688 366.3781Q369.54688 366.9406 369.54688 368.175Q369.54688 369.4406 370.03125 370.0031Q370.51562 370.5656 371.28125 370.5656Q371.90625 370.5656 372.3125 370.1906Q372.73438 369.8156 372.85938 369.01874ZM374.78125 365.08124L375.84375 365.08124L375.84375 367.76874Q376.34375 367.76874 376.54688 367.58124Q376.75 367.3781 377.14062 366.4406Q377.45312 365.70624 377.64062 365.47186Q377.84375 365.2375 378.09375 365.15936Q378.34375 365.08124 378.90625 365.08124L379.10938 365.08124L379.10938 365.95624L378.8125 365.9406Q378.40625 365.9406 378.28125 366.0656Q378.15625 366.1906 377.90625 366.83124Q377.67188 367.4406 377.46875 367.675Q377.26562 367.90936 376.85938 368.1125Q377.53125 368.28436 378.1875 369.3781L379.34375 371.3L378.1875 371.3L377.0625 369.3781Q376.71875 368.78436 376.45312 368.6125Q376.20312 368.425 375.84375 368.425L375.84375 371.3L374.78125 371.3L374.78125 365.08124ZM380.79688 365.08124L381.84375 365.08124L381.84375 369.8156L384.76562 365.08124L385.90625 365.08124L385.90625 371.3L384.85938 371.3L384.85938 366.58124L381.92188 371.3L380.79688 371.3L380.79688 365.08124ZM387.79688 365.08124L388.84375 365.08124L388.84375 369.8156L391.76562 365.08124L392.90625 365.08124L392.90625 371.3L391.85938 371.3L391.85938 366.58124L388.92188 371.3L387.79688 371.3L387.79688 365.08124ZM391.45312 362.72186L392.17188 362.72186Q392.07812 363.45624 391.625 363.84686Q391.1875 364.2375 390.4375 364.2375Q389.6875 364.2375 389.23438 363.84686Q388.79688 363.45624 388.70312 362.72186L389.42188 362.72186Q389.51562 363.1125 389.75 363.3156Q390.0 363.51874 390.40625 363.51874Q390.875 363.51874 391.125 363.33124Q391.375 363.1281 391.45312 362.72186Z" fill-rule="nonzero"/></svg>