<svg version="1.1" viewBox="0.0 0.0 420.0 394.0" fill="none" stroke="none" stroke-linecap="square" stroke-miterlimit="10" width="420" height="394" xmlns:xlink="http://www.w3.org/1999/xlink" xmlns="http://www.w3.org/2000/svg"><path fill="#ffffff" d="M0 0L420.0 0L420.0 394.0L0 394.0L0 0Z" fill-rule="nonzero"/><path fill="#46bdc6" d="M172.08385 24.417433C184.47914 21.284555 197.21492 19.7 210.0 19.7L210.0 174.43333Z" fill-rule="nonzero"/><path fill="#ff6d01" d="M164.53267 26.530914C167.03146 25.762745 169.54935 25.058025 172.08385 24.417433L210.0 174.43333Z" fill-rule="nonzero"/><path fill="#6fa8dc" d="M154.83717 29.866852C158.03127 28.648071 161.26486 27.53548 164.53267 26.530914L210.0 174.43333Z" fill-rule="nonzero"/><path fill="#fcd86c" d="M95.08556 70.81347C111.482506 52.629253 131.96078 38.59589 154.83717 29.866852L210.0 174.43333Z" fill-rule="nonzero"/><path fill="#4ab31c" d="M78.75732 256.3953C42.177837 197.8219 48.8402 122.09958 95.08556 70.81347L210.0 174.43333Z" fill-rule="nonzero"/><path fill="#ffa5a5" d="M210.0 19.7C284.41724 19.7 348.29422 72.67363 362.06213 145.8062C375.83002 218.93877 335.58875 291.51364 266.26587 318.5741C196.94301 345.63452 118.17599 319.51498 78.75732 256.3953L210.0 174.43333Z" fill-rule="nonzero"/><path fill="#000000" d="M295.1739 226.32356L293.95514 226.41731Q293.78326 225.68294 293.4864 225.35481Q292.9864 224.83919 292.252 224.83919Q291.65826 224.83919 291.22076 225.16731Q290.64264 225.58919 290.2989 226.40169Q289.97076 227.21419 289.95514 228.71419Q290.39264 228.04231 291.03326 227.71419Q291.6895 227.38606 292.39264 227.38606Q293.627 227.38606 294.4864 228.29231Q295.34576 229.19856 295.34576 230.63606Q295.34576 231.57356 294.9395 232.38606Q294.53326 233.19856 293.8145 233.63606Q293.1114 234.05794 292.20514 234.05794Q290.6739 234.05794 289.70514 232.93294Q288.7364 231.79231 288.7364 229.19856Q288.7364 226.29231 289.7989 224.96419Q290.7364 223.82356 292.33014 223.82356Q293.51764 223.82356 294.26764 224.49544Q295.01764 225.15169 295.1739 226.32356ZM290.14264 230.63606Q290.14264 231.27669 290.40826 231.85481Q290.6895 232.43294 291.1739 232.74544Q291.65826 233.04231 292.1895 233.04231Q292.97076 233.04231 293.53326 232.41731Q294.09576 231.79231 294.09576 230.71419Q294.09576 229.66731 293.53326 229.07356Q292.9864 228.46419 292.14264 228.46419Q291.3145 228.46419 290.72076 229.07356Q290.14264 229.66731 290.14264 230.63606ZM303.1739 226.32356L301.95514 226.41731Q301.78326 225.68294 301.4864 225.35481Q300.9864 224.83919 300.252 224.83919Q299.65826 224.83919 299.22076 225.16731Q298.64264 225.58919 298.2989 226.40169Q297.97076 227.21419 297.95514 228.71419Q298.39264 228.04231 299.03326 227.71419Q299.6895 227.38606 300.39264 227.38606Q301.627 227.38606 302.4864 228.29231Q303.34576 229.19856 303.34576 230.63606Q303.34576 231.57356 302.9395 232.38606Q302.53326 233.19856 301.8145 233.63606Q301.1114 234.05794 300.20514 234.05794Q298.6739 234.05794 297.70514 232.93294Q296.7364 231.79231 296.7364 229.19856Q296.7364 226.29231 297.7989 224.96419Q298.7364 223.82356 300.33014 223.82356Q301.51764 223.82356 302.26764 224.49544Q303.01764 225.15169 303.1739 226.32356ZM298.14264 230.63606Q298.14264 231.27669 298.40826 231.85481Q298.6895 232.43294 299.1739 232.74544Q299.65826 233.04231 300.1895 233.04231Q300.97076 233.04231 301.53326 232.41731Q302.09576 231.79231 302.09576 230.71419Q302.09576 229.66731 301.53326 229.07356Q300.9864 228.46419 300.14264 228.46419Q299.3145 228.46419 298.72076 229.07356Q298.14264 229.66731 298.14264 230.63606ZM305.45514 233.88606L305.45514 232.47981L306.84576 232.47981L306.84576 233.88606Q306.84576 234.65169 306.5645 235.12044Q306.2989 235.60481 305.70514 235.87044L305.3614 235.33919Q305.752 235.16731 305.9395 234.83919Q306.127 234.51106 306.14264 233.88606L305.45514 233.88606ZM313.4239 233.88606L312.1895 233.88606L312.1895 226.04231Q311.752 226.46419 311.01764 226.90169Q310.2989 227.32356 309.7364 227.52669L309.7364 226.33919Q310.76764 225.85481 311.53326 225.16731Q312.3145 224.47981 312.627 223.82356L313.4239 223.82356L313.4239 233.88606ZM317.01764 226.27669Q317.01764 225.19856 317.5489 224.44856Q318.09576 223.69856 319.127 223.69856Q320.0645 223.69856 320.6739 224.37044Q321.2989 225.04231 321.2989 226.33919Q321.2989 227.62044 320.6739 228.30794Q320.0489 228.99544 319.14264 228.99544Q318.2364 228.99544 317.627 228.32356Q317.01764 227.63606 317.01764 226.27669ZM319.15826 224.54231Q318.70514 224.54231 318.39264 224.94856Q318.09576 225.33919 318.09576 226.38606Q318.09576 227.35481 318.39264 227.74544Q318.70514 228.13606 319.15826 228.13606Q319.627 228.13606 319.9239 227.74544Q320.2364 227.35481 320.2364 226.29231Q320.2364 225.32356 319.9239 224.93294Q319.6114 224.54231 319.15826 224.54231ZM319.15826 234.26106L324.64264 223.69856L325.64264 223.69856L320.1895 234.26106L319.15826 234.26106ZM323.502 231.52669Q323.502 230.44856 324.03326 229.71419Q324.58014 228.96419 325.6114 228.96419Q326.5489 228.96419 327.1739 229.63606Q327.7989 230.30794 327.7989 231.60481Q327.7989 232.88606 327.1739 233.57356Q326.5489 234.26106 325.6114 234.26106Q324.70514 234.26106 324.09576 233.58919Q323.502 232.90169 323.502 231.52669ZM325.64264 229.80794Q325.1739 229.80794 324.877 230.21419Q324.58014 230.60481 324.58014 231.65169Q324.58014 232.62044 324.877 233.01106Q325.1895 233.40169 325.64264 233.40169Q326.1114 233.40169 326.40826 233.01106Q326.72076 232.62044 326.72076 231.55794Q326.72076 230.58919 326.40826 230.19856Q326.1114 229.80794 325.64264 229.80794Z" fill-rule="nonzero"/><path fill="#000000" d="M81.48806 168.07849L81.48806 169.26599L74.86306 169.26599Q74.847435 168.82849 75.003685 168.40662Q75.26931 167.73474 75.816185 167.07849Q76.378685 166.42224 77.42556 165.56287Q79.066185 164.21912 79.628685 163.43787Q80.20681 162.65662 80.20681 161.95349Q80.20681 161.21912 79.67556 160.71912Q79.159935 160.21912 78.33181 160.21912Q77.441185 160.21912 76.89431 160.75037Q76.36306 161.28162 76.36306 162.23474L75.097435 162.09412Q75.222435 160.68787 76.066185 159.95349Q76.92556 159.20349 78.347435 159.20349Q79.80056 159.20349 80.628685 160.00037Q81.472435 160.79724 81.472435 161.98474Q81.472435 162.59412 81.222435 163.17224Q80.98806 163.75037 80.409935 164.39099Q79.847435 165.03162 78.51931 166.15662Q77.409935 167.07849 77.097435 167.42224Q76.784935 167.75037 76.58181 168.07849L81.48806 168.07849ZM83.01931 164.32849Q83.01931 162.54724 83.378685 161.46912Q83.753685 160.37537 84.472435 159.79724Q85.191185 159.20349 86.284935 159.20349Q87.097435 159.20349 87.70681 159.53162Q88.316185 159.85974 88.70681 160.46912Q89.11306 161.07849 89.33181 161.95349Q89.55056 162.82849 89.55056 164.32849Q89.55056 166.09412 89.191185 167.17224Q88.83181 168.25037 88.11306 168.84412Q87.39431 169.43787 86.284935 169.43787Q84.847435 169.43787 84.01931 168.39099Q83.01931 167.14099 83.01931 164.32849ZM84.284935 164.32849Q84.284935 166.79724 84.86306 167.60974Q85.441185 168.42224 86.284935 168.42224Q87.14431 168.42224 87.722435 167.60974Q88.30056 166.78162 88.30056 164.32849Q88.30056 161.84412 87.722435 161.03162Q87.14431 160.21912 86.26931 160.21912Q85.42556 160.21912 84.92556 160.93787Q84.284935 161.85974 84.284935 164.32849ZM91.691185 169.26599L91.691185 167.85974L93.08181 167.85974L93.08181 169.26599Q93.08181 170.03162 92.80056 170.50037Q92.534935 170.98474 91.941185 171.25037L91.597435 170.71912Q91.98806 170.54724 92.17556 170.21912Q92.36306 169.89099 92.378685 169.26599L91.691185 169.26599ZM101.409935 161.70349L100.191185 161.79724Q100.01931 161.06287 99.722435 160.73474Q99.222435 160.21912 98.48806 160.21912Q97.89431 160.21912 97.45681 160.54724Q96.878685 160.96912 96.534935 161.78162Q96.20681 162.59412 96.191185 164.09412Q96.628685 163.42224 97.26931 163.09412Q97.92556 162.76599 98.628685 162.76599Q99.86306 162.76599 100.722435 163.67224Q101.58181 164.57849 101.58181 166.01599Q101.58181 166.95349 101.17556 167.76599Q100.76931 168.57849 100.05056 169.01599Q99.347435 169.43787 98.441185 169.43787Q96.909935 169.43787 95.941185 168.31287Q94.972435 167.17224 94.972435 164.57849Q94.972435 161.67224 96.034935 160.34412Q96.972435 159.20349 98.566185 159.20349Q99.753685 159.20349 100.503685 159.87537Q101.253685 160.53162 101.409935 161.70349ZM96.378685 166.01599Q96.378685 166.65662 96.64431 167.23474Q96.92556 167.81287 97.409935 168.12537Q97.89431 168.42224 98.42556 168.42224Q99.20681 168.42224 99.76931 167.79724Q100.33181 167.17224 100.33181 166.09412Q100.33181 165.04724 99.76931 164.45349Q99.222435 163.84412 98.378685 163.84412Q97.55056 163.84412 96.95681 164.45349Q96.378685 165.04724 96.378685 166.01599ZM103.253685 161.65662Q103.253685 160.57849 103.784935 159.82849Q104.33181 159.07849 105.36306 159.07849Q106.30056 159.07849 106.909935 159.75037Q107.534935 160.42224 107.534935 161.71912Q107.534935 163.00037 106.909935 163.68787Q106.284935 164.37537 105.378685 164.37537Q104.472435 164.37537 103.86306 163.70349Q103.253685 163.01599 103.253685 161.65662ZM105.39431 159.92224Q104.941185 159.92224 104.628685 160.32849Q104.33181 160.71912 104.33181 161.76599Q104.33181 162.73474 104.628685 163.12537Q104.941185 163.51599 105.39431 163.51599Q105.86306 163.51599 106.159935 163.12537Q106.472435 162.73474 106.472435 161.67224Q106.472435 160.70349 106.159935 160.31287Q105.847435 159.92224 105.39431 159.92224ZM105.39431 169.64099L110.878685 159.07849L111.878685 159.07849L106.42556 169.64099L105.39431 169.64099ZM109.73806 166.90662Q109.73806 165.82849 110.26931 165.09412Q110.816185 164.34412 111.847435 164.34412Q112.784935 164.34412 113.409935 165.01599Q114.034935 165.68787 114.034935 166.98474Q114.034935 168.26599 113.409935 168.95349Q112.784935 169.64099 111.847435 169.64099Q110.941185 169.64099 110.33181 168.96912Q109.73806 168.28162 109.73806 166.90662ZM111.878685 165.18787Q111.409935 165.18787 111.11306 165.59412Q110.816185 165.98474 110.816185 167.03162Q110.816185 168.00037 111.11306 168.39099Q111.42556 168.78162 111.878685 168.78162Q112.347435 168.78162 112.64431 168.39099Q112.95681 168.00037 112.95681 166.93787Q112.95681 165.96912 112.64431 165.57849Q112.347435 165.18787 111.878685 165.18787Z" fill-rule="nonzero"/><path fill="#000000" d="M128.48547 74.170074L128.48547 72.982574L134.98547 72.982574L134.98547 73.9357Q134.01672 74.951324 133.07922 76.638824Q132.14172 78.326324 131.6261 80.1232Q131.26672 81.3732 131.15735 82.8732L129.89172 82.8732Q129.90735 81.6857 130.34485 80.013824Q130.79797 78.34195 131.6261 76.795074Q132.46985 75.232574 133.40735 74.170074L128.48547 74.170074ZM137.07922 82.8732L137.07922 81.46695L138.46985 81.46695L138.46985 82.8732Q138.46985 83.638824 138.1886 84.107574Q137.92297 84.59195 137.32922 84.857574L136.98547 84.326324Q137.3761 84.15445 137.5636 83.826324Q137.7511 83.4982 137.76672 82.8732L137.07922 82.8732ZM140.40735 80.2482L141.70422 80.138824Q141.84485 81.076324 142.36047 81.5607Q142.89172 82.02945 143.6261 82.02945Q144.51672 82.02945 145.1261 81.357574Q145.7511 80.6857 145.7511 79.59195Q145.7511 78.52945 145.15735 77.920074Q144.5636 77.3107 143.61047 77.3107Q143.01672 77.3107 142.53235 77.59195Q142.0636 77.857574 141.78235 78.27945L140.6261 78.138824L141.59485 72.982574L146.57922 72.982574L146.57922 74.170074L142.57922 74.170074L142.04797 76.857574Q142.95422 76.232574 143.9386 76.232574Q145.2511 76.232574 146.14172 77.138824Q147.04797 78.045074 147.04797 79.482574Q147.04797 80.84195 146.26672 81.826324Q145.29797 83.045074 143.6261 83.045074Q142.26672 83.045074 141.39172 82.27945Q140.53235 81.513824 140.40735 80.2482ZM148.64172 75.263824Q148.64172 74.1857 149.17297 73.4357Q149.71985 72.6857 150.7511 72.6857Q151.6886 72.6857 152.29797 73.357574Q152.92297 74.02945 152.92297 75.326324Q152.92297 76.607574 152.29797 77.295074Q151.67297 77.982574 150.76672 77.982574Q149.86047 77.982574 149.2511 77.3107Q148.64172 76.6232 148.64172 75.263824ZM150.78235 73.52945Q150.32922 73.52945 150.01672 73.9357Q149.71985 74.326324 149.71985 75.3732Q149.71985 76.34195 150.01672 76.732574Q150.32922 77.1232 150.78235 77.1232Q151.2511 77.1232 151.54797 76.732574Q151.86047 76.34195 151.86047 75.27945Q151.86047 74.3107 151.54797 73.920074Q151.23547 73.52945 150.78235 73.52945ZM150.78235 83.2482L156.26672 72.6857L157.26672 72.6857L151.8136 83.2482L150.78235 83.2482ZM155.1261 80.513824Q155.1261 79.4357 155.65735 78.701324Q156.20422 77.951324 157.23547 77.951324Q158.17297 77.951324 158.79797 78.6232Q159.42297 79.295074 159.42297 80.59195Q159.42297 81.8732 158.79797 82.5607Q158.17297 83.2482 157.23547 83.2482Q156.32922 83.2482 155.71985 82.576324Q155.1261 81.888824 155.1261 80.513824ZM157.26672 78.795074Q156.79797 78.795074 156.5011 79.201324Q156.20422 79.59195 156.20422 80.638824Q156.20422 81.607574 156.5011 81.9982Q156.8136 82.388824 157.26672 82.388824Q157.73547 82.388824 158.03235 81.9982Q158.34485 81.607574 158.34485 80.545074Q158.34485 79.576324 158.03235 79.1857Q157.73547 78.795074 157.26672 78.795074Z" fill-rule="nonzero"/><path fill="#ffa5a5" d="M50.0 349.3C50.0 352.6137 47.31371 355.3 44.0 355.3C40.68629 355.3 38.0 352.6137 38.0 349.3C38.0 345.9863 40.68629 343.3 44.0 343.3C47.31371 343.3 50.0 345.9863 50.0 349.3Z" fill-rule="nonzero"/><path fill="#000000" d="M58.890625 353.3L58.890625 344.70624L60.609375 344.70624L62.640625 350.78436Q62.921875 351.64374 63.046875 352.0656Q63.1875 351.59686 63.5 350.6906L65.5625 344.70624L67.09375 344.70624L67.09375 353.3L66.0 353.3L66.0 346.1125L63.5 353.3L62.46875 353.3L59.984375 345.9875L59.984375 353.3L58.890625 353.3ZM67.40625 350.1906Q67.40625 348.45624 68.359375 347.6281Q69.15625 346.9406 70.3125 346.9406Q71.59375 346.9406 72.40625 347.78436Q73.234375 348.6125 73.234375 350.09686Q73.234375 351.3 72.875 351.9875Q72.515625 352.675 71.8125 353.0656Q71.125 353.4406 70.3125 353.4406Q69.015625 353.4406 68.203125 352.6125Q67.40625 351.76874 67.40625 350.1906ZM68.484375 350.1906Q68.484375 351.3781 69.0 351.97186Q69.53125 352.5656 70.3125 352.5656Q71.109375 352.5656 71.625 351.97186Q72.140625 351.3781 72.140625 350.15936Q72.140625 349.0031 71.609375 348.40936Q71.09375 347.8156 70.3125 347.8156Q69.53125 347.8156 69.0 348.40936Q68.484375 348.9875 68.484375 350.1906ZM78.859375 351.01874L79.890625 351.15936Q79.71875 352.22186 79.015625 352.83124Q78.3125 353.4406 77.296875 353.4406Q76.015625 353.4406 75.234375 352.6125Q74.46875 351.76874 74.46875 350.20624Q74.46875 349.20624 74.796875 348.45624Q75.140625 347.6906 75.8125 347.3156Q76.5 346.9406 77.3125 346.9406Q78.3125 346.9406 78.953125 347.45624Q79.609375 347.95624 79.796875 348.90936L78.765625 349.0656Q78.625 348.4406 78.25 348.1281Q77.875 347.8 77.34375 347.8Q76.546875 347.8 76.046875 348.3781Q75.546875 348.9406 75.546875 350.175Q75.546875 351.4406 76.03125 352.0031Q76.515625 352.5656 77.28125 352.5656Q77.90625 352.5656 78.3125 352.1906Q78.734375 351.8156 78.859375 351.01874ZM80.78125 347.08124L81.84375 347.08124L81.84375 349.76874Q82.34375 349.76874 82.546875 349.58124Q82.75 349.3781 83.140625 348.4406Q83.453125 347.70624 83.640625 347.47186Q83.84375 347.2375 84.09375 347.15936Q84.34375 347.08124 84.90625 347.08124L85.109375 347.08124L85.109375 347.95624L84.8125 347.9406Q84.40625 347.9406 84.28125 348.0656Q84.15625 348.1906 83.90625 348.83124Q83.671875 349.4406 83.46875 349.675Q83.265625 349.90936 82.859375 350.1125Q83.53125 350.28436 84.1875 351.3781L85.34375 353.3L84.1875 353.3L83.0625 351.3781Q82.71875 350.78436 82.453125 350.6125Q82.203125 350.425 81.84375 350.425L81.84375 353.3L80.78125 353.3L80.78125 347.08124ZM86.796875 347.08124L89.234375 347.08124Q90.125 347.08124 90.5625 347.2375Q91.0 347.3781 91.3125 347.78436Q91.625 348.175 91.625 348.72186Q91.625 349.175 91.4375 349.5031Q91.25 349.83124 90.890625 350.0656Q91.328125 350.20624 91.609375 350.6125Q91.90625 351.0031 91.90625 351.5656Q91.84375 352.4406 91.265625 352.8781Q90.703125 353.3 89.609375 353.3L86.796875 353.3L86.796875 347.08124ZM87.859375 349.6906L88.984375 349.6906Q89.65625 349.6906 89.90625 349.6281Q90.15625 349.55 90.34375 349.34686Q90.546875 349.1281 90.546875 348.83124Q90.546875 348.33124 90.203125 348.14374Q89.859375 347.95624 89.015625 347.95624L87.859375 347.95624L87.859375 349.6906ZM87.859375 352.425L89.234375 352.425Q90.140625 352.425 90.46875 352.22186Q90.8125 352.01874 90.828125 351.5031Q90.828125 351.20624 90.625 350.95624Q90.4375 350.6906 90.125 350.6281Q89.8125 350.5656 89.125 350.5656L87.859375 350.5656L87.859375 352.425ZM96.859375 352.53436Q96.265625 353.03436 95.71875 353.2375Q95.1875 353.4406 94.5625 353.4406Q93.53125 353.4406 92.984375 352.9406Q92.4375 352.4406 92.4375 351.65936Q92.4375 351.20624 92.640625 350.83124Q92.84375 350.4406 93.1875 350.22186Q93.53125 349.9875 93.953125 349.8781Q94.25 349.78436 94.890625 349.70624Q96.15625 349.5656 96.765625 349.34686Q96.765625 349.1281 96.765625 349.08124Q96.765625 348.425 96.46875 348.15936Q96.0625 347.8156 95.265625 347.8156Q94.53125 347.8156 94.171875 348.08124Q93.8125 348.33124 93.640625 348.9875L92.609375 348.84686Q92.75 348.1906 93.078125 347.78436Q93.40625 347.3781 94.015625 347.15936Q94.625 346.9406 95.421875 346.9406Q96.21875 346.9406 96.71875 347.1281Q97.21875 347.3156 97.453125 347.59686Q97.6875 347.8781 97.78125 348.3156Q97.828125 348.58124 97.828125 349.28436L97.828125 350.6906Q97.828125 352.15936 97.890625 352.55Q97.96875 352.9406 98.171875 353.3L97.0625 353.3Q96.90625 352.97186 96.859375 352.53436ZM96.765625 350.175Q96.1875 350.40936 95.046875 350.58124Q94.390625 350.675 94.125 350.8Q93.859375 350.90936 93.703125 351.1281Q93.5625 351.34686 93.5625 351.6281Q93.5625 352.05 93.875 352.33124Q94.203125 352.6125 94.8125 352.6125Q95.421875 352.6125 95.890625 352.34686Q96.375 352.08124 96.59375 351.6125Q96.765625 351.2531 96.765625 350.5656L96.765625 350.175Z" fill-rule="nonzero"/><path fill="#4ab31c" d="M127.0 349.3C127.0 352.6137 124.313705 355.3 121.0 355.3C117.686295 355.3 115.0 352.6137 115.0 349.3C115.0 345.9863 117.686295 343.3 121.0 343.3C124.313705 343.3 127.0 345.9863 127.0 349.3Z" fill-rule="nonzero"/><path fill="#000000" d="M142.0625 350.28436L143.1875 350.58124Q142.82812 351.97186 141.90625 352.70624Q140.98438 353.4406 139.64062 353.4406Q138.25 353.4406 137.375 352.8781Q136.5 352.3156 136.04688 351.2531Q135.59375 350.175 135.59375 348.9406Q135.59375 347.59686 136.10938 346.59686Q136.625 345.59686 137.5625 345.08124Q138.51562 344.5656 139.65625 344.5656Q140.9375 344.5656 141.8125 345.22186Q142.70312 345.8781 143.04688 347.0656L141.92188 347.33124Q141.625 346.39374 141.04688 345.97186Q140.48438 345.53436 139.625 345.53436Q138.64062 345.53436 137.96875 346.01874Q137.3125 346.4875 137.03125 347.28436Q136.76562 348.08124 136.76562 348.9406Q136.76562 350.03436 137.07812 350.84686Q137.40625 351.65936 138.07812 352.0656Q138.75 352.47186 139.54688 352.47186Q140.5 352.47186 141.15625 351.925Q141.82812 351.3781 142.0625 350.28436ZM148.85938 352.53436Q148.26562 353.03436 147.71875 353.2375Q147.1875 353.4406 146.5625 353.4406Q145.53125 353.4406 144.98438 352.9406Q144.4375 352.4406 144.4375 351.65936Q144.4375 351.20624 144.64062 350.83124Q144.84375 350.4406 145.1875 350.22186Q145.53125 349.9875 145.95312 349.8781Q146.25 349.78436 146.89062 349.70624Q148.15625 349.5656 148.76562 349.34686Q148.76562 349.1281 148.76562 349.08124Q148.76562 348.425 148.46875 348.15936Q148.0625 347.8156 147.26562 347.8156Q146.53125 347.8156 146.17188 348.08124Q145.8125 348.33124 145.64062 348.9875L144.60938 348.84686Q144.75 348.1906 145.07812 347.78436Q145.40625 347.3781 146.01562 347.15936Q146.625 346.9406 147.42188 346.9406Q148.21875 346.9406 148.71875 347.1281Q149.21875 347.3156 149.45312 347.59686Q149.6875 347.8781 149.78125 348.3156Q149.82812 348.58124 149.82812 349.28436L149.82812 350.6906Q149.82812 352.15936 149.89062 352.55Q149.96875 352.9406 150.17188 353.3L149.0625 353.3Q148.90625 352.97186 148.85938 352.53436ZM148.76562 350.175Q148.1875 350.40936 147.04688 350.58124Q146.39062 350.675 146.125 350.8Q145.85938 350.90936 145.70312 351.1281Q145.5625 351.34686 145.5625 351.6281Q145.5625 352.05 145.875 352.33124Q146.20312 352.6125 146.8125 352.6125Q147.42188 352.6125 147.89062 352.34686Q148.375 352.08124 148.59375 351.6125Q148.76562 351.2531 148.76562 350.5656L148.76562 350.175ZM151.79688 347.08124L152.85938 347.08124L152.85938 349.65936L155.78125 349.65936L155.78125 347.08124L156.82812 347.08124L156.82812 353.3L155.78125 353.3L155.78125 350.53436L152.85938 350.53436L152.85938 353.3L151.79688 353.3L151.79688 347.08124ZM158.78125 347.08124L159.84375 347.08124L159.84375 349.76874Q160.34375 349.76874 160.54688 349.58124Q160.75 349.3781 161.14062 348.4406Q161.45312 347.70624 161.64062 347.47186Q161.84375 347.2375 162.09375 347.15936Q162.34375 347.08124 162.90625 347.08124L163.10938 347.08124L163.10938 347.95624L162.8125 347.9406Q162.40625 347.9406 162.28125 348.0656Q162.15625 348.1906 161.90625 348.83124Q161.67188 349.4406 161.46875 349.675Q161.26562 349.90936 160.85938 350.1125Q161.53125 350.28436 162.1875 351.3781L163.34375 353.3L162.1875 353.3L161.0625 351.3781Q160.71875 350.78436 160.45312 350.6125Q160.20312 350.425 159.84375 350.425L159.84375 353.3L158.78125 353.3L158.78125 347.08124ZM164.21875 347.08124L169.28125 347.08124L169.28125 347.95624L167.28125 347.95624L167.28125 353.3L166.23438 353.3L166.23438 347.95624L164.21875 347.95624L164.21875 347.08124ZM172.9375 344.70624L179.6875 344.70624L179.6875 353.3L178.54688 353.3L178.54688 345.72186L174.07812 345.72186L174.07812 353.3L172.9375 353.3L172.9375 344.70624ZM186.04688 351.3L187.14062 351.425Q186.89062 352.3781 186.1875 352.90936Q185.48438 353.4406 184.40625 353.4406Q183.04688 353.4406 182.23438 352.59686Q181.4375 351.7531 181.4375 350.2375Q181.4375 348.675 182.25 347.8156Q183.0625 346.9406 184.34375 346.9406Q185.59375 346.9406 186.375 347.78436Q187.17188 348.6281 187.17188 350.175Q187.17188 350.26874 187.17188 350.45624L182.53125 350.45624Q182.59375 351.4875 183.10938 352.03436Q183.625 352.5656 184.40625 352.5656Q184.98438 352.5656 185.39062 352.26874Q185.8125 351.95624 186.04688 351.3ZM182.59375 349.59686L186.0625 349.59686Q186.0 348.8 185.67188 348.40936Q185.15625 347.8 184.35938 347.8Q183.625 347.8 183.125 348.28436Q182.64062 348.76874 182.59375 349.59686ZM188.21875 347.08124L193.28125 347.08124L193.28125 347.95624L191.28125 347.95624L191.28125 353.3L190.23438 353.3L190.23438 347.95624L188.21875 347.95624L188.21875 347.08124ZM198.04688 351.3L199.14062 351.425Q198.89062 352.3781 198.1875 352.90936Q197.48438 353.4406 196.40625 353.4406Q195.04688 353.4406 194.23438 352.59686Q193.4375 351.7531 193.4375 350.2375Q193.4375 348.675 194.25 347.8156Q195.0625 346.9406 196.34375 346.9406Q197.59375 346.9406 198.375 347.78436Q199.17188 348.6281 199.17188 350.175Q199.17188 350.26874 199.17188 350.45624L194.53125 350.45624Q194.59375 351.4875 195.10938 352.03436Q195.625 352.5656 196.40625 352.5656Q196.98438 352.5656 197.39062 352.26874Q197.8125 351.95624 198.04688 351.3ZM194.59375 349.59686L198.0625 349.59686Q198.0 348.8 197.67188 348.40936Q197.15625 347.8 196.35938 347.8Q195.625 347.8 195.125 348.28436Q194.64062 348.76874 194.59375 349.59686ZM200.79688 355.6906L200.79688 347.08124L201.75 347.08124L201.75 347.8781Q202.09375 347.40936 202.51562 347.175Q202.95312 346.9406 203.5625 346.9406Q204.35938 346.9406 204.96875 347.34686Q205.57812 347.7531 205.875 348.5031Q206.1875 349.2531 206.1875 350.14374Q206.1875 351.09686 205.84375 351.8625Q205.51562 352.6281 204.85938 353.03436Q204.20312 353.4406 203.48438 353.4406Q202.95312 353.4406 202.53125 353.22186Q202.10938 352.9875 201.84375 352.65936L201.84375 355.6906L200.79688 355.6906ZM201.75 350.22186Q201.75 351.425 202.23438 352.0031Q202.71875 352.5656 203.40625 352.5656Q204.10938 352.5656 204.60938 351.97186Q205.10938 351.3781 205.10938 350.1281Q205.10938 348.9406 204.625 348.3625Q204.14062 347.76874 203.45312 347.76874Q202.78125 347.76874 202.26562 348.39374Q201.75 349.01874 201.75 350.22186ZM212.34375 344.5031L213.28125 344.51874Q213.21875 345.14374 213.0 345.39374Q212.79688 345.6281 212.45312 345.70624Q212.10938 345.76874 211.125 345.76874Q209.82812 345.76874 209.34375 346.03436Q208.875 346.28436 208.65625 346.84686Q208.45312 347.39374 208.4375 348.2531Q208.82812 347.675 209.35938 347.3781Q209.90625 347.08124 210.5625 347.08124Q211.79688 347.08124 212.59375 347.925Q213.40625 348.7531 213.40625 350.1906Q213.40625 351.28436 213.0 351.9875Q212.59375 352.675 212.03125 353.0656Q211.48438 353.4406 210.53125 353.4406Q209.42188 353.4406 208.79688 352.9406Q208.1875 352.425 207.85938 351.64374Q207.53125 350.84686 207.53125 348.8781Q207.53125 346.40936 208.35938 345.5656Q209.20312 344.70624 210.9375 344.70624Q212.01562 344.70624 212.15625 344.675Q212.3125 344.6281 212.34375 344.5031ZM212.29688 350.15936Q212.29688 349.1906 211.82812 348.58124Q211.375 347.95624 210.54688 347.95624Q209.67188 347.95624 209.1875 348.6125Q208.71875 349.26874 208.71875 350.3625Q208.71875 351.4406 209.23438 352.01874Q209.76562 352.59686 210.53125 352.59686Q211.3125 352.59686 211.79688 351.925Q212.29688 351.2531 212.29688 350.15936ZM214.75 355.6906L214.625 354.70624Q214.96875 354.8 215.23438 354.8Q215.57812 354.8 215.78125 354.675Q216.0 354.5656 216.14062 354.3625Q216.23438 354.1906 216.46875 353.5656Q216.48438 353.4875 216.5625 353.3156L214.1875 347.08124L215.32812 347.08124L216.625 350.675Q216.875 351.3625 217.07812 352.1281Q217.26562 351.39374 217.51562 350.70624L218.84375 347.08124L219.89062 347.08124L217.53125 353.40936Q217.14062 354.425 216.9375 354.8156Q216.65625 355.34686 216.28125 355.58124Q215.92188 355.83124 215.42188 355.83124Q215.125 355.83124 214.75 355.6906ZM219.79688 355.6906L219.79688 347.08124L220.75 347.08124L220.75 347.8781Q221.09375 347.40936 221.51562 347.175Q221.95312 346.9406 222.5625 346.9406Q223.35938 346.9406 223.96875 347.34686Q224.57812 347.7531 224.875 348.5031Q225.1875 349.2531 225.1875 350.14374Q225.1875 351.09686 224.84375 351.8625Q224.51562 352.6281 223.85938 353.03436Q223.20312 353.4406 222.48438 353.4406Q221.95312 353.4406 221.53125 353.22186Q221.10938 352.9875 220.84375 352.65936L220.84375 355.6906L219.79688 355.6906ZM220.75 350.22186Q220.75 351.425 221.23438 352.0031Q221.71875 352.5656 222.40625 352.5656Q223.10938 352.5656 223.60938 351.97186Q224.10938 351.3781 224.10938 350.1281Q224.10938 348.9406 223.625 348.3625Q223.14062 347.76874 222.45312 347.76874Q221.78125 347.76874 221.26562 348.39374Q220.75 349.01874 220.75 350.22186ZM226.79688 347.08124L230.375 347.08124L230.375 347.95624L227.85938 347.95624L227.85938 353.3L226.79688 353.3L226.79688 347.08124Z" fill-rule="nonzero"/><path fill="#fcd86c" d="M258.0 349.3C258.0 352.6137 255.3137 355.3 252.0 355.3C248.6863 355.3 246.0 352.6137 246.0 349.3C246.0 345.9863 248.6863 343.3 252.0 343.3C255.3137 343.3 258.0 345.9863 258.0 349.3Z" fill-rule="nonzero"/><path fill="#000000" d="M266.89062 353.3L266.89062 344.70624L268.60938 344.70624L270.64062 350.78436Q270.92188 351.64374 271.04688 352.0656Q271.1875 351.59686 271.5 350.6906L273.5625 344.70624L275.09375 344.70624L275.09375 353.3L274.0 353.3L274.0 346.1125L271.5 353.3L270.46875 353.3L267.98438 345.9875L267.98438 353.3L266.89062 353.3ZM275.40625 350.1906Q275.40625 348.45624 276.35938 347.6281Q277.15625 346.9406 278.3125 346.9406Q279.59375 346.9406 280.40625 347.78436Q281.23438 348.6125 281.23438 350.09686Q281.23438 351.3 280.875 351.9875Q280.51562 352.675 279.8125 353.0656Q279.125 353.4406 278.3125 353.4406Q277.01562 353.4406 276.20312 352.6125Q275.40625 351.76874 275.40625 350.1906ZM276.48438 350.1906Q276.48438 351.3781 277.0 351.97186Q277.53125 352.5656 278.3125 352.5656Q279.10938 352.5656 279.625 351.97186Q280.14062 351.3781 280.14062 350.15936Q280.14062 349.0031 279.60938 348.40936Q279.09375 347.8156 278.3125 347.8156Q277.53125 347.8156 277.0 348.40936Q276.48438 348.9875 276.48438 350.1906ZM286.85938 351.01874L287.89062 351.15936Q287.71875 352.22186 287.01562 352.83124Q286.3125 353.4406 285.29688 353.4406Q284.01562 353.4406 283.23438 352.6125Q282.46875 351.76874 282.46875 350.20624Q282.46875 349.20624 282.79688 348.45624Q283.14062 347.6906 283.8125 347.3156Q284.5 346.9406 285.3125 346.9406Q286.3125 346.9406 286.95312 347.45624Q287.60938 347.95624 287.79688 348.90936L286.76562 349.0656Q286.625 348.4406 286.25 348.1281Q285.875 347.8 285.34375 347.8Q284.54688 347.8 284.04688 348.3781Q283.54688 348.9406 283.54688 350.175Q283.54688 351.4406 284.03125 352.0031Q284.51562 352.5656 285.28125 352.5656Q285.90625 352.5656 286.3125 352.1906Q286.73438 351.8156 286.85938 351.01874ZM288.78125 347.08124L289.84375 347.08124L289.84375 349.76874Q290.34375 349.76874 290.54688 349.58124Q290.75 349.3781 291.14062 348.4406Q291.45312 347.70624 291.64062 347.47186Q291.84375 347.2375 292.09375 347.15936Q292.34375 347.08124 292.90625 347.08124L293.10938 347.08124L293.10938 347.95624L292.8125 347.9406Q292.40625 347.9406 292.28125 348.0656Q292.15625 348.1906 291.90625 348.83124Q291.67188 349.4406 291.46875 349.675Q291.26562 349.90936 290.85938 350.1125Q291.53125 350.28436 292.1875 351.3781L293.34375 353.3L292.1875 353.3L291.0625 351.3781Q290.71875 350.78436 290.45312 350.6125Q290.20312 350.425 289.84375 350.425L289.84375 353.3L288.78125 353.3L288.78125 347.08124ZM294.40625 350.1906Q294.40625 348.45624 295.35938 347.6281Q296.15625 346.9406 297.3125 346.9406Q298.59375 346.9406 299.40625 347.78436Q300.23438 348.6125 300.23438 350.09686Q300.23438 351.3 299.875 351.9875Q299.51562 352.675 298.8125 353.0656Q298.125 353.4406 297.3125 353.4406Q296.01562 353.4406 295.20312 352.6125Q294.40625 351.76874 294.40625 350.1906ZM295.48438 350.1906Q295.48438 351.3781 296.0 351.97186Q296.53125 352.5656 297.3125 352.5656Q298.10938 352.5656 298.625 351.97186Q299.14062 351.3781 299.14062 350.15936Q299.14062 349.0031 298.60938 348.40936Q298.09375 347.8156 297.3125 347.8156Q296.53125 347.8156 296.0 348.40936Q295.48438 348.9875 295.48438 350.1906ZM301.79688 347.08124L304.23438 347.08124Q305.125 347.08124 305.5625 347.2375Q306.0 347.3781 306.3125 347.78436Q306.625 348.175 306.625 348.72186Q306.625 349.175 306.4375 349.5031Q306.25 349.83124 305.89062 350.0656Q306.32812 350.20624 306.60938 350.6125Q306.90625 351.0031 306.90625 351.5656Q306.84375 352.4406 306.26562 352.8781Q305.70312 353.3 304.60938 353.3L301.79688 353.3L301.79688 347.08124ZM302.85938 349.6906L303.98438 349.6906Q304.65625 349.6906 304.90625 349.6281Q305.15625 349.55 305.34375 349.34686Q305.54688 349.1281 305.54688 348.83124Q305.54688 348.33124 305.20312 348.14374Q304.85938 347.95624 304.01562 347.95624L302.85938 347.95624L302.85938 349.6906ZM302.85938 352.425L304.23438 352.425Q305.14062 352.425 305.46875 352.22186Q305.8125 352.01874 305.82812 351.5031Q305.82812 351.20624 305.625 350.95624Q305.4375 350.6906 305.125 350.6281Q304.8125 350.5656 304.125 350.5656L302.85938 350.5656L302.85938 352.425ZM311.85938 351.01874L312.89062 351.15936Q312.71875 352.22186 312.01562 352.83124Q311.3125 353.4406 310.29688 353.4406Q309.01562 353.4406 308.23438 352.6125Q307.46875 351.76874 307.46875 350.20624Q307.46875 349.20624 307.79688 348.45624Q308.14062 347.6906 308.8125 347.3156Q309.5 346.9406 310.3125 346.9406Q311.3125 346.9406 311.95312 347.45624Q312.60938 347.95624 312.79688 348.90936L311.76562 349.0656Q311.625 348.4406 311.25 348.1281Q310.875 347.8 310.34375 347.8Q309.54688 347.8 309.04688 348.3781Q308.54688 348.9406 308.54688 350.175Q308.54688 351.4406 309.03125 352.0031Q309.51562 352.5656 310.28125 352.5656Q310.90625 352.5656 311.3125 352.1906Q311.73438 351.8156 311.85938 351.01874ZM313.78125 347.08124L314.84375 347.08124L314.84375 349.76874Q315.34375 349.76874 315.54688 349.58124Q315.75 349.3781 316.14062 348.4406Q316.45312 347.70624 316.64062 347.47186Q316.84375 347.2375 317.09375 347.15936Q317.34375 347.08124 317.90625 347.08124L318.10938 347.08124L318.10938 347.95624L317.8125 347.9406Q317.40625 347.9406 317.28125 348.0656Q317.15625 348.1906 316.90625 348.83124Q316.67188 349.4406 316.46875 349.675Q316.26562 349.90936 315.85938 350.1125Q316.53125 350.28436 317.1875 351.3781L318.34375 353.3L317.1875 353.3L316.0625 351.3781Q315.71875 350.78436 315.45312 350.6125Q315.20312 350.425 314.84375 350.425L314.84375 353.3L313.78125 353.3L313.78125 347.08124ZM323.85938 352.53436Q323.26562 353.03436 322.71875 353.2375Q322.1875 353.4406 321.5625 353.4406Q320.53125 353.4406 319.98438 352.9406Q319.4375 352.4406 319.4375 351.65936Q319.4375 351.20624 319.64062 350.83124Q319.84375 350.4406 320.1875 350.22186Q320.53125 349.9875 320.95312 349.8781Q321.25 349.78436 321.89062 349.70624Q323.15625 349.5656 323.76562 349.34686Q323.76562 349.1281 323.76562 349.08124Q323.76562 348.425 323.46875 348.15936Q323.0625 347.8156 322.26562 347.8156Q321.53125 347.8156 321.17188 348.08124Q320.8125 348.33124 320.64062 348.9875L319.60938 348.84686Q319.75 348.1906 320.07812 347.78436Q320.40625 347.3781 321.01562 347.15936Q321.625 346.9406 322.42188 346.9406Q323.21875 346.9406 323.71875 347.1281Q324.21875 347.3156 324.45312 347.59686Q324.6875 347.8781 324.78125 348.3156Q324.82812 348.58124 324.82812 349.28436L324.82812 350.6906Q324.82812 352.15936 324.89062 352.55Q324.96875 352.9406 325.17188 353.3L324.0625 353.3Q323.90625 352.97186 323.85938 352.53436ZM323.76562 350.175Q323.1875 350.40936 322.04688 350.58124Q321.39062 350.675 321.125 350.8Q320.85938 350.90936 320.70312 351.1281Q320.5625 351.34686 320.5625 351.6281Q320.5625 352.05 320.875 352.33124Q321.20312 352.6125 321.8125 352.6125Q322.42188 352.6125 322.89062 352.34686Q323.375 352.08124 323.59375 351.6125Q323.76562 351.2531 323.76562 350.5656L323.76562 350.175ZM331.6875 347.08124L331.6875 353.3L330.64062 353.3L330.64062 350.8781L330.03125 350.8781Q329.46875 350.8781 329.20312 351.01874Q328.9375 351.15936 328.40625 351.9406L327.48438 353.3L326.1875 353.3L327.3125 351.6281Q327.84375 350.8625 328.35938 350.7531Q327.45312 350.6281 327.01562 350.1125Q326.57812 349.58124 326.57812 348.89374Q326.57812 348.08124 327.14062 347.58124Q327.71875 347.08124 328.8125 347.08124L331.6875 347.08124ZM330.64062 347.95624L329.14062 347.95624Q328.20312 347.95624 327.92188 348.2531Q327.65625 348.53436 327.65625 348.925Q327.65625 349.4875 328.04688 349.7531Q328.45312 350.0031 329.46875 350.0031L330.64062 350.0031L330.64062 347.95624ZM336.40625 350.1906Q336.40625 348.45624 337.35938 347.6281Q338.15625 346.9406 339.3125 346.9406Q340.59375 346.9406 341.40625 347.78436Q342.23438 348.6125 342.23438 350.09686Q342.23438 351.3 341.875 351.9875Q341.51562 352.675 340.8125 353.0656Q340.125 353.4406 339.3125 353.4406Q338.01562 353.4406 337.20312 352.6125Q336.40625 351.76874 336.40625 350.1906ZM337.48438 350.1906Q337.48438 351.3781 338.0 351.97186Q338.53125 352.5656 339.3125 352.5656Q340.10938 352.5656 340.625 351.97186Q341.14062 351.3781 341.14062 350.15936Q341.14062 349.0031 340.60938 348.40936Q340.09375 347.8156 339.3125 347.8156Q338.53125 347.8156 338.0 348.40936Q337.48438 348.9875 337.48438 350.1906ZM348.34375 344.5031L349.28125 344.51874Q349.21875 345.14374 349.0 345.39374Q348.79688 345.6281 348.45312 345.70624Q348.10938 345.76874 347.125 345.76874Q345.82812 345.76874 345.34375 346.03436Q344.875 346.28436 344.65625 346.84686Q344.45312 347.39374 344.4375 348.2531Q344.82812 347.675 345.35938 347.3781Q345.90625 347.08124 346.5625 347.08124Q347.79688 347.08124 348.59375 347.925Q349.40625 348.7531 349.40625 350.1906Q349.40625 351.28436 349.0 351.9875Q348.59375 352.675 348.03125 353.0656Q347.48438 353.4406 346.53125 353.4406Q345.42188 353.4406 344.79688 352.9406Q344.1875 352.425 343.85938 351.64374Q343.53125 350.84686 343.53125 348.8781Q343.53125 346.40936 344.35938 345.5656Q345.20312 344.70624 346.9375 344.70624Q348.01562 344.70624 348.15625 344.675Q348.3125 344.6281 348.34375 344.5031ZM348.29688 350.15936Q348.29688 349.1906 347.82812 348.58124Q347.375 347.95624 346.54688 347.95624Q345.67188 347.95624 345.1875 348.6125Q344.71875 349.26874 344.71875 350.3625Q344.71875 351.4406 345.23438 352.01874Q345.76562 352.59686 346.53125 352.59686Q347.3125 352.59686 347.79688 351.925Q348.29688 351.2531 348.29688 350.15936ZM351.3125 347.08124L356.20312 347.08124L356.20312 353.3L355.15625 353.3L355.15625 347.95624L352.35938 347.95624L352.35938 351.05Q352.35938 352.1281 352.28125 352.4875Q352.21875 352.83124 351.90625 353.09686Q351.59375 353.34686 350.98438 353.34686Q350.625 353.34686 350.14062 353.3L350.14062 352.40936L350.60938 352.40936Q350.9375 352.40936 351.07812 352.34686Q351.21875 352.28436 351.26562 352.14374Q351.3125 351.9875 351.3125 351.175L351.3125 347.08124ZM361.85938 352.53436Q361.26562 353.03436 360.71875 353.2375Q360.1875 353.4406 359.5625 353.4406Q358.53125 353.4406 357.98438 352.9406Q357.4375 352.4406 357.4375 351.65936Q357.4375 351.20624 357.64062 350.83124Q357.84375 350.4406 358.1875 350.22186Q358.53125 349.9875 358.95312 349.8781Q359.25 349.78436 359.89062 349.70624Q361.15625 349.5656 361.76562 349.34686Q361.76562 349.1281 361.76562 349.08124Q361.76562 348.425 361.46875 348.15936Q361.0625 347.8156 360.26562 347.8156Q359.53125 347.8156 359.17188 348.08124Q358.8125 348.33124 358.64062 348.9875L357.60938 348.84686Q357.75 348.1906 358.07812 347.78436Q358.40625 347.3781 359.01562 347.15936Q359.625 346.9406 360.42188 346.9406Q361.21875 346.9406 361.71875 347.1281Q362.21875 347.3156 362.45312 347.59686Q362.6875 347.8781 362.78125 348.3156Q362.82812 348.58124 362.82812 349.28436L362.82812 350.6906Q362.82812 352.15936 362.89062 352.55Q362.96875 352.9406 363.17188 353.3L362.0625 353.3Q361.90625 352.97186 361.85938 352.53436ZM361.76562 350.175Q361.1875 350.40936 360.04688 350.58124Q359.39062 350.675 359.125 350.8Q358.85938 350.90936 358.70312 351.1281Q358.5625 351.34686 358.5625 351.6281Q358.5625 352.05 358.875 352.33124Q359.20312 352.6125 359.8125 352.6125Q360.42188 352.6125 360.89062 352.34686Q361.375 352.08124 361.59375 351.6125Q361.76562 351.2531 361.76562 350.5656L361.76562 350.175ZM368.85938 351.01874L369.89062 351.15936Q369.71875 352.22186 369.01562 352.83124Q368.3125 353.4406 367.29688 353.4406Q366.01562 353.4406 365.23438 352.6125Q364.46875 351.76874 364.46875 350.20624Q364.46875 349.20624 364.79688 348.45624Q365.14062 347.6906 365.8125 347.3156Q366.5 346.9406 367.3125 346.9406Q368.3125 346.9406 368.95312 347.45624Q369.60938 347.95624 369.79688 348.90936L368.76562 349.0656Q368.625 348.4406 368.25 348.1281Q367.875 347.8 367.34375 347.8Q366.54688 347.8 366.04688 348.3781Q365.54688 348.9406 365.54688 350.175Q365.54688 351.4406 366.03125 352.0031Q366.51562 352.5656 367.28125 352.5656Q367.90625 352.5656 368.3125 352.1906Q368.73438 351.8156 368.85938 351.01874ZM370.21875 347.08124L375.28125 347.08124L375.28125 347.95624L373.28125 347.95624L373.28125 353.3L372.23438 353.3L372.23438 347.95624L370.21875 347.95624L370.21875 347.08124ZM375.78125 347.08124L376.82812 347.08124L376.82812 349.5031L378.17188 349.5031Q379.46875 349.5031 380.17188 350.01874Q380.89062 350.51874 380.89062 351.40936Q380.89062 352.1906 380.29688 352.7531Q379.70312 353.3 378.40625 353.3L375.78125 353.3L375.78125 347.08124ZM376.82812 352.425L377.9375 352.425Q378.9375 352.425 379.35938 352.1906Q379.79688 351.9406 379.79688 351.425Q379.79688 351.01874 379.46875 350.70624Q379.15625 350.3781 378.07812 350.3781L376.82812 350.3781L376.82812 352.425Z" fill-rule="nonzero"/><path fill="#6fa8dc" d="M85.0 367.3C85.0 370.6137 82.313705 373.3 79.0 373.3C75.686295 373.3 73.0 370.6137 73.0 367.3C73.0 363.9863 75.686295 361.3 79.0 361.3C82.313705 361.3 85.0 363.9863 85.0 367.3Z" fill-rule="nonzero"/><path fill="#000000" d="M93.96875 371.3L93.96875 362.70624L95.09375 362.70624L95.09375 366.2375L99.5625 366.2375L99.5625 362.70624L100.703125 362.70624L100.703125 371.3L99.5625 371.3L99.5625 367.2531L95.09375 367.2531L95.09375 371.3L93.96875 371.3ZM102.796875 365.08124L103.84375 365.08124L103.84375 369.8156L106.765625 365.08124L107.90625 365.08124L107.90625 371.3L106.859375 371.3L106.859375 366.58124L103.921875 371.3L102.796875 371.3L102.796875 365.08124ZM113.546875 365.08124L113.546875 367.76874Q114.0625 367.76874 114.265625 367.58124Q114.46875 367.3781 114.859375 366.4406Q115.234375 365.5656 115.515625 365.3156Q115.8125 365.08124 116.4375 365.08124L116.828125 365.08124L116.828125 365.95624L116.53125 365.9406Q116.109375 365.9406 116.0 366.0656Q115.875 366.1906 115.625 366.83124Q115.390625 367.4406 115.1875 367.675Q114.984375 367.90936 114.5625 368.1125Q115.25 368.28436 115.90625 369.3781L117.0625 371.3L115.90625 371.3L114.765625 369.3781Q114.421875 368.78436 114.15625 368.6125Q113.90625 368.425 113.546875 368.425L113.546875 371.3L112.46875 371.3L112.46875 368.425Q112.125 368.425 111.859375 368.6125Q111.609375 368.78436 111.265625 369.3781L110.125 371.3L108.96875 371.3L110.125 369.3781Q110.78125 368.28436 111.46875 368.1125Q111.0 367.89374 110.8125 367.64374Q110.625 367.3781 110.25 366.425Q110.125 366.09686 109.96875 366.01874Q109.828125 365.9406 109.515625 365.9406Q109.453125 365.9406 109.21875 365.95624L109.21875 365.08124L109.359375 365.08124Q109.96875 365.08124 110.21875 365.15936Q110.46875 365.22186 110.65625 365.45624Q110.859375 365.6906 111.171875 366.4406Q111.5625 367.3625 111.765625 367.5656Q111.96875 367.76874 112.46875 367.76874L112.46875 365.08124L113.546875 365.08124ZM118.796875 365.08124L119.859375 365.08124L119.859375 367.65936L122.78125 367.65936L122.78125 365.08124L123.828125 365.08124L123.828125 371.3L122.78125 371.3L122.78125 368.53436L119.859375 368.53436L119.859375 371.3L118.796875 371.3L118.796875 365.08124ZM125.796875 365.08124L126.84375 365.08124L126.84375 369.8156L129.76562 365.08124L130.90625 365.08124L130.90625 371.3L129.85938 371.3L129.85938 366.58124L126.921875 371.3L125.796875 371.3L125.796875 365.08124ZM132.79688 365.08124L133.84375 365.08124L133.84375 369.8156L136.76562 365.08124L137.90625 365.08124L137.90625 371.3L136.85938 371.3L136.85938 366.58124L133.92188 371.3L132.79688 371.3L132.79688 365.08124ZM136.45312 362.72186L137.17188 362.72186Q137.07812 363.45624 136.625 363.84686Q136.1875 364.2375 135.4375 364.2375Q134.6875 364.2375 134.23438 363.84686Q133.79688 363.45624 133.70312 362.72186L134.42188 362.72186Q134.51562 363.1125 134.75 363.3156Q135.0 363.51874 135.40625 363.51874Q135.875 363.51874 136.125 363.33124Q136.375 363.1281 136.45312 362.72186ZM142.96875 371.3L142.96875 362.70624L144.09375 362.70624L144.09375 366.2375L148.5625 366.2375L148.5625 362.70624L149.70312 362.70624L149.70312 371.3L148.5625 371.3L148.5625 367.2531L144.09375 367.2531L144.09375 371.3L142.96875 371.3ZM151.40625 368.1906Q151.40625 366.45624 152.35938 365.6281Q153.15625 364.9406 154.3125 364.9406Q155.59375 364.9406 156.40625 365.78436Q157.23438 366.6125 157.23438 368.09686Q157.23438 369.3 156.875 369.9875Q156.51562 370.675 155.8125 371.0656Q155.125 371.4406 154.3125 371.4406Q153.01562 371.4406 152.20312 370.6125Q151.40625 369.76874 151.40625 368.1906ZM152.48438 368.1906Q152.48438 369.3781 153.0 369.97186Q153.53125 370.5656 154.3125 370.5656Q155.10938 370.5656 155.625 369.97186Q156.14062 369.3781 156.14062 368.15936Q156.14062 367.0031 155.60938 366.40936Q155.09375 365.8156 154.3125 365.8156Q153.53125 365.8156 153.0 366.40936Q152.48438 366.9875 152.48438 368.1906ZM158.79688 365.08124L161.23438 365.08124Q162.125 365.08124 162.5625 365.2375Q163.0 365.3781 163.3125 365.78436Q163.625 366.175 163.625 366.72186Q163.625 367.175 163.4375 367.5031Q163.25 367.83124 162.89062 368.0656Q163.32812 368.20624 163.60938 368.6125Q163.90625 369.0031 163.90625 369.5656Q163.84375 370.4406 163.26562 370.8781Q162.70312 371.3 161.60938 371.3L158.79688 371.3L158.79688 365.08124ZM159.85938 367.6906L160.98438 367.6906Q161.65625 367.6906 161.90625 367.6281Q162.15625 367.55 162.34375 367.34686Q162.54688 367.1281 162.54688 366.83124Q162.54688 366.33124 162.20312 366.14374Q161.85938 365.95624 161.01562 365.95624L159.85938 365.95624L159.85938 367.6906ZM159.85938 370.425L161.23438 370.425Q162.14062 370.425 162.46875 370.22186Q162.8125 370.01874 162.82812 369.5031Q162.82812 369.20624 162.625 368.95624Q162.4375 368.6906 162.125 368.6281Q161.8125 368.5656 161.125 368.5656L159.85938 368.5656L159.85938 370.425ZM164.79688 365.08124L168.375 365.08124L168.375 365.95624L165.85938 365.95624L165.85938 371.3L164.79688 371.3L164.79688 365.08124ZM168.40625 368.1906Q168.40625 366.45624 169.35938 365.6281Q170.15625 364.9406 171.3125 364.9406Q172.59375 364.9406 173.40625 365.78436Q174.23438 366.6125 174.23438 368.09686Q174.23438 369.3 173.875 369.9875Q173.51562 370.675 172.8125 371.0656Q172.125 371.4406 171.3125 371.4406Q170.01562 371.4406 169.20312 370.6125Q168.40625 369.76874 168.40625 368.1906ZM169.48438 368.1906Q169.48438 369.3781 170.0 369.97186Q170.53125 370.5656 171.3125 370.5656Q172.10938 370.5656 172.625 369.97186Q173.14062 369.3781 173.14062 368.15936Q173.14062 367.0031 172.60938 366.40936Q172.09375 365.8156 171.3125 365.8156Q170.53125 365.8156 170.0 366.40936Q169.48438 366.9875 169.48438 368.1906ZM175.79688 373.6906L175.79688 365.08124L176.75 365.08124L176.75 365.8781Q177.09375 365.40936 177.51562 365.175Q177.95312 364.9406 178.5625 364.9406Q179.35938 364.9406 179.96875 365.34686Q180.57812 365.7531 180.875 366.5031Q181.1875 367.2531 181.1875 368.14374Q181.1875 369.09686 180.84375 369.8625Q180.51562 370.6281 179.85938 371.03436Q179.20312 371.4406 178.48438 371.4406Q177.95312 371.4406 177.53125 371.22186Q177.10938 370.9875 176.84375 370.65936L176.84375 373.6906L175.79688 373.6906ZM176.75 368.22186Q176.75 369.425 177.23438 370.0031Q177.71875 370.5656 178.40625 370.5656Q179.10938 370.5656 179.60938 369.97186Q180.10938 369.3781 180.10938 368.1281Q180.10938 366.9406 179.625 366.3625Q179.14062 365.76874 178.45312 365.76874Q177.78125 365.76874 177.26562 366.39374Q176.75 367.01874 176.75 368.22186ZM182.40625 368.1906Q182.40625 366.45624 183.35938 365.6281Q184.15625 364.9406 185.3125 364.9406Q186.59375 364.9406 187.40625 365.78436Q188.23438 366.6125 188.23438 368.09686Q188.23438 369.3 187.875 369.9875Q187.51562 370.675 186.8125 371.0656Q186.125 371.4406 185.3125 371.4406Q184.01562 371.4406 183.20312 370.6125Q182.40625 369.76874 182.40625 368.1906ZM183.48438 368.1906Q183.48438 369.3781 184.0 369.97186Q184.53125 370.5656 185.3125 370.5656Q186.10938 370.5656 186.625 369.97186Q187.14062 369.3781 187.14062 368.15936Q187.14062 367.0031 186.60938 366.40936Q186.09375 365.8156 185.3125 365.8156Q184.53125 365.8156 184.0 366.40936Q183.48438 366.9875 183.48438 368.1906ZM190.625 365.08124L194.95312 365.08124L194.95312 370.425L195.64062 370.425L195.64062 373.0656L194.76562 373.0656L194.76562 371.3L189.875 371.3L189.875 373.0656L189.0 373.0656L189.0 370.425L189.5625 370.425Q190.67188 368.925 190.625 365.08124ZM191.5 365.95624Q191.39062 368.97186 190.5625 370.425L193.90625 370.425L193.90625 365.95624L191.5 365.95624Z" fill-rule="nonzero"/><path fill="#ff6d01" d="M224.0 367.3C224.0 370.6137 221.3137 373.3 218.0 373.3C214.6863 373.3 212.0 370.6137 212.0 367.3C212.0 363.9863 214.6863 361.3 218.0 361.3C221.3137 361.3 224.0 363.9863 224.0 367.3Z" fill-rule="nonzero"/><path fill="#000000" d="M232.9375 362.70624L234.07812 362.70624L234.07812 366.47186Q234.85938 366.47186 235.17188 366.175Q235.5 365.8625 235.98438 364.72186Q236.34375 363.8781 236.57812 363.53436Q236.8125 363.175 237.23438 362.9406Q237.65625 362.70624 238.17188 362.70624Q238.82812 362.70624 238.875 362.72186L238.875 363.70624Q238.8125 363.70624 238.64062 363.6906Q238.45312 363.6906 238.40625 363.6906Q237.85938 363.6906 237.60938 363.95624Q237.32812 364.22186 236.98438 365.08124Q236.54688 366.15936 236.25 366.45624Q235.95312 366.7375 235.54688 366.90936Q236.375 367.1281 237.1875 368.4406L238.95312 371.3L237.53125 371.3L236.10938 368.97186Q235.51562 368.0031 235.10938 367.64374Q234.71875 367.28436 234.07812 367.28436L234.07812 371.3L232.9375 371.3L232.9375 362.70624ZM243.85938 370.53436Q243.26562 371.03436 242.71875 371.2375Q242.1875 371.4406 241.5625 371.4406Q240.53125 371.4406 239.98438 370.9406Q239.4375 370.4406 239.4375 369.65936Q239.4375 369.20624 239.64062 368.83124Q239.84375 368.4406 240.1875 368.22186Q240.53125 367.9875 240.95312 367.8781Q241.25 367.78436 241.89062 367.70624Q243.15625 367.5656 243.76562 367.34686Q243.76562 367.1281 243.76562 367.08124Q243.76562 366.425 243.46875 366.15936Q243.0625 365.8156 242.26562 365.8156Q241.53125 365.8156 241.17188 366.08124Q240.8125 366.33124 240.64062 366.9875L239.60938 366.84686Q239.75 366.1906 240.07812 365.78436Q240.40625 365.3781 241.01562 365.15936Q241.625 364.9406 242.42188 364.9406Q243.21875 364.9406 243.71875 365.1281Q244.21875 365.3156 244.45312 365.59686Q244.6875 365.8781 244.78125 366.3156Q244.82812 366.58124 244.82812 367.28436L244.82812 368.6906Q244.82812 370.15936 244.89062 370.55Q244.96875 370.9406 245.17188 371.3L244.0625 371.3Q243.90625 370.97186 243.85938 370.53436ZM243.76562 368.175Q243.1875 368.40936 242.04688 368.58124Q241.39062 368.675 241.125 368.8Q240.85938 368.90936 240.70312 369.1281Q240.5625 369.34686 240.5625 369.6281Q240.5625 370.05 240.875 370.33124Q241.20312 370.6125 241.8125 370.6125Q242.42188 370.6125 242.89062 370.34686Q243.375 370.08124 243.59375 369.6125Q243.76562 369.2531 243.76562 368.5656L243.76562 368.175ZM248.17188 368.4875L248.17188 367.65936Q248.84375 367.65936 249.07812 367.6125Q249.32812 367.5656 249.53125 367.33124Q249.75 367.09686 249.75 366.7375Q249.75 366.3156 249.46875 366.0656Q249.1875 365.8 248.73438 365.8Q247.84375 365.8 247.48438 366.84686L246.48438 366.6906Q246.95312 364.9406 248.75 364.9406Q249.75 364.9406 250.3125 365.4875Q250.875 366.01874 250.875 366.78436Q250.875 367.55 250.14062 367.9875Q250.60938 368.2531 250.84375 368.64374Q251.07812 369.01874 251.07812 369.5656Q251.07812 370.39374 250.46875 370.925Q249.85938 371.4406 248.76562 371.4406Q246.64062 371.4406 246.29688 369.55L247.28125 369.33124Q247.42188 369.9406 247.82812 370.26874Q248.25 370.59686 248.78125 370.59686Q249.3125 370.59686 249.65625 370.3Q250.01562 369.9875 250.01562 369.51874Q250.01562 369.15936 249.79688 368.89374Q249.57812 368.6125 249.32812 368.55Q249.07812 368.4875 248.40625 368.4875Q248.35938 368.4875 248.17188 368.4875ZM256.85938 370.53436Q256.26562 371.03436 255.71875 371.2375Q255.1875 371.4406 254.5625 371.4406Q253.53125 371.4406 252.98438 370.9406Q252.4375 370.4406 252.4375 369.65936Q252.4375 369.20624 252.64062 368.83124Q252.84375 368.4406 253.1875 368.22186Q253.53125 367.9875 253.95312 367.8781Q254.25 367.78436 254.89062 367.70624Q256.15625 367.5656 256.76562 367.34686Q256.76562 367.1281 256.76562 367.08124Q256.76562 366.425 256.46875 366.15936Q256.0625 365.8156 255.26562 365.8156Q254.53125 365.8156 254.17188 366.08124Q253.8125 366.33124 253.64062 366.9875L252.60938 366.84686Q252.75 366.1906 253.07812 365.78436Q253.40625 365.3781 254.01562 365.15936Q254.625 364.9406 255.42188 364.9406Q256.21875 364.9406 256.71875 365.1281Q257.21875 365.3156 257.45312 365.59686Q257.6875 365.8781 257.78125 366.3156Q257.82812 366.58124 257.82812 367.28436L257.82812 368.6906Q257.82812 370.15936 257.89062 370.55Q257.96875 370.9406 258.17188 371.3L257.0625 371.3Q256.90625 370.97186 256.85938 370.53436ZM256.76562 368.175Q256.1875 368.40936 255.04688 368.58124Q254.39062 368.675 254.125 368.8Q253.85938 368.90936 253.70312 369.1281Q253.5625 369.34686 253.5625 369.6281Q253.5625 370.05 253.875 370.33124Q254.20312 370.6125 254.8125 370.6125Q255.42188 370.6125 255.89062 370.34686Q256.375 370.08124 256.59375 369.6125Q256.76562 369.2531 256.76562 368.5656L256.76562 368.175ZM259.79688 365.08124L260.85938 365.08124L260.85938 367.65936L263.78125 367.65936L263.78125 365.08124L264.82812 365.08124L264.82812 371.3L263.78125 371.3L263.78125 368.53436L260.85938 368.53436L260.85938 371.3L259.79688 371.3L259.79688 365.08124ZM266.78125 365.08124L267.82812 365.08124L267.82812 367.5031L269.17188 367.5031Q270.46875 367.5031 271.17188 368.01874Q271.89062 368.51874 271.89062 369.40936Q271.89062 370.1906 271.29688 370.7531Q270.70312 371.3 269.40625 371.3L266.78125 371.3L266.78125 365.08124ZM267.82812 370.425L268.9375 370.425Q269.9375 370.425 270.35938 370.1906Q270.79688 369.9406 270.79688 369.425Q270.79688 369.01874 270.46875 368.70624Q270.15625 368.3781 269.07812 368.3781L267.82812 368.3781L267.82812 370.425Z" fill-rule="nonzero"/><path fill="#46bdc6" d="M301.0 367.3C301.0 370.6137 298.31372 373.3 295.0 373.3C291.68628 373.3 289.0 370.6137 289.0 367.3C289.0 363.9863 291.68628 361.3 295.0 361.3C298.31372 361.3 301.0 363.9863 301.0 367.3Z" fill-rule="nonzero"/><path fill="#000000" d="M310.70312 362.70624L315.9375 362.70624L315.9375 370.28436L316.70312 370.28436L316.70312 373.3L315.6875 373.3L315.6875 371.3L310.01562 371.3L310.01562 373.3L309.0 373.3L309.0 370.28436L309.67188 370.28436Q310.70312 368.72186 310.70312 363.95624L310.70312 362.70624ZM314.79688 363.72186L311.79688 363.72186L311.79688 364.15936Q311.79688 365.2531 311.59375 367.15936Q311.40625 369.0656 310.82812 370.28436L314.79688 370.28436L314.79688 363.72186ZM317.79688 373.6906L317.79688 365.08124L318.75 365.08124L318.75 365.8781Q319.09375 365.40936 319.51562 365.175Q319.95312 364.9406 320.5625 364.9406Q321.35938 364.9406 321.96875 365.34686Q322.57812 365.7531 322.875 366.5031Q323.1875 367.2531 323.1875 368.14374Q323.1875 369.09686 322.84375 369.8625Q322.51562 370.6281 321.85938 371.03436Q321.20312 371.4406 320.48438 371.4406Q319.95312 371.4406 319.53125 371.22186Q319.10938 370.9875 318.84375 370.65936L318.84375 373.6906L317.79688 373.6906ZM318.75 368.22186Q318.75 369.425 319.23438 370.0031Q319.71875 370.5656 320.40625 370.5656Q321.10938 370.5656 321.60938 369.97186Q322.10938 369.3781 322.10938 368.1281Q322.10938 366.9406 321.625 366.3625Q321.14062 365.76874 320.45312 365.76874Q319.78125 365.76874 319.26562 366.39374Q318.75 367.01874 318.75 368.22186ZM324.75 373.6906L324.625 372.70624Q324.96875 372.8 325.23438 372.8Q325.57812 372.8 325.78125 372.675Q326.0 372.5656 326.14062 372.3625Q326.23438 372.1906 326.46875 371.5656Q326.48438 371.4875 326.5625 371.3156L324.1875 365.08124L325.32812 365.08124L326.625 368.675Q326.875 369.3625 327.07812 370.1281Q327.26562 369.39374 327.51562 368.70624L328.84375 365.08124L329.89062 365.08124L327.53125 371.40936Q327.14062 372.425 326.9375 372.8156Q326.65625 373.34686 326.28125 373.58124Q325.92188 373.83124 325.42188 373.83124Q325.125 373.83124 324.75 373.6906ZM329.79688 365.08124L333.375 365.08124L333.375 365.95624L330.85938 365.95624L330.85938 371.3L329.79688 371.3L329.79688 365.08124ZM333.79688 365.08124L334.84375 365.08124L334.84375 369.8156L337.76562 365.08124L338.90625 365.08124L338.90625 371.3L337.85938 371.3L337.85938 366.58124L334.92188 371.3L333.79688 371.3L333.79688 365.08124ZM345.04688 369.3L346.14062 369.425Q345.89062 370.3781 345.1875 370.90936Q344.48438 371.4406 343.40625 371.4406Q342.04688 371.4406 341.23438 370.59686Q340.4375 369.7531 340.4375 368.2375Q340.4375 366.675 341.25 365.8156Q342.0625 364.9406 343.34375 364.9406Q344.59375 364.9406 345.375 365.78436Q346.17188 366.6281 346.17188 368.175Q346.17188 368.26874 346.17188 368.45624L341.53125 368.45624Q341.59375 369.4875 342.10938 370.03436Q342.625 370.5656 343.40625 370.5656Q343.98438 370.5656 344.39062 370.26874Q344.8125 369.95624 345.04688 369.3ZM341.59375 367.59686L345.0625 367.59686Q345.0 366.8 344.67188 366.40936Q344.15625 365.8 343.35938 365.8Q342.625 365.8 342.125 366.28436Q341.64062 366.76874 341.59375 367.59686Z" fill-rule="nonzero"/></svg>