<svg width="141" height="40" viewBox="0 0 141 40" fill="none" xmlns="http://www.w3.org/2000/svg">
<path fill-rule="evenodd" clip-rule="evenodd" d="M47.4959 23.9031V25.6861H51.7439C51.6782 26.5252 51.332 27.3177 50.7609 27.9361C50.3373 28.3715 49.8268 28.7129 49.2626 28.9381C48.6983 29.1633 48.093 29.2672 47.4859 29.2431C44.9069 29.2041 42.8359 27.0871 42.8359 24.4881C42.8359 21.8881 44.9069 19.7711 47.4859 19.7321C48.0796 19.7227 48.6693 19.8308 49.221 20.0501C49.7728 20.2694 50.2757 20.5957 50.7009 21.0101L51.9509 19.7521C51.3712 19.1595 50.6778 18.69 49.9123 18.3718C49.1468 18.0535 48.3249 17.8931 47.4959 17.9001C46.3254 17.8568 45.165 18.1313 44.1378 18.6943C43.1107 19.2574 42.2551 20.088 41.6619 21.0981C41.0647 22.1118 40.7498 23.267 40.7498 24.4436C40.7498 25.6201 41.0647 26.7753 41.6619 27.7891C42.2551 28.7991 43.1107 29.6297 44.1378 30.1928C45.165 30.7558 46.3254 31.0303 47.4959 30.9871C48.3388 31.0249 49.18 30.8807 49.9622 30.5644C50.7444 30.2481 51.4493 29.7671 52.0289 29.154C53.0597 28.0105 53.6089 26.5129 53.5619 24.9741C53.5653 24.5984 53.5325 24.2234 53.4639 23.8541L47.4959 23.9031ZM58.3999 22.6051C56.0929 22.6111 54.2269 24.4991 54.2309 26.8231C54.2349 29.1471 56.1069 31.028 58.4129 31.026C60.7199 31.024 62.5889 29.1401 62.5889 26.8161C62.5973 26.2598 62.4942 25.7075 62.2857 25.1918C62.0772 24.676 61.7675 24.2072 61.3749 23.8131C60.9844 23.4207 60.5186 23.1115 60.0054 22.9039C59.4923 22.6963 58.9424 22.5946 58.3889 22.6051H58.3989H58.3999ZM63.3939 26.8291C63.3869 24.5061 65.2479 22.6161 67.5539 22.6051C68.1072 22.5948 68.6569 22.6965 69.1699 22.9041C69.6828 23.1117 70.1485 23.4208 70.5389 23.8131C70.9313 24.2073 71.2407 24.6762 71.4491 25.1919C71.6574 25.7077 71.7604 26.2599 71.7519 26.8161C71.7519 29.1381 69.8849 31.022 67.5799 31.026C65.2749 31.03 63.4019 29.1521 63.3939 26.8291ZM65.0879 27.925C65.3054 28.3866 65.6572 28.7718 66.0972 29.0302C66.5372 29.2885 67.0449 29.408 67.5539 29.373C67.8773 29.3653 68.1958 29.2924 68.4905 29.159C68.7851 29.0255 69.0499 28.834 69.2689 28.5961C69.4892 28.357 69.6597 28.0765 69.7705 27.7709C69.8812 27.4653 69.93 27.1407 69.9139 26.8161C69.9136 26.3046 69.7598 25.805 69.4724 25.382C69.185 24.9589 68.7773 24.6318 68.3019 24.4431C67.8278 24.2563 67.3083 24.2175 66.8117 24.3318C66.3151 24.446 65.8648 24.7079 65.5199 25.0831C65.1729 25.4598 64.9464 25.9316 64.8694 26.438C64.7925 26.9444 64.8685 27.4622 65.0879 27.925ZM55.9279 27.932C56.147 28.3931 56.5002 28.7773 56.9413 29.0343C57.3824 29.2912 57.8908 29.4089 58.3999 29.3721H58.3899C58.7132 29.3644 59.0317 29.2917 59.3263 29.1584C59.621 29.0251 59.8858 28.8338 60.1049 28.5961C60.3253 28.3571 60.4958 28.0766 60.6066 27.771C60.7173 27.4653 60.7661 27.1407 60.7499 26.8161C60.7495 26.3044 60.5954 25.8046 60.3076 25.3815C60.0198 24.9584 59.6117 24.6315 59.1359 24.4431C58.6613 24.2567 58.1414 24.2185 57.6446 24.3335C57.1478 24.4484 56.6975 24.7112 56.3529 25.0871C56.0065 25.4648 55.7808 25.9376 55.7051 26.4445C55.6294 26.9515 55.707 27.4695 55.9279 27.932ZM88.4679 22.6061C89.2664 22.6374 90.0364 22.9109 90.6757 23.3903C91.315 23.8697 91.7932 24.5323 92.0469 25.2901L92.2529 25.7361L86.6579 28.064C86.8278 28.4562 87.112 28.7881 87.4735 29.0161C87.835 29.2441 88.2568 29.3577 88.6839 29.342C89.0984 29.3427 89.506 29.2354 89.8663 29.0305C90.2267 28.8257 90.5274 28.5305 90.7389 28.1741L92.1649 29.1641C91.7851 29.7392 91.2679 30.2108 90.6602 30.536C90.0524 30.8613 89.3732 31.03 88.6839 31.0271C88.1335 31.0349 87.5871 30.9311 87.0778 30.722C86.5686 30.5128 86.107 30.2026 85.7209 29.8101C85.3331 29.4158 85.0282 28.9478 84.8243 28.4338C84.6204 27.9197 84.5217 27.3699 84.5339 26.817C84.5001 26.2768 84.5769 25.7352 84.7595 25.2256C84.9421 24.716 85.2267 24.2489 85.5959 23.8531C85.9633 23.459 86.4079 23.1449 86.902 22.9304C87.3962 22.7158 87.9292 22.6054 88.4679 22.6061ZM86.3429 26.696C86.3231 26.39 86.3642 26.0831 86.4637 25.793C86.5633 25.5029 86.7194 25.2354 86.9229 25.0061C87.3329 24.5441 87.9109 24.2681 88.5259 24.2401C88.8439 24.2198 89.1608 24.2935 89.4372 24.4522C89.7135 24.6108 89.9371 24.8472 90.0799 25.1321L86.3439 26.6971H86.3429V26.696ZM83.6399 30.7801H81.8009V18.3951H83.6399V30.779V30.7801ZM78.7919 23.5481H78.7229C78.447 23.2364 78.108 22.9869 77.7284 22.816C77.3488 22.6452 76.9372 22.5569 76.5209 22.5571C74.2909 22.6691 72.5409 24.523 72.5409 26.772C72.5409 29.022 74.2909 30.8761 76.5209 30.9881C77.3649 31.0021 78.1709 30.6391 78.7229 29.9971H78.7819V30.602C78.7819 32.217 77.9259 33.079 76.5499 33.079C76.0901 33.0671 75.6443 32.9183 75.2695 32.6517C74.8947 32.385 74.6079 32.0126 74.4459 31.5821L72.8439 32.2561C73.1426 32.9933 73.6552 33.6243 74.3158 34.0676C74.9763 34.5108 75.7545 34.7461 76.5499 34.7431C78.7039 34.7431 80.4829 33.4651 80.4829 30.3531V22.8551H78.7929V23.5481H78.7919ZM76.6849 29.373H76.6889H76.6789H76.6849ZM78.3419 28.5791C78.1338 28.8166 77.8797 29.0095 77.5949 29.146C77.31 29.2824 77.0005 29.3597 76.6849 29.373C76.0492 29.3132 75.4588 29.0177 75.0297 28.5448C74.6006 28.0719 74.3639 27.4556 74.3659 26.817C74.364 26.1779 74.6013 25.5611 75.0312 25.088C75.4611 24.615 76.0525 24.32 76.6889 24.2611C77.3239 24.2941 77.9189 24.5841 78.3389 25.0651C78.7589 25.5461 78.9689 26.1781 78.9199 26.817C78.947 27.1345 78.9097 27.4542 78.8104 27.7569C78.7111 28.0597 78.5518 28.3393 78.3419 28.5791ZM100.66 18.3961H96.2639V30.7801H98.1039V26.0841H100.67C101.371 26.1328 102.073 25.9867 102.697 25.662C103.32 25.3373 103.842 24.8466 104.205 24.2441C104.57 23.6393 104.763 22.9464 104.763 22.2401C104.763 21.5337 104.57 20.8408 104.205 20.2361C103.842 19.6335 103.32 19.1428 102.697 18.8181C102.073 18.4934 101.371 18.3473 100.67 18.3961H100.66ZM98.0939 24.3401H100.66L100.699 24.3701C101.864 24.3701 102.809 23.4191 102.809 22.2451C102.811 21.6835 102.59 21.1442 102.194 20.7457C101.798 20.3472 101.26 20.1222 100.699 20.1201H98.0939V24.3401ZM111.997 22.5571C111.326 22.5178 110.658 22.6761 110.076 23.0123C109.494 23.3486 109.024 23.8481 108.723 24.4491L110.354 25.1331C110.684 24.5231 111.34 24.1651 112.026 24.2211C112.26 24.1935 112.497 24.2131 112.723 24.2787C112.949 24.3443 113.159 24.4546 113.342 24.6031C113.712 24.9031 113.947 25.3411 113.993 25.8171V25.9451C113.403 25.6299 112.744 25.4663 112.075 25.4691C110.316 25.4691 108.536 26.4591 108.536 28.2541C108.571 29.0261 108.915 29.7511 109.489 30.2641C110.063 30.7781 110.819 31.0341 111.584 30.9781C112.048 31.0109 112.512 30.9177 112.928 30.7082C113.343 30.4987 113.694 30.1808 113.944 29.7881H114.003V30.7801H115.772V26.015C115.772 23.845 114.141 22.5861 112.046 22.5861L111.997 22.5561V22.5571ZM110.336 28.293C110.336 29.0371 111.171 29.3431 111.771 29.3431L111.82 29.373C112.358 29.3582 112.872 29.1494 113.267 28.7851C113.663 28.4208 113.914 27.9257 113.973 27.3911C113.464 27.1047 112.886 26.9613 112.302 26.9761C111.377 26.9761 110.336 27.302 110.336 28.293ZM122.222 22.8551L120.118 28.2231H120.06L117.876 22.8551H115.91L119.184 30.3651L117.316 34.5351H119.233L124.268 22.8551H122.222ZM107.534 30.7801H105.695V18.3951H107.534V30.779V30.7801Z" fill="white"/>
<path d="M10.855 8.786C10.555 9.151 10.412 9.62 10.455 10.092V29.907C10.4272 30.3653 10.5764 30.8167 10.872 31.168L10.935 31.232L22.135 20.135V19.874L10.916 8.724L10.854 8.786H10.855Z" fill="#5BC9F4"/>
<path d="M25.8599 23.8461L22.1169 20.1261V19.8661L25.8599 16.1541L25.9409 16.1991L30.3899 18.7031C31.6599 19.4151 31.6599 20.5851 30.3899 21.3061L25.9599 23.8091L25.8599 23.8461Z" fill="url(#paint0_linear_323_496)"/>
<path d="M25.96 23.8L22.134 20L10.853 31.214C11.1124 31.4399 11.4422 31.5687 11.786 31.5784C12.1299 31.5881 12.4664 31.478 12.738 31.267L25.968 23.801" fill="url(#paint1_linear_323_496)"/>
<path d="M25.96 16.2L12.73 8.73203C12.4583 8.52104 12.1218 8.41096 11.778 8.42063C11.4341 8.4303 11.1043 8.5591 10.845 8.78503L22.135 20L25.959 16.2H25.96Z" fill="url(#paint2_linear_323_496)"/>
<path d="M48.222 16.743H47.289V15H42.187V16.748H41.249L41.244 14.233H41.825C42.131 13.888 42.374 13.426 42.553 12.847C42.735 12.264 42.849 11.626 42.895 10.933L43.051 7.89099H47.304V14.233H48.231L48.221 16.743H48.222ZM42.894 14.233H46.361V8.66299H43.954L43.852 10.752C43.809 11.569 43.7 12.266 43.524 12.842C43.352 13.418 43.142 13.882 42.894 14.233ZM48.964 12.31C48.964 11.792 49.064 11.326 49.267 10.913C49.4541 10.52 49.7488 10.1881 50.117 9.95599C50.481 9.73099 50.896 9.61899 51.361 9.61899C52.081 9.61899 52.661 9.86899 53.105 10.366C53.551 10.864 53.773 11.526 53.773 12.354V12.417C53.773 12.931 53.674 13.394 53.476 13.804C53.2931 14.1968 52.9994 14.5277 52.631 14.756C52.2522 14.9878 51.815 15.1065 51.371 15.098C50.655 15.098 50.074 14.848 49.628 14.351C49.185 13.852 48.964 13.193 48.964 12.373V12.31ZM49.872 12.417C49.872 13.003 50.007 13.473 50.277 13.828C50.551 14.183 50.915 14.36 51.371 14.36C51.831 14.36 52.195 14.181 52.465 13.823C52.735 13.462 52.87 12.957 52.87 12.31C52.87 11.73 52.732 11.261 52.455 10.903C52.3308 10.7302 52.1661 10.5904 51.9754 10.4959C51.7847 10.4014 51.5738 10.3551 51.361 10.361C50.915 10.361 50.556 10.539 50.282 10.894C50.009 11.248 49.872 11.756 49.872 12.417ZM57.025 14.36C57.348 14.36 57.629 14.263 57.87 14.067C58.111 13.872 58.245 13.627 58.27 13.335H59.125C59.109 13.638 59.005 13.925 58.812 14.199C58.62 14.473 58.363 14.691 58.041 14.854C57.7268 15.0156 57.3783 15.0993 57.025 15.098C56.306 15.098 55.733 14.858 55.307 14.38C54.883 13.898 54.672 13.24 54.672 12.407V12.256C54.672 11.742 54.766 11.284 54.955 10.884C55.144 10.484 55.415 10.172 55.765 9.95099C56.12 9.72999 56.539 9.61899 57.02 9.61899C57.613 9.61899 58.104 9.79699 58.495 10.151C58.889 10.506 59.099 10.967 59.125 11.533H58.27C58.2544 11.2129 58.1145 10.9115 57.88 10.693C57.7658 10.5834 57.631 10.4976 57.4834 10.4406C57.3357 10.3837 57.1782 10.3566 57.02 10.361C56.561 10.361 56.205 10.527 55.951 10.859C55.701 11.189 55.575 11.665 55.575 12.29V12.46C55.575 13.07 55.7 13.538 55.951 13.867C56.201 14.196 56.56 14.36 57.025 14.36ZM64.066 10.45H62.294V15H61.391V10.45H59.652V9.71699H64.066V10.449V10.45ZM66.732 13.677L67.962 9.71699H68.93L66.806 15.815C66.476 16.695 65.954 17.134 65.238 17.134L65.068 17.119L64.731 17.056V16.323L64.975 16.343C65.281 16.343 65.518 16.281 65.688 16.157C65.86 16.034 66.002 15.807 66.112 15.479L66.312 14.941L64.428 9.71699H65.414L66.732 13.677ZM74.061 15H73.158V10.464H70.727V15H69.818V9.71699H74.061V15ZM79.828 15H78.925V12.744H76.498V15H75.59V9.71699H76.498V12.007H78.925V9.71699H79.828V15ZM81.044 12.31C81.044 11.792 81.144 11.326 81.347 10.913C81.5341 10.52 81.8288 10.1881 82.197 9.95599C82.561 9.73099 82.976 9.61899 83.441 9.61899C84.161 9.61899 84.741 9.86899 85.185 10.366C85.63 10.864 85.853 11.526 85.853 12.354V12.417C85.853 12.931 85.754 13.394 85.556 13.804C85.3731 14.1968 85.0794 14.5277 84.711 14.756C84.3323 14.9879 83.895 15.1066 83.451 15.098C82.735 15.098 82.154 14.848 81.708 14.351C81.265 13.852 81.044 13.193 81.044 12.373V12.31ZM81.952 12.417C81.952 13.003 82.087 13.473 82.357 13.828C82.631 14.183 82.995 14.36 83.451 14.36C83.911 14.36 84.275 14.181 84.545 13.823C84.815 13.462 84.95 12.957 84.95 12.31C84.95 11.73 84.812 11.261 84.535 10.903C84.4108 10.7302 84.2461 10.5904 84.0554 10.4959C83.8647 10.4014 83.6538 10.3551 83.441 10.361C82.995 10.361 82.636 10.539 82.362 10.894C82.089 11.248 81.952 11.756 81.952 12.417ZM89.55 15V9.71699H91.61C92.314 9.71699 92.852 9.83999 93.227 10.087C93.604 10.332 93.793 10.692 93.793 11.167C93.793 11.411 93.72 11.633 93.573 11.831C93.427 12.026 93.21 12.176 92.923 12.281C93.243 12.355 93.498 12.501 93.69 12.72C93.886 12.938 93.983 13.198 93.983 13.501C93.983 13.986 93.804 14.357 93.446 14.614C93.091 14.871 92.588 15 91.938 15H89.55ZM90.453 12.68V14.273H91.947C92.325 14.273 92.607 14.203 92.792 14.063C92.8843 13.9955 92.9584 13.9062 93.0078 13.8031C93.0572 13.6999 93.0803 13.5862 93.075 13.472C93.075 12.944 92.688 12.681 91.913 12.681H90.453V12.68ZM90.453 11.958H91.62C92.466 11.958 92.89 11.711 92.89 11.216C92.89 10.721 92.49 10.466 91.689 10.449H90.453V11.958Z" fill="white"/>
<rect x="0.5" y="0.5" width="140" height="39" rx="7.5" stroke="white" stroke-opacity="0.2"/>
<defs>
<linearGradient id="paint0_linear_323_496" x1="29.5659" y1="10.8641" x2="7.65394" y2="10.8641" gradientUnits="userSpaceOnUse">
<stop stop-color="#FEE000"/>
<stop offset="0.42" stop-color="#FBBC0E"/>
<stop offset="0.78" stop-color="#FAA418"/>
<stop offset="1" stop-color="#F99B1C"/>
</linearGradient>
<linearGradient id="paint1_linear_323_496" x1="8.20203" y1="17.502" x2="0.701028" y2="39.487" gradientUnits="userSpaceOnUse">
<stop stop-color="#EF4547"/>
<stop offset="1" stop-color="#C6186D"/>
</linearGradient>
<linearGradient id="paint2_linear_323_496" x1="-1.31003" y1="1.09103" x2="4.82097" y2="19.039" gradientUnits="userSpaceOnUse">
<stop stop-color="#279E6F"/>
<stop offset="0.04" stop-color="#2BA06F"/>
<stop offset="0.46" stop-color="#53B26C"/>
<stop offset="0.8" stop-color="#6BBD6A"/>
<stop offset="1" stop-color="#74C169"/>
</linearGradient>
</defs>
</svg>
