<svg width="136" height="41" viewBox="0 0 136 41" fill="none" xmlns="http://www.w3.org/2000/svg">
<g clip-path="url(#clip0)">
<path fill-rule="evenodd" clip-rule="evenodd" d="M130.961 40.131H5.03889C2.26175 40.131 0 37.8692 0 35.1146V5.01637C0 2.25174 2.26175 0 5.03889 0H130.961C133.736 0 136 2.25174 136 5.01637V35.1146C136 37.8692 133.736 40.131 130.961 40.131Z" fill="black"/>
<path fill-rule="evenodd" clip-rule="evenodd" d="M130.961 0.80312C133.29 0.80312 135.197 2.69708 135.197 5.01637V35.1146C135.197 37.4339 133.303 39.3279 130.961 39.3279H5.03889C2.70959 39.3279 0.80312 37.4339 0.80312 35.1146V5.01637C0.80312 2.69708 2.69708 0.80312 5.03889 0.80312H130.961ZM130.961 0H5.03889C2.26175 0 0 2.26175 0 5.01637V35.1146C0 37.8792 2.26175 40.131 5.03889 40.131H130.961C133.736 40.131 136 37.8792 136 35.1146V5.01637C136 2.26175 133.736 0 130.961 0Z" fill="#A6A6A6"/>
<path d="M71.6456 13.2752C70.7374 13.2752 69.9718 12.9575 69.3663 12.332C68.7658 11.724 68.4306 10.8859 68.4456 10.0302C68.4456 9.11703 68.7558 8.34394 69.3663 7.73096C69.9693 7.10548 70.7349 6.78773 71.6431 6.78773C72.5413 6.78773 73.3069 7.10548 73.9223 7.73096C74.5328 8.36395 74.843 9.13705 74.843 10.0302C74.833 10.9459 74.5228 11.719 73.9223 12.3295C73.3194 12.96 72.5538 13.2752 71.6456 13.2752ZM44.6222 13.2752C43.734 13.2752 42.9634 12.9625 42.3329 12.3445C41.7075 11.7291 41.3897 10.951 41.3897 10.0327C41.3897 9.11453 41.7075 8.33643 42.3329 7.72096C42.9509 7.10298 43.7215 6.79024 44.6222 6.79024C45.0625 6.79024 45.4904 6.8778 45.9007 7.05544C46.3035 7.22808 46.6313 7.46326 46.8739 7.75098L46.934 7.82354L46.256 8.48905L46.1859 8.40649C45.8031 7.95113 45.2902 7.72846 44.6122 7.72846C44.0067 7.72846 43.4788 7.94363 43.0435 8.36896C42.6056 8.79679 42.383 9.35722 42.383 10.0352C42.383 10.7133 42.6056 11.2737 43.0435 11.7015C43.4788 12.1269 44.0067 12.342 44.6122 12.342C45.2577 12.342 45.8006 12.1269 46.2234 11.7015C46.4736 11.4513 46.6288 11.1011 46.6838 10.6582H44.5096V9.7225H47.617L47.6295 9.80757C47.652 9.96519 47.6746 10.1278 47.6746 10.2779C47.6746 11.1411 47.4144 11.8391 46.899 12.3545C46.3135 12.965 45.5479 13.2752 44.6222 13.2752ZM80.5524 13.1426H79.5942L76.6594 8.44652L76.6845 9.29217V13.1401H75.7262V6.92284H76.8196L76.8496 6.97038L79.6092 11.3938L79.5842 10.5506V6.92284H80.5524V13.1426ZM64.445 13.1426H63.4743V7.85856H61.7905V6.92284H66.1263V7.85856H64.4425V13.1426H64.445ZM60.9999 13.1426H60.0316V6.92284H60.9999V13.1426ZM55.5582 13.1426H54.5899V7.85856H52.9061V6.92284H57.2419V7.85856H55.5582V13.1426ZM52.2931 13.1326H48.5803V6.92284H52.2931V7.85856H49.551V9.56488H52.0254V10.4906H49.551V12.1969H52.2931V13.1326ZM70.0769 11.689C70.5097 12.1219 71.0351 12.3395 71.6456 12.3395C72.2736 12.3395 72.7865 12.1269 73.2143 11.689C73.6396 11.2637 73.8548 10.7058 73.8548 10.0327C73.8548 9.35972 73.6396 8.79929 73.2168 8.37646C72.7839 7.94363 72.256 7.72596 71.6481 7.72596C71.0201 7.72596 70.5072 7.93862 70.0819 8.37646C69.6565 8.80179 69.4414 9.35972 69.4414 10.0327C69.4414 10.7058 69.654 11.2662 70.0769 11.689Z" fill="white"/>
<path fill-rule="evenodd" clip-rule="evenodd" d="M68.3551 21.8269C65.9908 21.8269 64.0743 23.6207 64.0743 26.0951C64.0743 28.547 66.0033 30.3634 68.3551 30.3634C70.7195 30.3634 72.636 28.557 72.636 26.0951C72.636 23.6207 70.7195 21.8269 68.3551 21.8269ZM68.3551 28.6721C67.0616 28.6721 65.9483 27.6013 65.9483 26.0851C65.9483 24.5465 67.0641 23.4981 68.3551 23.4981C69.6486 23.4981 70.762 24.5465 70.762 26.0851C70.7645 27.6113 69.6486 28.6721 68.3551 28.6721ZM59.0154 21.8269C56.6511 21.8269 54.7346 23.6207 54.7346 26.0951C54.7346 28.547 56.6636 30.3634 59.0154 30.3634C61.3797 30.3634 63.2962 28.557 63.2962 26.0951C63.2962 23.6207 61.3772 21.8269 59.0154 21.8269ZM59.0154 28.6721C57.7219 28.6721 56.6085 27.6013 56.6085 26.0851C56.6085 24.5465 57.7244 23.4981 59.0154 23.4981C60.3089 23.4981 61.4223 24.5465 61.4223 26.0851C61.4223 27.6113 60.3089 28.6721 59.0154 28.6721ZM47.9018 23.1304V24.9368H52.2376C52.105 25.95 51.7698 26.6981 51.2569 27.211C50.6214 27.8465 49.6406 28.537 47.9118 28.537C45.2472 28.537 43.1631 26.3854 43.1631 23.7208C43.1631 21.0563 45.2472 18.9046 47.9118 18.9046C49.3504 18.9046 50.3987 19.4725 51.1768 20.1981L52.4578 18.9171C51.377 17.8813 49.9384 17.0882 47.9218 17.0882C44.2665 17.0882 41.1991 20.0655 41.1991 23.7108C41.1991 27.3661 44.264 30.3334 47.9218 30.3334C49.8958 30.3334 51.377 29.6879 52.5479 28.472C53.7413 27.2786 54.1191 25.5948 54.1191 24.2362C54.1191 23.8134 54.0866 23.4331 54.019 23.1103H47.8993C47.9018 23.1078 47.9018 23.1304 47.9018 23.1304ZM93.3595 24.5364C93.0017 23.5782 91.9209 21.8168 89.7042 21.8168C87.5075 21.8168 85.6811 23.5457 85.6811 26.0851C85.6811 28.482 87.4875 30.3534 89.9168 30.3534C91.8684 30.3534 93.0042 29.16 93.4721 28.4595L92.0235 27.4887C91.5431 28.2018 90.8751 28.6696 89.9269 28.6696C88.9686 28.6696 88.2981 28.2343 87.8527 27.3761L93.5597 25.0118C93.5597 25.0143 93.3595 24.5364 93.3595 24.5364ZM87.54 25.9625C87.495 24.3138 88.821 23.4756 89.7692 23.4756C90.5173 23.4756 91.1403 23.8434 91.353 24.3788L87.54 25.9625ZM82.9039 30.0982H84.7779V17.5586H82.9039V30.0982ZM79.8265 22.7751H79.759C79.3362 22.2722 78.533 21.8168 77.5072 21.8168C75.3781 21.8168 73.4166 23.6908 73.4166 26.0977C73.4166 28.4945 75.3681 30.3459 77.5072 30.3459C78.5205 30.3459 79.3362 29.8881 79.759 29.3752H79.8265V29.9882C79.8265 31.6169 78.9559 32.4951 77.5523 32.4951C76.4039 32.4951 75.6908 31.6695 75.4006 30.9789L73.7718 31.6594C74.2397 32.7853 75.4882 34.1789 77.5498 34.1789C79.7465 34.1789 81.6079 32.8854 81.6079 29.7305V22.072H79.8365V22.7751C79.839 22.7751 79.8265 22.7751 79.8265 22.7751ZM77.6749 28.6721C76.3814 28.6721 75.3005 27.5913 75.3005 26.0977C75.3005 24.5915 76.3814 23.5006 77.6749 23.5006C78.9559 23.5006 79.9491 24.604 79.9491 26.0977C79.9616 27.5913 78.9584 28.6721 77.6749 28.6721ZM102.134 17.5586H97.6528V30.0982H99.5268V25.3496H102.136C104.21 25.3496 106.25 23.8459 106.25 21.4591C106.25 19.0722 104.218 17.5586 102.134 17.5586ZM102.189 23.5982H99.5243V19.2949H102.189C103.592 19.2949 104.386 20.4533 104.386 21.4466C104.386 22.4298 103.582 23.5982 102.189 23.5982ZM113.76 21.8043C112.399 21.8043 110.996 22.4073 110.415 23.7208L112.077 24.4113C112.434 23.7208 113.09 23.4856 113.783 23.4856C114.754 23.4856 115.734 24.0661 115.757 25.1019V25.2345C115.422 25.0443 114.686 24.7541 113.805 24.7541C112.011 24.7541 110.193 25.7349 110.193 27.5738C110.193 29.2576 111.664 30.3384 113.302 30.3384C114.561 30.3384 115.254 29.7705 115.687 29.1125H115.754V30.0832H117.561V25.2795C117.561 23.0428 115.899 21.8043 113.76 21.8043ZM113.525 28.6721C112.912 28.6721 112.054 28.3719 112.054 27.6013C112.054 26.6306 113.125 26.2628 114.038 26.2628C114.864 26.2628 115.254 26.4404 115.744 26.6856C115.609 27.8115 114.659 28.6621 113.525 28.6721ZM124.151 22.072L121.999 27.5112H121.932L119.702 22.072H117.686L121.031 29.6754L119.124 33.9012H121.076L126.222 22.072H124.151ZM107.283 30.0982H109.157V17.5586H107.283V30.0982Z" fill="white"/>
<path fill-rule="evenodd" clip-rule="evenodd" d="M10.4685 7.55834C10.1782 7.87108 10.0106 8.34895 10.0106 8.97443V31.159C10.0106 31.7845 10.1782 32.2624 10.4785 32.5626L10.556 32.6302L22.9856 20.2006V19.9229L10.546 7.49078L10.4685 7.55834Z" fill="url(#paint0_linear)"/>
<path fill-rule="evenodd" clip-rule="evenodd" d="M27.1211 24.3563L22.9753 20.2106V19.9204L27.1211 15.7747L27.2111 15.8297L32.115 18.6169C33.5185 19.4075 33.5185 20.7135 32.115 21.5141L27.2111 24.3013L27.1211 24.3563Z" fill="url(#paint1_linear)"/>
<path fill-rule="evenodd" clip-rule="evenodd" d="M27.2106 24.3013L22.9748 20.0655L10.4677 32.5726C10.9256 33.063 11.6937 33.1181 12.5518 32.6402L27.2106 24.3013Z" fill="url(#paint2_linear)"/>
<path fill-rule="evenodd" clip-rule="evenodd" d="M27.2106 15.8297L12.5518 7.50329C11.6937 7.01291 10.9231 7.08046 10.4677 7.57084L22.9748 20.0655L27.2106 15.8297Z" fill="url(#paint3_linear)"/>
<path opacity="0.2" fill-rule="evenodd" clip-rule="evenodd" d="M27.1212 24.2111L12.5623 32.4826C11.7492 32.9505 11.0236 32.9179 10.5558 32.4926L10.4782 32.5702L10.5558 32.6377C11.0236 33.0606 11.7492 33.0956 12.5623 32.6277L27.2212 24.3012L27.1212 24.2111Z" fill="black"/>
<path opacity="0.12" fill-rule="evenodd" clip-rule="evenodd" d="M32.1148 21.369L27.1084 24.2112L27.1985 24.3013L32.1023 21.5141C32.8053 21.1138 33.1506 20.5884 33.1506 20.0655C33.108 20.5459 32.7503 21.0012 32.1148 21.369Z" fill="black"/>
<path opacity="0.25" fill-rule="evenodd" clip-rule="evenodd" d="M12.5526 7.64841L32.1152 18.762C32.7507 19.1198 33.1085 19.5877 33.1635 20.0655C33.1635 19.5426 32.8182 19.0172 32.1152 18.6169L12.5526 7.5033C11.149 6.70017 10.0106 7.37069 10.0106 8.97444V9.11955C10.0106 7.5133 11.149 6.85529 12.5526 7.64841Z" fill="white"/>
</g>
<defs>
<linearGradient id="paint0_linear" x1="21.8707" y1="8.73508" x2="1.96066" y2="14.0401" gradientUnits="userSpaceOnUse">
<stop stop-color="#00A0FF"/>
<stop offset="0.00657" stop-color="#00A1FF"/>
<stop offset="0.2601" stop-color="#00BEFF"/>
<stop offset="0.5122" stop-color="#00D2FF"/>
<stop offset="0.7604" stop-color="#00DFFF"/>
<stop offset="1" stop-color="#00E3FF"/>
</linearGradient>
<linearGradient id="paint1_linear" x1="33.9454" y1="20.0655" x2="9.66911" y2="20.0655" gradientUnits="userSpaceOnUse">
<stop stop-color="#FFE000"/>
<stop offset="0.4087" stop-color="#FFBD00"/>
<stop offset="0.7754" stop-color="#FFA500"/>
<stop offset="1" stop-color="#FF9C00"/>
</linearGradient>
<linearGradient id="paint2_linear" x1="24.9074" y1="22.3704" x2="8.92365" y2="49.2722" gradientUnits="userSpaceOnUse">
<stop stop-color="#FF3A44"/>
<stop offset="1" stop-color="#C31162"/>
</linearGradient>
<linearGradient id="paint3_linear" x1="7.31828" y1="0.179372" x2="14.4493" y2="12.1942" gradientUnits="userSpaceOnUse">
<stop stop-color="#32A071"/>
<stop offset="0.0685" stop-color="#2DA771"/>
<stop offset="0.4762" stop-color="#15CF74"/>
<stop offset="0.8009" stop-color="#06E775"/>
<stop offset="1" stop-color="#00F076"/>
</linearGradient>
<clipPath id="clip0">
<rect width="136" height="40.131" fill="white"/>
</clipPath>
</defs>
</svg>
