<svg width="74" height="80" viewBox="0 0 74 80" fill="none" xmlns="http://www.w3.org/2000/svg">
<path d="M72.0562 77.3034H69.8091V6.74156C69.8091 5.99672 69.2053 5.39328 68.4608 5.39328H43.2922C42.5475 5.39328 41.9439 5.99672 41.9439 6.74156V12.5842H39.2473V6.74156C39.2473 5.99672 38.6436 5.39328 37.8991 5.39328H32.0562V1.34828C32.0562 0.603437 31.4525 0 30.708 0C29.9634 0 29.3597 0.603437 29.3597 1.34828V5.39328H23.517C22.7723 5.39328 22.1687 5.99672 22.1687 6.74156V12.5842H18.1237C17.3791 12.5842 16.7755 13.1877 16.7755 13.9325V25.1684H5.53952C4.79483 25.1684 4.19124 25.7719 4.19124 26.5167V77.3033H1.94374C1.19905 77.3033 0.595459 77.9067 0.595459 78.6516C0.595459 79.3964 1.19921 80 1.94374 80H72.0562C72.8009 80 73.4045 79.3966 73.4045 78.6517C73.4045 77.9069 72.8008 77.3034 72.0562 77.3034ZM24.8651 8.08984H36.5505V12.5842H24.8651V8.08984ZM20.3708 77.3034H19.4719V75.0562C19.4719 74.3114 18.8681 73.708 18.1236 73.708C17.3791 73.708 16.7753 74.3114 16.7753 75.0562V77.3034H15.8764V72.8091H20.3708V77.3034ZM29.3595 42.6966V45.0161V77.3034H23.0673V71.4608C23.0673 70.7159 22.4636 70.1125 21.7191 70.1125H14.5281C13.7834 70.1125 13.1798 70.7159 13.1798 71.4608V77.3034H6.88765V27.8652H29.3595V42.6966ZM30.7078 25.1686H19.4719V15.2809H41.9437V41.3483H32.0562V36.8539H36.1012C36.8459 36.8539 37.4495 36.2505 37.4495 35.5056C37.4495 34.7608 36.8458 34.1573 36.1012 34.1573H32.0562V29.663H36.1012C36.8459 29.663 37.4495 29.0595 37.4495 28.3147C37.4495 27.5698 36.8458 26.9664 36.1012 26.9664H32.0562V26.517C32.0562 25.772 31.4525 25.1686 30.7078 25.1686ZM54.5281 77.3034H32.0562V45.0161V44.045H54.5281V77.3034ZM67.1123 77.3034H57.2247V42.6966V40.8988C57.2247 40.1539 56.6209 39.5505 55.8764 39.5505C55.1319 39.5505 54.5281 40.1539 54.5281 40.8988V41.3481H51.8316V40.8988C51.8316 40.1539 51.2278 39.5505 50.4833 39.5505C49.7387 39.5505 49.135 40.1539 49.135 40.8988V41.3481H44.6406V13.9327V8.08984H67.1125V77.3034H67.1123Z" fill="#20A052"/>
</svg>
