<svg width="80" height="80" viewBox="0 0 80 80" fill="none" xmlns="http://www.w3.org/2000/svg">
<path d="M75.0565 77.3034H72.8093V6.74156C72.8093 5.99672 72.2056 5.39328 71.461 5.39328H46.2924C45.5477 5.39328 44.9441 5.99672 44.9441 6.74156V12.5842H42.2476V6.74156C42.2476 5.99672 41.6438 5.39328 40.8993 5.39328H35.0565V1.34828C35.0565 0.603437 34.4527 0 33.7082 0C32.9637 0 32.3599 0.603437 32.3599 1.34828V5.39328H26.5173C25.7726 5.39328 25.169 5.99672 25.169 6.74156V12.5842H21.124C20.3793 12.5842 19.7757 13.1877 19.7757 13.9325V25.1684H8.53977C7.79508 25.1684 7.19148 25.7719 7.19148 26.5167V77.3033H4.94398C4.1993 77.3033 3.5957 77.9067 3.5957 78.6516C3.5957 79.3964 4.19945 80 4.94398 80H75.0565C75.8012 80 76.4048 79.3966 76.4048 78.6517C76.4048 77.9069 75.801 77.3034 75.0565 77.3034ZM27.8654 8.08984H39.5507V12.5842H27.8654V8.08984ZM23.371 77.3034H22.4721V75.0562C22.4721 74.3114 21.8684 73.708 21.1238 73.708C20.3793 73.708 19.7755 74.3114 19.7755 75.0562V77.3034H18.8766V72.8091H23.371V77.3034ZM32.3598 42.6966V45.0161V77.3034H26.0676V71.4608C26.0676 70.7159 25.4638 70.1125 24.7193 70.1125H17.5284C16.7837 70.1125 16.1801 70.7159 16.1801 71.4608V77.3034H9.88789V27.8652H32.3598V42.6966ZM33.708 25.1686H22.4721V15.2809H44.944V41.3483H35.0565V36.8539H39.1015C39.8462 36.8539 40.4498 36.2505 40.4498 35.5056C40.4498 34.7608 39.846 34.1573 39.1015 34.1573H35.0565V29.663H39.1015C39.8462 29.663 40.4498 29.0595 40.4498 28.3147C40.4498 27.5698 39.846 26.9664 39.1015 26.9664H35.0565V26.517C35.0565 25.772 34.4527 25.1686 33.708 25.1686ZM57.5284 77.3034H35.0565V45.0161V44.045H57.5284V77.3034ZM70.1126 77.3034H60.2249V42.6966V40.8988C60.2249 40.1539 59.6212 39.5505 58.8766 39.5505C58.1321 39.5505 57.5284 40.1539 57.5284 40.8988V41.3481H54.8318V40.8988C54.8318 40.1539 54.2281 39.5505 53.4835 39.5505C52.739 39.5505 52.1352 40.1539 52.1352 40.8988V41.3481H47.6409V13.9327V8.08984H70.1127V77.3034H70.1126Z" fill="#20A052"/>
<path d="M40.8991 74.6071C41.6437 74.6071 42.2473 74.0034 42.2473 73.2588V48.0904C42.2473 47.3456 41.6436 46.7421 40.8991 46.7421C40.1545 46.7421 39.5508 47.3456 39.5508 48.0904V73.259C39.5508 74.0035 40.1544 74.6071 40.8991 74.6071Z" fill="#20A052"/>
<path d="M46.2926 74.6071C47.0373 74.6071 47.6409 74.0034 47.6409 73.2588V48.0904C47.6409 47.3456 47.0371 46.7421 46.2926 46.7421C45.5481 46.7421 44.9443 47.3456 44.9443 48.0904V73.259C44.9442 74.0035 45.5479 74.6071 46.2926 74.6071Z" fill="#20A052"/>
<path d="M51.6857 74.6071C52.4304 74.6071 53.034 74.0034 53.034 73.2588V48.0904C53.034 47.3456 52.4302 46.7421 51.6857 46.7421C50.9412 46.7421 50.3374 47.3456 50.3374 48.0904V73.259C50.3374 74.0035 50.9412 74.6071 51.6857 74.6071Z" fill="#20A052"/>
<path d="M53.483 17.0785C54.2277 17.0785 54.8313 16.4751 54.8313 15.7302V13.9326C54.8313 13.1877 54.2276 12.5843 53.483 12.5843C52.7385 12.5843 52.1348 13.1877 52.1348 13.9326V15.7304C52.1348 16.4751 52.7384 17.0785 53.483 17.0785Z" fill="#20A052"/>
<path d="M58.8766 17.0785C59.6213 17.0785 60.2249 16.4751 60.2249 15.7302V13.9326C60.2249 13.1877 59.6211 12.5843 58.8766 12.5843C58.1321 12.5843 57.5283 13.1877 57.5283 13.9326V15.7304C57.5283 16.4751 58.1319 17.0785 58.8766 17.0785Z" fill="#20A052"/>
<path d="M64.2697 17.0785C65.0144 17.0785 65.618 16.4751 65.618 15.7302V13.9326C65.618 13.1877 65.0142 12.5843 64.2697 12.5843C63.5251 12.5843 62.9214 13.1877 62.9214 13.9326V15.7304C62.9214 16.4751 63.525 17.0785 64.2697 17.0785Z" fill="#20A052"/>
<path d="M53.483 26.0673C54.2277 26.0673 54.8313 25.4639 54.8313 24.719V22.9212C54.8313 22.1764 54.2276 21.5729 53.483 21.5729C52.7385 21.5729 52.1348 22.1764 52.1348 22.9212V24.719C52.1348 25.4639 52.7384 26.0673 53.483 26.0673Z" fill="#20A052"/>
<path d="M58.8766 26.0673C59.6213 26.0673 60.2249 25.4639 60.2249 24.719V22.9212C60.2249 22.1764 59.6211 21.5729 58.8766 21.5729C58.1321 21.5729 57.5283 22.1764 57.5283 22.9212V24.719C57.5283 25.4639 58.1319 26.0673 58.8766 26.0673Z" fill="#20A052"/>
<path d="M64.2697 26.0673C65.0144 26.0673 65.618 25.4639 65.618 24.719V22.9212C65.618 22.1764 65.0142 21.5729 64.2697 21.5729C63.5251 21.5729 62.9214 22.1764 62.9214 22.9212V24.719C62.9214 25.4639 63.525 26.0673 64.2697 26.0673Z" fill="#20A052"/>
<path d="M53.483 35.0563C54.2277 35.0563 54.8313 34.4529 54.8313 33.7081V31.9102C54.8313 31.1654 54.2276 30.562 53.483 30.562C52.7385 30.562 52.1348 31.1654 52.1348 31.9102V33.7081C52.1348 34.4527 52.7384 35.0563 53.483 35.0563Z" fill="#20A052"/>
<path d="M58.8766 35.0563C59.6213 35.0563 60.2249 34.4529 60.2249 33.7081V31.9102C60.2249 31.1654 59.6211 30.562 58.8766 30.562C58.1321 30.562 57.5283 31.1654 57.5283 31.9102V33.7081C57.5283 34.4527 58.1319 35.0563 58.8766 35.0563Z" fill="#20A052"/>
<path d="M64.2697 35.0563C65.0144 35.0563 65.618 34.4529 65.618 33.7081V31.9102C65.618 31.1654 65.0142 30.562 64.2697 30.562C63.5251 30.562 62.9214 31.1654 62.9214 31.9102V33.7081C62.9214 34.4527 63.525 35.0563 64.2697 35.0563Z" fill="#20A052"/>
<path d="M15.7306 38.6519C16.4753 38.6519 17.0789 38.0484 17.0789 37.3036V35.5058C17.0789 34.7609 16.4751 34.1575 15.7306 34.1575C14.9861 34.1575 14.3823 34.7609 14.3823 35.5058V37.3036C14.3823 38.0483 14.9861 38.6519 15.7306 38.6519Z" fill="#20A052"/>
<path d="M21.1237 38.6519C21.8684 38.6519 22.472 38.0484 22.472 37.3036V35.5058C22.472 34.7609 21.8682 34.1575 21.1237 34.1575C20.3791 34.1575 19.7754 34.7609 19.7754 35.5058V37.3036C19.7754 38.0483 20.379 38.6519 21.1237 38.6519Z" fill="#20A052"/>
<path d="M26.5172 38.6519C27.2619 38.6519 27.8655 38.0484 27.8655 37.3036V35.5058C27.8655 34.7609 27.2618 34.1575 26.5172 34.1575C25.7727 34.1575 25.1689 34.7609 25.1689 35.5058V37.3036C25.1689 38.0483 25.7725 38.6519 26.5172 38.6519Z" fill="#20A052"/>
<path d="M15.7306 47.6405C16.4753 47.6405 17.0789 47.037 17.0789 46.2922V44.4944C17.0789 43.7495 16.4751 43.1461 15.7306 43.1461C14.9861 43.1461 14.3823 43.7495 14.3823 44.4944V46.2922C14.3823 47.0369 14.9861 47.6405 15.7306 47.6405Z" fill="#20A052"/>
<path d="M21.1237 47.6405C21.8684 47.6405 22.472 47.037 22.472 46.2922V44.4944C22.472 43.7495 21.8682 43.1461 21.1237 43.1461C20.3791 43.1461 19.7754 43.7495 19.7754 44.4944V46.2922C19.7754 47.0369 20.379 47.6405 21.1237 47.6405Z" fill="#20A052"/>
<path d="M26.5172 47.6405C27.2619 47.6405 27.8655 47.037 27.8655 46.2922V44.4944C27.8655 43.7495 27.2618 43.1461 26.5172 43.1461C25.7727 43.1461 25.1689 43.7495 25.1689 44.4944V46.2922C25.1689 47.0369 25.7725 47.6405 26.5172 47.6405Z" fill="#20A052"/>
<path d="M15.7306 56.6293C16.4753 56.6293 17.0789 56.0258 17.0789 55.281V53.4832C17.0789 52.7383 16.4751 52.1349 15.7306 52.1349C14.9861 52.1349 14.3823 52.7383 14.3823 53.4832V55.281C14.3823 56.0258 14.9861 56.6293 15.7306 56.6293Z" fill="#20A052"/>
<path d="M21.1237 56.6293C21.8684 56.6293 22.472 56.0258 22.472 55.281V53.4832C22.472 52.7383 21.8682 52.1349 21.1237 52.1349C20.3791 52.1349 19.7754 52.7383 19.7754 53.4832V55.281C19.7754 56.0258 20.379 56.6293 21.1237 56.6293Z" fill="#20A052"/>
<path d="M26.5172 56.6293C27.2619 56.6293 27.8655 56.0258 27.8655 55.281V53.4832C27.8655 52.7383 27.2618 52.1349 26.5172 52.1349C25.7727 52.1349 25.1689 52.7383 25.1689 53.4832V55.281C25.1689 56.0258 25.7725 56.6293 26.5172 56.6293Z" fill="#20A052"/>
<path d="M15.7306 65.6179C16.4753 65.6179 17.0789 65.0145 17.0789 64.2696V62.4718C17.0789 61.727 16.4751 61.1235 15.7306 61.1235C14.9861 61.1235 14.3823 61.727 14.3823 62.4718V64.2696C14.3823 65.0145 14.9861 65.6179 15.7306 65.6179Z" fill="#20A052"/>
<path d="M21.1237 65.6179C21.8684 65.6179 22.472 65.0145 22.472 64.2696V62.4718C22.472 61.727 21.8682 61.1235 21.1237 61.1235C20.3791 61.1235 19.7754 61.727 19.7754 62.4718V64.2696C19.7754 65.0145 20.379 65.6179 21.1237 65.6179Z" fill="#20A052"/>
<path d="M26.5172 65.6179C27.2619 65.6179 27.8655 65.0145 27.8655 64.2696V62.4718C27.8655 61.727 27.2618 61.1235 26.5172 61.1235C25.7727 61.1235 25.1689 61.727 25.1689 62.4718V64.2696C25.1689 65.0145 25.7725 65.6179 26.5172 65.6179Z" fill="#20A052"/>
<path d="M64.2697 44.0449C65.0144 44.0449 65.618 43.4415 65.618 42.6967V40.8988C65.618 40.154 65.0142 39.5506 64.2697 39.5506C63.5251 39.5506 62.9214 40.154 62.9214 40.8988V42.6967C62.9214 43.4413 63.525 44.0449 64.2697 44.0449Z" fill="#20A052"/>
<path d="M64.2697 53.0338C65.0144 53.0338 65.618 52.4304 65.618 51.6855V49.8877C65.618 49.1429 65.0142 48.5394 64.2697 48.5394C63.5251 48.5394 62.9214 49.1429 62.9214 49.8877V51.6855C62.9214 52.4302 63.525 53.0338 64.2697 53.0338Z" fill="#20A052"/>
<path d="M64.2697 62.0226C65.0144 62.0226 65.618 61.4192 65.618 60.6743V58.8765C65.618 58.1317 65.0142 57.5282 64.2697 57.5282C63.5251 57.5282 62.9214 58.1317 62.9214 58.8765V60.6743C62.9214 61.419 63.525 62.0226 64.2697 62.0226Z" fill="#20A052"/>
<path d="M64.2697 71.0113C65.0144 71.0113 65.618 70.4078 65.618 69.663V67.8652C65.618 67.1203 65.0142 66.5169 64.2697 66.5169C63.5251 66.5169 62.9214 67.1203 62.9214 67.8652V69.663C62.9214 70.4077 63.525 71.0113 64.2697 71.0113Z" fill="#20A052"/>
<path d="M40.4495 21.1236C40.4495 20.3787 39.8457 19.7753 39.1012 19.7753H28.3146C27.5699 19.7753 26.9663 20.3787 26.9663 21.1236C26.9663 21.8684 27.5701 22.4719 28.3146 22.4719H39.1012C39.8459 22.4719 40.4495 21.8684 40.4495 21.1236Z" fill="#20A052"/>
</svg>
