<svg width="14" height="14" viewBox="0 0 14 14" fill="none" xmlns="http://www.w3.org/2000/svg">
<path d="M13.2591 0.533325L0.722478 4.71199C0.657588 4.7335 0.600881 4.77444 0.560041 4.82926C0.519202 4.88408 0.496204 4.95013 0.494167 5.01846C0.492129 5.08679 0.51115 5.1541 0.548651 5.21125C0.586151 5.26841 0.640319 5.31265 0.703811 5.33799L6.52581 7.66666L9.47581 13.5667C9.50583 13.6267 9.5533 13.6763 9.61199 13.709C9.67069 13.7416 9.73788 13.7558 9.80475 13.7496C9.87163 13.7434 9.93507 13.7171 9.98677 13.6743C10.0385 13.6314 10.076 13.5739 10.0945 13.5093L13.6858 0.940658C13.7024 0.882268 13.7028 0.820443 13.6869 0.761856C13.671 0.70327 13.6393 0.650148 13.5954 0.608223C13.5515 0.566298 13.497 0.537164 13.4377 0.523964C13.3784 0.510765 13.3167 0.514001 13.2591 0.533325Z" fill="#20A052"/>
</svg>
