<svg width="106" height="24" viewBox="0 0 106 24" fill="none" xmlns="http://www.w3.org/2000/svg">
<path d="M0.24 0.599998H10.96C13.584 0.599998 15.4933 1.12267 16.688 2.168C17.8827 3.192 18.48 4.664 18.48 6.584C18.48 7.736 18.1813 8.728 17.584 9.56C16.9867 10.3707 16.176 10.9573 15.152 11.32C16.4747 11.6187 17.52 12.2267 18.288 13.144C19.056 14.04 19.44 15.2133 19.44 16.664C19.44 18.6267 18.7893 20.1733 17.488 21.304C16.208 22.4347 14.1387 23 11.28 23H0.24V0.599998ZM10 18.584C11.3867 18.584 12.3467 18.3813 12.88 17.976C13.4133 17.5493 13.68 16.8987 13.68 16.024C13.68 15.1493 13.4027 14.4987 12.848 14.072C12.3147 13.6453 11.344 13.432 9.936 13.432H6V18.584H10ZM9.552 9.528C10.7893 9.528 11.6213 9.336 12.048 8.952C12.496 8.54667 12.72 7.98133 12.72 7.256C12.72 6.50933 12.496 5.95467 12.048 5.592C11.6213 5.208 10.8 5.016 9.584 5.016H6V9.528H9.552ZM27.4425 23.416C26.5252 23.416 25.7038 23.2773 24.9785 23C24.2745 22.7227 23.6772 22.3493 23.1865 21.88C22.6958 21.3893 22.3225 20.824 22.0665 20.184C21.8105 19.5227 21.6825 18.808 21.6825 18.04C21.6825 16.3547 22.1945 15.064 23.2185 14.168C24.2638 13.272 25.8318 12.824 27.9225 12.824H32.7545V12.12C32.7545 11.096 32.5092 10.392 32.0185 10.008C31.5278 9.60267 30.8558 9.4 30.0025 9.4C29.1918 9.4 28.5945 9.528 28.2105 9.784C27.8265 10.04 27.6132 10.4453 27.5705 11H22.6425C22.6852 10.232 22.8772 9.528 23.2185 8.888C23.5598 8.22667 24.0398 7.66133 24.6585 7.192C25.2985 6.70133 26.0772 6.31733 26.9945 6.04C27.9118 5.76267 28.9678 5.624 30.1625 5.624C31.2718 5.624 32.2852 5.752 33.2025 6.008C34.1412 6.24267 34.9412 6.63733 35.6025 7.192C36.2638 7.72533 36.7758 8.42933 37.1385 9.304C37.5012 10.1573 37.6825 11.2027 37.6825 12.44V18.68C37.6825 19.576 37.7038 20.3653 37.7465 21.048C37.7892 21.7093 37.8532 22.36 37.9385 23H33.2665C33.2238 22.6373 33.1812 22.3173 33.1385 22.04C33.1172 21.7627 33.1065 21.4213 33.1065 21.016C32.5945 21.6987 31.8798 22.2747 30.9625 22.744C30.0665 23.192 28.8932 23.416 27.4425 23.416ZM29.0425 19.96C30.0878 19.96 30.9625 19.6613 31.6665 19.064C32.3918 18.4667 32.7545 17.6453 32.7545 16.6V15.896H28.8825C28.1572 15.896 27.6132 16.088 27.2505 16.472C26.9092 16.856 26.7385 17.304 26.7385 17.816C26.7385 18.4347 26.9092 18.9467 27.2505 19.352C27.6132 19.7573 28.2105 19.96 29.0425 19.96ZM40.725 6.04H45.269V8.344C45.397 8.06667 45.589 7.768 45.845 7.448C46.1223 7.128 46.4423 6.82933 46.805 6.552C47.1677 6.27467 47.573 6.05067 48.021 5.88C48.4903 5.70933 48.9917 5.624 49.525 5.624C49.8877 5.624 50.1757 5.64533 50.389 5.688C50.6023 5.73067 50.7943 5.77333 50.965 5.816V10.072C50.8583 10.008 50.613 9.93333 50.229 9.848C49.845 9.76267 49.397 9.72 48.885 9.72C47.7543 9.72 46.933 10.0507 46.421 10.712C45.909 11.3733 45.653 12.1733 45.653 13.112V23H40.725V6.04ZM58.005 23.416C57.0877 23.416 56.2663 23.2773 55.541 23C54.837 22.7227 54.2397 22.3493 53.749 21.88C53.2583 21.3893 52.885 20.824 52.629 20.184C52.373 19.5227 52.245 18.808 52.245 18.04C52.245 16.3547 52.757 15.064 53.781 14.168C54.8263 13.272 56.3943 12.824 58.485 12.824H63.317V12.12C63.317 11.096 63.0717 10.392 62.581 10.008C62.0903 9.60267 61.4183 9.4 60.565 9.4C59.7543 9.4 59.157 9.528 58.773 9.784C58.389 10.04 58.1757 10.4453 58.133 11H53.205C53.2477 10.232 53.4397 9.528 53.781 8.888C54.1223 8.22667 54.6023 7.66133 55.221 7.192C55.861 6.70133 56.6397 6.31733 57.557 6.04C58.4743 5.76267 59.5303 5.624 60.725 5.624C61.8343 5.624 62.8477 5.752 63.765 6.008C64.7037 6.24267 65.5037 6.63733 66.165 7.192C66.8263 7.72533 67.3383 8.42933 67.701 9.304C68.0637 10.1573 68.245 11.2027 68.245 12.44V18.68C68.245 19.576 68.2663 20.3653 68.309 21.048C68.3517 21.7093 68.4157 22.36 68.501 23H63.829C63.7863 22.6373 63.7437 22.3173 63.701 22.04C63.6797 21.7627 63.669 21.4213 63.669 21.016C63.157 21.6987 62.4423 22.2747 61.525 22.744C60.629 23.192 59.4557 23.416 58.005 23.416ZM59.605 19.96C60.6503 19.96 61.525 19.6613 62.229 19.064C62.9543 18.4667 63.317 17.6453 63.317 16.6V15.896H59.445C58.7197 15.896 58.1757 16.088 57.813 16.472C57.4717 16.856 57.301 17.304 57.301 17.816C57.301 18.4347 57.4717 18.9467 57.813 19.352C58.1757 19.7573 58.773 19.96 59.605 19.96ZM71.2875 0.599998H76.2155V12.568L81.6875 6.04H87.2555L81.3035 13.176L87.9275 23H82.2315L77.9755 16.6L76.2155 18.648V23H71.2875V0.599998ZM94.8175 23.416C93.9002 23.416 93.0788 23.2773 92.3535 23C91.6495 22.7227 91.0522 22.3493 90.5615 21.88C90.0708 21.3893 89.6975 20.824 89.4415 20.184C89.1855 19.5227 89.0575 18.808 89.0575 18.04C89.0575 16.3547 89.5695 15.064 90.5935 14.168C91.6388 13.272 93.2068 12.824 95.2975 12.824H100.13V12.12C100.13 11.096 99.8842 10.392 99.3935 10.008C98.9028 9.60267 98.2308 9.4 97.3775 9.4C96.5668 9.4 95.9695 9.528 95.5855 9.784C95.2015 10.04 94.9882 10.4453 94.9455 11H90.0175C90.0602 10.232 90.2522 9.528 90.5935 8.888C90.9348 8.22667 91.4148 7.66133 92.0335 7.192C92.6735 6.70133 93.4522 6.31733 94.3695 6.04C95.2868 5.76267 96.3428 5.624 97.5375 5.624C98.6468 5.624 99.6602 5.752 100.578 6.008C101.516 6.24267 102.316 6.63733 102.978 7.192C103.639 7.72533 104.151 8.42933 104.514 9.304C104.876 10.1573 105.058 11.2027 105.058 12.44V18.68C105.058 19.576 105.079 20.3653 105.122 21.048C105.164 21.7093 105.228 22.36 105.314 23H100.642C100.599 22.6373 100.556 22.3173 100.514 22.04C100.492 21.7627 100.482 21.4213 100.482 21.016C99.9695 21.6987 99.2548 22.2747 98.3375 22.744C97.4415 23.192 96.2682 23.416 94.8175 23.416ZM96.4175 19.96C97.4628 19.96 98.3375 19.6613 99.0415 19.064C99.7668 18.4667 100.13 17.6453 100.13 16.6V15.896H96.2575C95.5322 15.896 94.9882 16.088 94.6255 16.472C94.2842 16.856 94.1135 17.304 94.1135 17.816C94.1135 18.4347 94.2842 18.9467 94.6255 19.352C94.9882 19.7573 95.5855 19.96 96.4175 19.96Z" fill="#53B374"/>
</svg>
