<svg width="136" height="41" viewBox="0 0 136 41" fill="none" xmlns="http://www.w3.org/2000/svg">
<g clip-path="url(#clip0_443_970)">
<path fill-rule="evenodd" clip-rule="evenodd" d="M130.961 40.131H5.03889C2.26175 40.131 0 37.8692 0 35.1146V5.01637C0 2.25174 2.26175 0 5.03889 0H130.961C133.736 0 136 2.25174 136 5.01637V35.1146C136 37.8692 133.736 40.131 130.961 40.131Z" fill="black"/>
<path fill-rule="evenodd" clip-rule="evenodd" d="M130.961 0.80312C133.29 0.80312 135.197 2.69708 135.197 5.01637V35.1146C135.197 37.4339 133.303 39.3279 130.961 39.3279H5.03889C2.70959 39.3279 0.80312 37.4339 0.80312 35.1146V5.01637C0.80312 2.69708 2.69708 0.80312 5.03889 0.80312H130.961ZM130.961 0H5.03889C2.26175 0 0 2.26175 0 5.01637V35.1146C0 37.8792 2.26175 40.131 5.03889 40.131H130.961C133.736 40.131 136 37.8792 136 35.1146V5.01637C136 2.26175 133.736 0 130.961 0Z" fill="#A6A6A6"/>
<path d="M71.6455 13.2751C70.7373 13.2751 69.9717 12.9574 69.3662 12.3319C68.7658 11.7239 68.4305 10.8858 68.4455 10.0301C68.4455 9.1169 68.7558 8.3438 69.3662 7.73083C69.9692 7.10534 70.7348 6.7876 71.643 6.7876C72.5412 6.7876 73.3068 7.10534 73.9223 7.73083C74.5327 8.36382 74.843 9.13691 74.843 10.0301C74.833 10.9458 74.5227 11.7189 73.9223 12.3294C73.3193 12.9599 72.5537 13.2751 71.6455 13.2751ZM44.6221 13.2751C43.734 13.2751 42.9634 12.9624 42.3329 12.3444C41.7074 11.7289 41.3896 10.9508 41.3896 10.0326C41.3896 9.11439 41.7074 8.33629 42.3329 7.72082C42.9509 7.10284 43.7214 6.7901 44.6221 6.7901C45.0625 6.7901 45.4903 6.87767 45.9006 7.0553C46.3034 7.22794 46.6312 7.46312 46.8739 7.75084L46.9339 7.8234L46.2559 8.48891L46.1859 8.40635C45.8031 7.951 45.2902 7.72832 44.6121 7.72832C44.0067 7.72832 43.4788 7.94349 43.0434 8.36882C42.6056 8.79665 42.3829 9.35708 42.3829 10.0351C42.3829 10.7131 42.6056 11.2736 43.0434 11.7014C43.4788 12.1267 44.0067 12.3419 44.6121 12.3419C45.2576 12.3419 45.8006 12.1267 46.2234 11.7014C46.4736 11.4512 46.6287 11.1009 46.6837 10.6581H44.5096V9.72236H47.617L47.6295 9.80743C47.652 9.96505 47.6745 10.1277 47.6745 10.2778C47.6745 11.141 47.4143 11.839 46.8989 12.3544C46.3134 12.9649 45.5479 13.2751 44.6221 13.2751ZM80.5524 13.1425H79.5941L76.6594 8.44638L76.6844 9.29203V13.14H75.7262V6.9227H76.8195L76.8495 6.97024L79.6092 11.3937L79.5841 10.5505V6.9227H80.5524V13.1425ZM64.445 13.1425H63.4742V7.85843H61.7904V6.9227H66.1262V7.85843H64.4424V13.1425H64.445ZM60.9998 13.1425H60.0315V6.9227H60.9998V13.1425ZM55.5581 13.1425H54.5898V7.85843H52.906V6.9227H57.2419V7.85843H55.5581V13.1425ZM52.2931 13.1325H48.5802V6.9227H52.2931V7.85843H49.5509V9.56474H52.0254V10.4905H49.5509V12.1968H52.2931V13.1325ZM70.0768 11.6889C70.5096 12.1217 71.035 12.3394 71.6455 12.3394C72.2735 12.3394 72.7864 12.1267 73.2142 11.6889C73.6395 11.2636 73.8547 10.7056 73.8547 10.0326C73.8547 9.35958 73.6395 8.79915 73.2167 8.37632C72.7839 7.94349 72.256 7.72582 71.648 7.72582C71.02 7.72582 70.5071 7.93849 70.0818 8.37632C69.6565 8.80165 69.4413 9.35958 69.4413 10.0326C69.4413 10.7056 69.654 11.2661 70.0768 11.6889Z" fill="white"/>
<path fill-rule="evenodd" clip-rule="evenodd" d="M68.355 21.827C65.9907 21.827 64.0742 23.6209 64.0742 26.0953C64.0742 28.5472 66.0032 30.3636 68.355 30.3636C70.7194 30.3636 72.6358 28.5572 72.6358 26.0953C72.6358 23.6209 70.7194 21.827 68.355 21.827ZM68.355 28.6723C67.0615 28.6723 65.9482 27.6015 65.9482 26.0853C65.9482 24.5466 67.064 23.4983 68.355 23.4983C69.6485 23.4983 70.7619 24.5466 70.7619 26.0853C70.7644 27.6115 69.6485 28.6723 68.355 28.6723ZM59.0153 21.827C56.651 21.827 54.7345 23.6209 54.7345 26.0953C54.7345 28.5472 56.6635 30.3636 59.0153 30.3636C61.3796 30.3636 63.2961 28.5572 63.2961 26.0953C63.2961 23.6209 61.3771 21.827 59.0153 21.827ZM59.0153 28.6723C57.7218 28.6723 56.6084 27.6015 56.6084 26.0853C56.6084 24.5466 57.7243 23.4983 59.0153 23.4983C60.3088 23.4983 61.4221 24.5466 61.4221 26.0853C61.4221 27.6115 60.3088 28.6723 59.0153 28.6723ZM47.9017 23.1305V24.9369H52.2375C52.1049 25.9502 51.7697 26.6983 51.2568 27.2112C50.6213 27.8467 49.6405 28.5372 47.9117 28.5372C45.2471 28.5372 43.163 26.3856 43.163 23.721C43.163 21.0564 45.2471 18.9048 47.9117 18.9048C49.3503 18.9048 50.3986 19.4727 51.1767 20.1983L52.4577 18.9173C51.3769 17.8815 49.9382 17.0884 47.9217 17.0884C44.2664 17.0884 41.199 20.0657 41.199 23.711C41.199 27.3663 44.2639 30.3336 47.9217 30.3336C49.8957 30.3336 51.3769 29.6881 52.5478 28.4722C53.7412 27.2787 54.119 25.5949 54.119 24.2364C54.119 23.8136 54.0865 23.4333 54.0189 23.1105H47.8992C47.9017 23.108 47.9017 23.1305 47.9017 23.1305ZM93.3594 24.5366C93.0016 23.5784 91.9208 21.817 89.7041 21.817C87.5074 21.817 85.681 23.5459 85.681 26.0853C85.681 28.4822 87.4873 30.3536 89.9167 30.3536C91.8682 30.3536 93.0041 29.1602 93.472 28.4597L92.0234 27.4889C91.543 28.202 90.875 28.6698 89.9267 28.6698C88.9685 28.6698 88.298 28.2345 87.8526 27.3763L93.5596 25.012C93.5596 25.0145 93.3594 24.5366 93.3594 24.5366ZM87.5399 25.9627C87.4949 24.314 88.8209 23.4758 89.7691 23.4758C90.5172 23.4758 91.1402 23.8436 91.3528 24.379L87.5399 25.9627ZM82.9038 30.0984H84.7777V17.5587H82.9038V30.0984ZM79.8264 22.7753H79.7589C79.336 22.2724 78.5329 21.817 77.5071 21.817C75.378 21.817 73.4164 23.691 73.4164 26.0978C73.4164 28.4947 75.368 30.3461 77.5071 30.3461C78.5204 30.3461 79.336 29.8883 79.7589 29.3754H79.8264V29.9883C79.8264 31.6171 78.9557 32.4953 77.5521 32.4953C76.4038 32.4953 75.6907 31.6696 75.4005 30.9791L73.7717 31.6596C74.2396 32.7855 75.488 34.1791 77.5496 34.1791C79.7463 34.1791 81.6078 32.8856 81.6078 29.7306V22.0722H79.8364V22.7753C79.8389 22.7753 79.8264 22.7753 79.8264 22.7753ZM77.6747 28.6723C76.3812 28.6723 75.3004 27.5915 75.3004 26.0978C75.3004 24.5917 76.3812 23.5008 77.6747 23.5008C78.9557 23.5008 79.949 24.6042 79.949 26.0978C79.9615 27.5915 78.9582 28.6723 77.6747 28.6723ZM102.134 17.5587H97.6527V30.0984H99.5267V25.3498H102.136C104.21 25.3498 106.249 23.8461 106.249 21.4593C106.249 19.0724 104.218 17.5587 102.134 17.5587ZM102.189 23.5984H99.5242V19.2951H102.189C103.592 19.2951 104.385 20.4535 104.385 21.4467C104.385 22.43 103.582 23.5984 102.189 23.5984ZM113.76 21.8045C112.399 21.8045 110.996 22.4075 110.415 23.721L112.076 24.4115C112.434 23.721 113.09 23.4858 113.783 23.4858C114.753 23.4858 115.734 24.0663 115.757 25.1021V25.2347C115.422 25.0445 114.686 24.7543 113.805 24.7543C112.011 24.7543 110.192 25.7351 110.192 27.574C110.192 29.2578 111.664 30.3386 113.302 30.3386C114.561 30.3386 115.254 29.7707 115.687 29.1127H115.754V30.0834H117.561V25.2797C117.561 23.043 115.899 21.8045 113.76 21.8045ZM113.525 28.6723C112.912 28.6723 112.054 28.3721 112.054 27.6015C112.054 26.6307 113.125 26.263 114.038 26.263C114.864 26.263 115.254 26.4406 115.744 26.6858C115.609 27.8117 114.658 28.6623 113.525 28.6723ZM124.151 22.0722L121.999 27.5114H121.932L119.702 22.0722H117.686L121.031 29.6756L119.124 33.9014H121.076L126.222 22.0722H124.151ZM107.283 30.0984H109.157V17.5587H107.283V30.0984Z" fill="white"/>
<path fill-rule="evenodd" clip-rule="evenodd" d="M10.4684 7.55828C10.1781 7.87102 10.0105 8.34888 10.0105 8.97437V31.159C10.0105 31.7844 10.1781 32.2623 10.4784 32.5625L10.5559 32.6301L22.9855 20.2005V19.9228L10.5459 7.49072L10.4684 7.55828Z" fill="url(#paint0_linear_443_970)"/>
<path fill-rule="evenodd" clip-rule="evenodd" d="M27.1211 24.3565L22.9753 20.2108V19.9206L27.1211 15.7749L27.2111 15.8299L32.115 18.6171C33.5185 19.4077 33.5185 20.7137 32.115 21.5143L27.2111 24.3015L27.1211 24.3565Z" fill="url(#paint1_linear_443_970)"/>
<path fill-rule="evenodd" clip-rule="evenodd" d="M27.2107 24.3012L22.9749 20.0654L10.4678 32.5726C10.9256 33.063 11.6937 33.118 12.5519 32.6401L27.2107 24.3012Z" fill="url(#paint2_linear_443_970)"/>
<path fill-rule="evenodd" clip-rule="evenodd" d="M27.2107 15.8297L12.5519 7.50323C11.6937 7.01285 10.9231 7.0804 10.4678 7.57078L22.9749 20.0654L27.2107 15.8297Z" fill="url(#paint3_linear_443_970)"/>
<path opacity="0.2" fill-rule="evenodd" clip-rule="evenodd" d="M27.1212 24.2109L12.5624 32.4824C11.7493 32.9503 11.0237 32.9177 10.5558 32.4924L10.4783 32.57L10.5558 32.6375C11.0237 33.0604 11.7493 33.0954 12.5624 32.6275L27.2213 24.301L27.1212 24.2109Z" fill="black"/>
<path opacity="0.12" fill-rule="evenodd" clip-rule="evenodd" d="M32.1148 21.3689L27.1084 24.2111L27.1985 24.3012L32.1023 21.514C32.8053 21.1137 33.1506 20.5883 33.1506 20.0654C33.108 20.5458 32.7503 21.0012 32.1148 21.3689Z" fill="black"/>
<path opacity="0.25" fill-rule="evenodd" clip-rule="evenodd" d="M12.5525 7.64832L32.1151 18.7619C32.7506 19.1197 33.1083 19.5876 33.1634 20.0654C33.1634 19.5425 32.8181 19.0171 32.1151 18.6168L12.5525 7.5032C11.1489 6.70008 10.0105 7.3706 10.0105 8.97434V9.11946C10.0105 7.51321 11.1489 6.8552 12.5525 7.64832Z" fill="white"/>
</g>
<defs>
<linearGradient id="paint0_linear_443_970" x1="21.8706" y1="8.73502" x2="1.96054" y2="14.0401" gradientUnits="userSpaceOnUse">
<stop stop-color="#00A0FF"/>
<stop offset="0.00657" stop-color="#00A1FF"/>
<stop offset="0.2601" stop-color="#00BEFF"/>
<stop offset="0.5122" stop-color="#00D2FF"/>
<stop offset="0.7604" stop-color="#00DFFF"/>
<stop offset="1" stop-color="#00E3FF"/>
</linearGradient>
<linearGradient id="paint1_linear_443_970" x1="33.9454" y1="20.0658" x2="9.66911" y2="20.0658" gradientUnits="userSpaceOnUse">
<stop stop-color="#FFE000"/>
<stop offset="0.4087" stop-color="#FFBD00"/>
<stop offset="0.7754" stop-color="#FFA500"/>
<stop offset="1" stop-color="#FF9C00"/>
</linearGradient>
<linearGradient id="paint2_linear_443_970" x1="24.9074" y1="22.3703" x2="8.92371" y2="49.2722" gradientUnits="userSpaceOnUse">
<stop stop-color="#FF3A44"/>
<stop offset="1" stop-color="#C31162"/>
</linearGradient>
<linearGradient id="paint3_linear_443_970" x1="7.31834" y1="0.179311" x2="14.4493" y2="12.1941" gradientUnits="userSpaceOnUse">
<stop stop-color="#32A071"/>
<stop offset="0.0685" stop-color="#2DA771"/>
<stop offset="0.4762" stop-color="#15CF74"/>
<stop offset="0.8009" stop-color="#06E775"/>
<stop offset="1" stop-color="#00F076"/>
</linearGradient>
<clipPath id="clip0_443_970">
<rect width="136" height="40.131" fill="white"/>
</clipPath>
</defs>
</svg>
