<svg width="18" height="18" viewBox="0 0 18 18" fill="none" xmlns="http://www.w3.org/2000/svg">
<path d="M3.55251 2.69401C5.06464 1.38373 6.99916 0.663721 9.00001 0.666512C13.6025 0.666512 17.3333 4.39735 17.3333 8.99985C17.3333 10.7798 16.775 12.4298 15.825 13.7832L13.1667 8.99985H15.6667C15.6668 7.69287 15.2827 6.41468 14.5622 5.32423C13.8417 4.23377 12.8166 3.37914 11.6143 2.86662C10.412 2.35409 9.0856 2.20626 7.79997 2.44153C6.51434 2.67679 5.32622 3.28476 4.38334 4.18985L3.55251 2.69401ZM14.4475 15.3057C12.9354 16.616 11.0008 17.336 9.00001 17.3332C4.39751 17.3332 0.666672 13.6023 0.666672 8.99985C0.666672 7.21985 1.22501 5.56985 2.17501 4.21651L4.83334 8.99985H2.33334C2.33323 10.3068 2.7173 11.585 3.43779 12.6755C4.15827 13.7659 5.18339 14.6205 6.38569 15.1331C7.58798 15.6456 8.91441 15.7934 10.2 15.5582C11.4857 15.3229 12.6738 14.7149 13.6167 13.8098L14.4475 15.3057Z" fill="#20A052"/>
</svg>
