<svg width="24" height="24" viewBox="0 0 24 24" fill="none" xmlns="http://www.w3.org/2000/svg">
<rect width="24" height="24" rx="12" fill="#F2F3F5"/>
<path d="M11.9666 2C7.63332 2 3.93332 4.8 2.56665 8.66667H21.4333C20.0333 4.8 16.3333 2 11.9666 2Z" fill="white"/>
<path d="M11.9667 22C16.3333 22 20.0333 19.2 21.4 15.3333H2.56665C3.93332 19.2333 7.63332 22 11.9667 22Z" fill="#ED4C5C"/>
<path d="M2.56667 8.66666C2.2 9.69999 2 10.8333 2 12C2 13.1667 2.2 14.3 2.56667 15.3333H21.4333C21.8 14.3 22 13.1667 22 12C22 10.8333 21.8 9.69999 21.4333 8.66666H2.56667Z" fill="#428BC1"/>
</svg>
