<svg width="11" height="10" viewBox="0 0 11 10" fill="none" xmlns="http://www.w3.org/2000/svg">
<path d="M10.4547 3.78272C10.4216 3.68707 10.3616 3.60306 10.2818 3.54088C10.2019 3.47869 10.1058 3.441 10.005 3.43237L7.02967 2.99837L5.69628 0.294973C5.65346 0.206566 5.58661 0.132007 5.50338 0.0798382C5.42014 0.0276692 5.3239 0 5.22567 0C5.12744 0 5.0312 0.0276692 4.94796 0.0798382C4.86473 0.132007 4.79788 0.206566 4.75506 0.294973L3.42166 2.99314L0.446363 3.43237C0.349586 3.44613 0.258602 3.48674 0.183737 3.54959C0.108871 3.61244 0.0531213 3.69501 0.022814 3.78795C-0.00492846 3.87876 -0.00741802 3.97541 0.0156125 4.06754C0.038643 4.15966 0.0863242 4.24377 0.153539 4.31084L2.31312 6.40244L1.79022 9.37252C1.77155 9.47055 1.78132 9.57188 1.81839 9.66453C1.85545 9.75719 1.91825 9.8373 1.99938 9.89542C2.07845 9.95195 2.17171 9.98531 2.26869 9.99178C2.36568 9.99825 2.46255 9.97755 2.54842 9.93202L5.22567 8.53588L7.89246 9.93725C7.96585 9.97865 8.04873 10.0003 8.13299 10C8.24376 10.0004 8.35179 9.9656 8.4415 9.90065C8.52263 9.84253 8.58543 9.76242 8.62249 9.66976C8.65956 9.5771 8.66933 9.47578 8.65066 9.37775L8.12776 6.40767L10.2873 4.31607C10.3628 4.25211 10.4186 4.16804 10.4483 4.07363C10.4779 3.97922 10.4801 3.87834 10.4547 3.78272Z" fill="#FFA000"/>
</svg>
