<svg width="28" height="28" viewBox="0 0 28 28" fill="none" xmlns="http://www.w3.org/2000/svg">
<path d="M14 2.33325C11.7372 2.33755 9.52451 2.99978 7.63141 4.23928C5.73831 5.47878 4.24652 7.24205 3.33774 9.31432C2.42896 11.3866 2.14241 13.6784 2.51301 15.9106C2.8836 18.1429 3.89533 20.2191 5.42498 21.8866C6.51747 23.0708 7.84341 24.0159 9.31924 24.6623C10.7951 25.3087 12.3888 25.6425 14 25.6425C15.6112 25.6425 17.2049 25.3087 18.6807 24.6623C20.1565 24.0159 21.4825 23.0708 22.575 21.8866C24.1046 20.2191 25.1164 18.1429 25.4869 15.9106C25.8575 13.6784 25.571 11.3866 24.6622 9.31432C23.7534 7.24205 22.2616 5.47878 20.3685 4.23928C18.4754 2.99978 16.2628 2.33755 14 2.33325ZM14 23.3333C11.5832 23.3296 9.26204 22.3886 7.52498 20.7083C8.05236 19.4244 8.94951 18.3263 10.1024 17.5535C11.2554 16.7806 12.612 16.368 14 16.368C15.3879 16.368 16.7446 16.7806 17.8975 17.5535C19.0504 18.3263 19.9476 19.4244 20.475 20.7083C18.7379 22.3886 16.4168 23.3296 14 23.3333ZM11.6666 11.6666C11.6666 11.2051 11.8035 10.754 12.0599 10.3703C12.3163 9.98654 12.6807 9.68747 13.107 9.51087C13.5334 9.33426 14.0026 9.28805 14.4552 9.37809C14.9078 9.46812 15.3236 9.69035 15.6499 10.0167C15.9762 10.343 16.1984 10.7588 16.2885 11.2114C16.3785 11.664 16.3323 12.1332 16.1557 12.5595C15.9791 12.9859 15.68 13.3503 15.2963 13.6067C14.9126 13.8631 14.4615 13.9999 14 13.9999C13.3811 13.9999 12.7876 13.7541 12.3501 13.3165C11.9125 12.8789 11.6666 12.2854 11.6666 11.6666ZM22.0616 18.6666C21.0193 16.8836 19.4149 15.4968 17.5 14.7233C18.094 14.0497 18.4811 13.219 18.6147 12.3309C18.7483 11.4428 18.6229 10.535 18.2534 9.7165C17.8838 8.89795 17.286 8.2034 16.5315 7.71621C15.7771 7.22902 14.8981 6.96988 14 6.96988C13.1019 6.96988 12.2229 7.22902 11.4684 7.71621C10.714 8.2034 10.1161 8.89795 9.7466 9.7165C9.37709 10.535 9.25163 11.4428 9.38526 12.3309C9.51889 13.219 9.90595 14.0497 10.5 14.7233C8.58501 15.4968 6.98069 16.8836 5.93831 18.6666C5.10758 17.2515 4.66865 15.6408 4.66664 13.9999C4.66664 11.5246 5.64997 9.15059 7.40031 7.40026C9.15065 5.64992 11.5246 4.66659 14 4.66659C16.4753 4.66659 18.8493 5.64992 20.5996 7.40026C22.35 9.15059 23.3333 11.5246 23.3333 13.9999C23.3313 15.6408 22.8924 17.2515 22.0616 18.6666Z" fill="#53B374"/>
</svg>
