<svg width="80" height="72" viewBox="0 0 80 72" fill="none" xmlns="http://www.w3.org/2000/svg">
<path d="M74.308 25.6521C74.1655 25.5096 74.0206 25.3705 73.8745 25.233V20.7297C73.8745 16.2517 70.2314 12.6086 65.7534 12.6086H51.5083V8.52736C51.5083 4.17018 47.9634 0.625488 43.6064 0.625488H30.2684C25.9113 0.625488 22.3666 4.17018 22.3666 8.52736V12.6086H8.12109C3.64312 12.6086 0 16.2517 0 20.7297V56.8783C0 61.3563 3.64312 64.9994 8.12109 64.9994H25.0767C25.7239 64.9994 26.2486 64.4747 26.2486 63.8275C26.2486 63.1803 25.7239 62.6556 25.0767 62.6556H8.12109C4.93531 62.6556 2.34359 60.0639 2.34359 56.8781V33.2375C4.63828 36.6413 8.41297 38.9683 12.7372 39.2888V43.5553C12.7372 45.9921 14.7197 47.9745 17.1564 47.9745C19.5933 47.9745 21.5758 45.9921 21.5758 43.5553V39.327H41.1584C41.1584 39.3458 41.1578 39.3644 41.1578 39.3831C41.1578 43.3736 42.3545 47.1797 44.5761 50.3936L42.0883 52.8814C41.2195 52.6356 40.2461 52.8527 39.5637 53.5353L30.0077 63.0914C28.1161 64.983 28.1161 68.0608 30.0077 69.9524C31.9036 71.8483 34.9725 71.8486 36.8686 69.9524L46.4247 60.3963C47.1072 59.7138 47.3244 58.7405 47.0786 57.8717L49.5686 55.3817C56.1534 59.9169 64.9309 59.9313 71.5311 55.4185V56.8783C71.5311 60.0641 68.9394 62.6558 65.7536 62.6558H47.2436C46.5964 62.6558 46.0717 63.1805 46.0717 63.8277C46.0717 64.4749 46.5964 64.9995 47.2436 64.9995H65.7534C70.2314 64.9995 73.8745 61.3564 73.8745 56.8785V53.5336C74.0205 53.3964 74.1653 53.2574 74.308 53.1147C81.8969 45.5258 81.8978 33.2419 74.308 25.6521ZM24.71 8.52736C24.71 5.46252 27.2034 2.96908 30.2683 2.96908H43.6062C46.6711 2.96908 49.1645 5.46252 49.1645 8.52736V12.6086H46.6647V8.52736C46.6647 6.84096 45.2927 5.46893 43.6062 5.46893H30.2683C28.5819 5.46893 27.2098 6.84096 27.2098 8.52736V12.6086H24.71V8.52736ZM29.5534 12.6086V8.52736C29.5534 8.1333 29.8741 7.81268 30.2683 7.81268H43.6062C44.0005 7.81268 44.3211 8.1333 44.3211 8.52736V12.6086H29.5534ZM19.2322 39.9535H15.0809V36.0085C15.0809 34.8639 16.012 33.9328 17.1566 33.9328C18.3011 33.9328 19.2322 34.8639 19.2322 36.0085V39.9535ZM17.1566 45.6311C16.012 45.6311 15.0809 44.7 15.0809 43.5555V42.2971H19.2322V43.5555C19.2322 44.7 18.3011 45.6311 17.1566 45.6311ZM21.5758 36.9836V36.0085C21.5758 33.5717 19.5933 31.5892 17.1564 31.5892C14.7197 31.5892 12.7372 33.5717 12.7372 36.0085V36.9352C6.91953 36.4139 2.34359 31.5139 2.34359 25.563V20.7297C2.34359 17.5439 4.93531 14.9522 8.12109 14.9522H65.7534C68.9392 14.9522 71.5309 17.5439 71.5309 20.7297V23.3439C64.1208 18.26 53.6827 18.8146 46.8455 25.6519C43.7494 28.7478 41.8277 32.7052 41.3037 36.9835H21.5758V36.9836ZM35.2113 68.2953C34.2313 69.2753 32.6448 69.2755 31.6647 68.2953C31.1909 67.8216 30.9302 67.1919 30.9302 66.522C30.9302 65.8522 31.1909 65.2224 31.6647 64.7488L38.2848 58.1286L41.8314 61.6752L35.2113 68.2953ZM44.7673 58.7392L43.4886 60.018L39.942 56.4714L41.2208 55.1927C41.2658 55.1478 41.3247 55.1253 41.3836 55.1253C41.4425 55.1253 41.5014 55.1478 41.5462 55.1925C41.5466 55.1927 41.5467 55.193 41.547 55.1931L44.7673 58.4135C44.857 58.5033 44.857 58.6494 44.7673 58.7392ZM45.652 55.9838L43.9761 54.3078L46.0334 52.2505C46.2947 52.545 46.5647 52.8338 46.8455 53.1144C47.1269 53.3958 47.4156 53.6655 47.7097 53.926L45.652 55.9838ZM48.5027 51.4574C45.2775 48.2324 43.5014 43.9442 43.5014 39.3833C43.5014 34.8224 45.2775 30.5342 48.5027 27.3092C55.1755 20.6363 65.977 20.6353 72.6508 27.3092C79.3237 33.9821 79.3247 44.7836 72.6508 51.4574C65.9777 58.1305 55.1764 58.1313 48.5027 51.4574Z" fill="#20A052"/>
</svg>
